SplineFontDB: 3.0
FontName: GunjalaGondi
FullName: GunjalaGondi
FamilyName: GunjalaGondi
Weight: Book
Copyright: Original font copyright (c) 2014-2017 CDAST, University of Hyderabad, Hyderabad (cdast@uohyd.ernet.in).\nAdditions and modifications copyright (c) 2015-2019 SIL International (http://www.sil.org/).
Version: 001.002
ItalicAngle: 0
UnderlinePosition: -123
UnderlineWidth: 20
Ascent: 1638
Descent: 410
InvalidEm: 0
sfntRevision: 0x00010000
LayerCount: 3
Layer: 0 0 "Back" 1
Layer: 1 0 "Fore" 0
Layer: 2 0 "Back 2" 1
XUID: [1021 352 -31360307 15874248]
FSType: 768
OS2Version: 3
OS2_WeightWidthSlopeOnly: 0
OS2_UseTypoMetrics: 1
CreationTime: 1417865974
ModificationTime: 1547249940
PfmFamily: 17
TTFWeight: 400
TTFWidth: 5
LineGap: 57
VLineGap: 0
Panose: 2 0 5 3 8 0 0 2 0 4
OS2TypoAscent: 1516
OS2TypoAOffset: 0
OS2TypoDescent: -497
OS2TypoDOffset: 0
OS2TypoLinegap: 112
OS2WinAscent: 1897
OS2WinAOffset: 0
OS2WinDescent: 403
OS2WinDOffset: 0
HheadAscent: 1897
HheadAOffset: 0
HheadDescent: -403
HheadDOffset: 0
OS2SubXSize: 1434
OS2SubYSize: 1331
OS2SubXOff: 0
OS2SubYOff: 293
OS2SupXSize: 1434
OS2SupYSize: 1331
OS2SupXOff: 0
OS2SupYOff: 928
OS2StrikeYSize: 102
OS2StrikeYPos: 512
OS2Vendor: 'SFS '
OS2CodePages: 00000001.00000000
OS2UnicodeRanges: 80008003.00002040.00000000.00000000
Lookup: 4 0 0 "'half' Half Forms in Devanagari lookup 0" { "'half' Half Forms in Devanagari lookup 0 subtable"  } ['half' ('deva' <'dflt' > ) 'zz01' ('deva' <'zz01' > ) ]
Lookup: 4 0 0 "'psts' Post Base Substitutions in Devanagari lookup 1" { "'psts' Post Base Substitutions in Devanagari lookup 1 subtable"  } ['psts' ('deva' <'dflt' > ) 'zz02' ('deva' <'zz01' > ) ]
Lookup: 4 0 0 "'pres' Pre Base Substitutions in Devanagari lookup 2" { "'pres' Pre Base Substitutions in Devanagari lookup 2 subtable"  } ['pres' ('deva' <'dflt' > ) 'zz03' ('deva' <'zz01' > ) ]

StartChar: .notdef
Encoding: 0 -1 0
Width: 1042
GlyphClass: 2
Flags: HW
LayerCount: 3
Fore
SplineSet
127 0 m 1
 127 1339 l 1
 906 1339 l 1
 906 0 l 1
 127 0 l 1
259 127 m 1
 779 127 l 1
 779 1211 l 1
 259 1211 l 1
 259 127 l 1
EndSplineSet
EndChar

StartChar: exclam
Encoding: 4 33 4
Width: 694
GlyphClass: 2
Flags: HW
LayerCount: 3
Fore
SplineSet
504 1131 m 1
 430 402 l 1
 351 402 l 1
 274 1124 l 1
 271 1167 l 1
 271 1210.33333333 283.333333333 1243.33333333 308 1266 c 0
 332.666666667 1290 359.666666667 1302 389 1302 c 0
 424.333333333 1302 451 1290.16666667 469 1266.5 c 128
 487 1242.83333333 499.666666667 1212.33333333 507 1175 c 1
 504 1131 l 1
384 -3 m 1
 249 125 l 1
 394 271 l 1
 532 125 l 1
 384 -3 l 1
EndSplineSet
EndChar

StartChar: quotedbl
Encoding: 5 34 5
Width: 1024
GlyphClass: 2
Flags: HW
LayerCount: 3
Fore
SplineSet
364 1277 m 1
 291 1280 l 1
 283.666666667 1345.33333333 276.166666667 1402.83333333 268.5 1452.5 c 128
 260.833333333 1502.16666667 252.666666667 1545 244 1581 c 0
 228 1652.33333333 223.333333333 1694.33333333 230 1707 c 1
 437 1666 l 1
 364 1277 l 1
709 1277 m 1
 632 1280 l 1
 624.666666667 1345.33333333 617.333333333 1402.83333333 610 1452.5 c 128
 602.666666667 1502.16666667 595.333333333 1545 588 1581 c 0
 573.333333333 1651 568.666666667 1693 574 1707 c 1
 779 1666 l 1
 709 1277 l 1
EndSplineSet
EndChar

StartChar: numbersign
Encoding: 6 35 6
Width: 1167
GlyphClass: 2
Flags: HW
LayerCount: 3
Fore
SplineSet
310 389 m 1
 161 389 l 1
 161 520 l 1
 335 520 l 1
 386 784 l 1
 161 784 l 1
 161 906 l 1
 412 906 l 1
 499 1334 l 1
 625 1334 l 1
 542 906 l 1
 801 906 l 1
 891 1334 l 1
 1014 1334 l 1
 929 906 l 1
 1075 906 l 1
 1075 784 l 1
 901 784 l 1
 850 520 l 1
 1075 520 l 1
 1075 389 l 1
 824 389 l 1
 740 -13 l 1
 611 -13 l 1
 696 389 l 1
 437 389 l 1
 354 -13 l 1
 220 -13 l 1
 310 389 l 1
464 520 m 1
 716 520 l 1
 772 784 l 1
 517 784 l 1
 464 520 l 1
EndSplineSet
EndChar

StartChar: percent
Encoding: 7 -1 7
Width: 1424
GlyphClass: 2
Flags: HW
LayerCount: 3
Fore
SplineSet
156 935 m 2
 156 971 162 1006.83333333 174 1042.5 c 128
 186 1078.16666667 203 1110.16666667 225 1138.5 c 128
 247 1166.83333333 273.333333333 1189.83333333 304 1207.5 c 128
 334.666666667 1225.16666667 368.333333333 1234 405 1234 c 0
 442.333333333 1234 478.5 1228.5 513.5 1217.5 c 128
 548.5 1206.5 579.333333333 1190.33333333 606 1169 c 128
 632.666666667 1147.66666667 654 1120.83333333 670 1088.5 c 128
 686 1056.16666667 694 1019 694 977 c 0
 694 935.666666667 687.5 896 674.5 858 c 128
 661.5 820 643.166666667 786.5 619.5 757.5 c 128
 595.833333333 728.5 567.666666667 705.333333333 535 688 c 128
 502.333333333 670.666666667 466.333333333 662 427 662 c 0
 363 662 305.666666667 681.333333333 255 720 c 256
 204.333333333 758.666666667 171.333333333 814 156 886 c 1
 156 935 l 2
722 295 m 2
 722 331.666666667 728 367.666666667 740 403 c 128
 752 438.333333333 768.833333333 470 790.5 498 c 128
 812.166666667 526 838.166666667 548.5 868.5 565.5 c 128
 898.833333333 582.5 932.666666667 591 970 591 c 0
 1009.33333333 592.333333333 1046.33333333 587.5 1081 576.5 c 128
 1115.66666667 565.5 1146 549 1172 527 c 128
 1198 505 1218.66666667 477.833333333 1234 445.5 c 128
 1249.33333333 413.166666667 1257 376.333333333 1257 335 c 0
 1258.33333333 294.333333333 1252.5 255.166666667 1239.5 217.5 c 128
 1226.5 179.833333333 1208.16666667 146.5 1184.5 117.5 c 128
 1160.83333333 88.5 1132.83333333 65.3333333333 1100.5 48 c 128
 1068.16666667 30.6666666667 1033.33333333 22 996 22 c 0
 931.333333333 22 873.666666667 41 823 79 c 0
 773 116.333333333 739.333333333 171.333333333 722 244 c 1
 722 295 l 2
386 -46 m 1
 259 -46 l 1
 1047 1319 l 1
 1180 1319 l 1
 386 -46 l 1
281 1006 m 0
 281 978 285.666666667 950.5 295 923.5 c 128
 304.333333333 896.5 317.5 872.5 334.5 851.5 c 128
 351.5 830.5 371.666666667 813.5 395 800.5 c 128
 418.333333333 787.5 443.666666667 781 471 781 c 0
 501.666666667 781 525.666666667 792 543 814 c 0
 560.333333333 836.666666667 569 860.666666667 569 886 c 0
 569 910 563.833333333 935.333333333 553.5 962 c 128
 543.166666667 988.666666667 529.333333333 1013.33333333 512 1036 c 128
 494.666666667 1058.66666667 475 1077.33333333 453 1092 c 128
 431 1106.66666667 408 1114 384 1114 c 0
 368 1114 353.5 1111.16666667 340.5 1105.5 c 128
 327.5 1099.83333333 316.666666667 1092 308 1082 c 128
 299.333333333 1072 292.666666667 1060.5 288 1047.5 c 128
 283.333333333 1034.5 281 1020.66666667 281 1006 c 0
850 366 m 0
 850 337.333333333 854.5 309.166666667 863.5 281.5 c 128
 872.5 253.833333333 885.166666667 229.166666667 901.5 207.5 c 128
 917.833333333 185.833333333 937.666666667 168.666666667 961 156 c 128
 984.333333333 143.333333333 1010.33333333 137.666666667 1039 139 c 0
 1055 139 1069 142 1081 148 c 128
 1093 154 1102.83333333 162 1110.5 172 c 128
 1118.16666667 182 1124 193.166666667 1128 205.5 c 128
 1132 217.833333333 1134 230.666666667 1134 244 c 0
 1133.33333333 268 1128.16666667 293.333333333 1118.5 320 c 128
 1108.83333333 346.666666667 1095.66666667 371.166666667 1079 393.5 c 128
 1062.33333333 415.833333333 1042.66666667 434.333333333 1020 449 c 128
 997.333333333 463.666666667 973 471 947 471 c 0
 915 471 890.833333333 461.166666667 874.5 441.5 c 128
 858.166666667 421.833333333 850 396.666666667 850 366 c 0
EndSplineSet
EndChar

StartChar: ampersand
Encoding: 8 38 8
Width: 1685
GlyphClass: 2
Flags: HW
LayerCount: 3
Fore
SplineSet
1482 852 m 1
 1482 816 l 1
 1456.66666667 814.666666667 1434.16666667 811.5 1414.5 806.5 c 128
 1394.83333333 801.5 1377.33333333 793 1362 781 c 0
 1336.66666667 761.666666667 1294.66666667 701.666666667 1236 601 c 0
 1206 550.333333333 1176.5 501.5 1147.5 454.5 c 128
 1118.5 407.5 1086 361.666666667 1050 317 c 1
 1105.33333333 251 1155 204.666666667 1199 178 c 0
 1243 152 1288.66666667 139 1336 139 c 0
 1380 139 1417 151.166666667 1447 175.5 c 128
 1477 199.833333333 1497 234.333333333 1507 279 c 1
 1546 256 l 1
 1518.66666667 165.333333333 1480.66666667 100 1432 60 c 128
 1383.33333333 20 1323 0 1251 0 c 0
 1201 0 1149 12.6666666667 1095 38 c 0
 1043 62.6666666667 984.333333333 109.666666667 919 179 c 1
 879.666666667 145 842.666666667 116.5 808 93.5 c 128
 773.333333333 70.5 739.5 52 706.5 38 c 128
 673.5 24 640.666666667 14.1666666667 608 8.5 c 128
 575.333333333 2.83333333333 541.666666667 0 507 0 c 0
 454.333333333 0 406.833333333 7.16666666667 364.5 21.5 c 128
 322.166666667 35.8333333333 286.166666667 55.3333333333 256.5 80 c 128
 226.833333333 104.666666667 204 133.833333333 188 167.5 c 128
 172 201.166666667 164 237.333333333 164 276 c 0
 164 334.666666667 174 385.666666667 194 429 c 128
 214 472.333333333 241.666666667 511.666666667 277 547 c 128
 312.333333333 582.333333333 353.833333333 615.666666667 401.5 647 c 128
 449.166666667 678.333333333 501 711 557 745 c 1
 541.666666667 777.666666667 528.833333333 807.166666667 518.5 833.5 c 128
 508.166666667 859.833333333 500.333333333 883.333333333 495 904 c 0
 485.666666667 947.333333333 481 989 481 1029 c 0
 481 1134.33333333 521 1217 601 1277 c 1
 661.666666667 1318.33333333 731.666666667 1339 811 1339 c 0
 889 1339 951.333333333 1317.33333333 998 1274 c 0
 1044 1230.66666667 1067 1175.66666667 1067 1109 c 256
 1067 1042.33333333 1043.33333333 984.333333333 996 935 c 0
 973.333333333 909 942.666666667 882.666666667 904 856 c 128
 865.333333333 829.333333333 815.666666667 799.666666667 755 767 c 1
 795 693 836.166666667 624.5 878.5 561.5 c 128
 920.833333333 498.5 963.333333333 436 1006 374 c 1
 1118.66666667 504.666666667 1175 617 1175 711 c 0
 1175 738.333333333 1164.66666667 764.333333333 1144 789 c 0
 1137.33333333 797 1128.5 803.166666667 1117.5 807.5 c 128
 1106.5 811.833333333 1095.66666667 814.666666667 1085 816 c 1
 1085 852 l 1
 1482 852 l 1
865 232 m 1
 843.666666667 262.666666667 824.5 290.333333333 807.5 315 c 128
 790.5 339.666666667 775.166666667 362.166666667 761.5 382.5 c 128
 747.833333333 402.833333333 735.5 421.166666667 724.5 437.5 c 128
 713.5 453.833333333 703.666666667 469.666666667 695 485 c 256
 686.333333333 500.333333333 677.833333333 515 669.5 529 c 128
 661.166666667 543 652.666666667 556.666666667 644 570 c 0
 636 583.333333333 627.166666667 599.166666667 617.5 617.5 c 128
 607.833333333 635.833333333 597.333333333 656.333333333 586 679 c 1
 438 593 364 488 364 364 c 0
 364 321.333333333 374 280.666666667 394 242 c 128
 414 203.333333333 441 172.333333333 475 149 c 0
 509 126.333333333 546.833333333 112.833333333 588.5 108.5 c 128
 630.166666667 104.166666667 672 112 714 132 c 0
 732.666666667 140 754.5 152.333333333 779.5 169 c 128
 804.5 185.666666667 833 206.666666667 865 232 c 1
719 830 m 1
 874.333333333 901.333333333 952 996 952 1114 c 0
 952 1162.66666667 938.666666667 1201.16666667 912 1229.5 c 128
 885.333333333 1257.83333333 850 1272 806 1272 c 0
 754 1272 713.333333333 1253.33333333 684 1216 c 0
 656 1178.66666667 642 1139.66666667 642 1099 c 0
 642 1083.66666667 643.5 1068 646.5 1052 c 128
 649.5 1036 654.166666667 1017.83333333 660.5 997.5 c 128
 666.833333333 977.166666667 674.833333333 953.333333333 684.5 926 c 128
 694.166666667 898.666666667 705.666666667 866.666666667 719 830 c 1
EndSplineSet
EndChar

StartChar: quotesingle
Encoding: 9 39 9
Width: 532
GlyphClass: 2
Flags: HW
LayerCount: 3
Fore
SplineSet
447 1620 m 0
 447 1584 414.333333333 1524.33333333 349 1441 c 0
 317 1400.33333333 286 1363.33333333 256 1330 c 128
 226 1296.66666667 197 1268 169 1244 c 1
 169 1356 l 1
 317 1559 l 1
 317 1620 l 1
 222 1771 l 1
 332 1897 l 1
 408.666666667 1829 447 1736.66666667 447 1620 c 0
EndSplineSet
EndChar

StartChar: parenleft
Encoding: 10 40 10
Width: 684
GlyphClass: 2
Flags: HW
LayerCount: 3
Fore
SplineSet
510 -249 m 1
 496 -236.333333333 483.666666667 -224 473 -212 c 128
 462.333333333 -200 452.333333333 -188 443 -176 c 128
 433.666666667 -164 424.666666667 -151.833333333 416 -139.5 c 128
 407.333333333 -127.166666667 398.333333333 -114 389 -100 c 0
 357 -59.3333333333 328.5 -14.3333333333 303.5 35 c 128
 278.5 84.3333333333 256.333333333 138.333333333 237 197 c 1
 205.666666667 267 184 342 172 422 c 128
 160 502 154 587.666666667 154 679 c 0
 154 753 160 826 172 898 c 128
 184 970 204 1045.33333333 232 1124 c 1
 260 1216.66666667 298.333333333 1299.66666667 347 1373 c 0
 371.666666667 1411 397.5 1448.66666667 424.5 1486 c 128
 451.5 1523.33333333 480 1561.33333333 510 1600 c 1
 569 1500 l 1
 519.666666667 1448 476.333333333 1385 439 1311 c 0
 402.333333333 1238.33333333 372.333333333 1164.66666667 349 1090 c 1
 331 1022 317.5 955 308.5 889 c 128
 299.5 823 295 753 295 679 c 256
 295 605 299.166666667 530.166666667 307.5 454.5 c 128
 315.833333333 378.833333333 328.333333333 299.666666667 345 217 c 1
 357.666666667 191 371.666666667 161.833333333 387 129.5 c 128
 402.333333333 97.1666666667 419.333333333 64.5 438 31.5 c 128
 456.666666667 -1.5 476.833333333 -33.6666666667 498.5 -65 c 128
 520.166666667 -96.3333333333 543.666666667 -124.333333333 569 -149 c 1
 510 -249 l 1
EndSplineSet
EndChar

StartChar: parenright
Encoding: 11 41 11
Width: 676
GlyphClass: 2
Flags: HW
LayerCount: 3
Fore
SplineSet
205 1595 m 1
 223 1577.66666667 242.833333333 1557 264.5 1533 c 128
 286.166666667 1509 306.333333333 1481 325 1449 c 0
 355.666666667 1399 384.5 1347.66666667 411.5 1295 c 128
 438.5 1242.33333333 462.666666667 1188.66666667 484 1134 c 0
 538.666666667 978 566 818.333333333 566 655 c 0
 566 531 538.666666667 381.666666667 484 207 c 0
 464.666666667 150.333333333 441.833333333 98 415.5 50 c 128
 389.166666667 2 359.666666667 -43 327 -85 c 0
 318.333333333 -100.333333333 309.833333333 -114.666666667 301.5 -128 c 128
 293.166666667 -141.333333333 284.333333333 -153.666666667 275 -165 c 0
 266.333333333 -176.333333333 256.333333333 -189 245 -203 c 128
 233.666666667 -217 221 -232.333333333 207 -249 c 1
 149 -154 l 1
 167.666666667 -123.333333333 186.833333333 -93.6666666667 206.5 -65 c 128
 226.166666667 -36.3333333333 245.166666667 -7.5 263.5 21.5 c 128
 281.833333333 50.5 299.166666667 80.5 315.5 111.5 c 128
 331.833333333 142.5 346.333333333 176 359 212 c 1
 377 284 392 355.333333333 404 426 c 128
 416 496.666666667 422 573 422 655 c 0
 422 731.666666667 416.833333333 810.833333333 406.5 892.5 c 128
 396.166666667 974.166666667 380.333333333 1057 359 1141 c 1
 341 1185 323.166666667 1226.5 305.5 1265.5 c 128
 287.833333333 1304.5 267.333333333 1343.33333333 244 1382 c 0
 239.333333333 1388.66666667 234.5 1395.5 229.5 1402.5 c 128
 224.5 1409.5 218.333333333 1417.5 211 1426.5 c 128
 203.666666667 1435.5 194.833333333 1446 184.5 1458 c 128
 174.166666667 1470 161.333333333 1484.66666667 146 1502 c 1
 205 1595 l 1
EndSplineSet
EndChar

StartChar: asterisk
Encoding: 12 42 12
Width: 1116
GlyphClass: 2
Flags: HW
LayerCount: 3
Fore
SplineSet
789 479 m 1
 622 632 l 1
 579 609 l 1
 657 396 l 1
 576 291 l 1
 464 386 l 1
 512 604 l 1
 466 625 l 1
 302 466 l 1
 197 481 l 1
 220 640 l 1
 435 686 l 1
 437 737 l 1
 259 789 l 1
 171 916 l 1
 317 970 l 1
 461 804 l 1
 510 824 l 1
 435 1052 l 1
 517 1165 l 1
 627 1065 l 1
 571 840 l 1
 625 806 l 1
 779 965 l 1
 899 970 l 1
 875 806 l 1
 652 747 l 1
 655 689 l 1
 847 655 l 1
 916 532 l 1
 789 479 l 1
EndSplineSet
EndChar

StartChar: plus
Encoding: 13 43 13
Width: 1416
GlyphClass: 2
Flags: HW
LayerCount: 3
Fore
SplineSet
767 581 m 1
 767 95 l 1
 622 95 l 1
 622 581 l 1
 164 581 l 1
 164 745 l 1
 622 745 l 1
 622 1229 l 1
 767 1229 l 1
 767 745 l 1
 1234 745 l 1
 1234 581 l 1
 767 581 l 1
EndSplineSet
EndChar

StartChar: comma
Encoding: 14 44 14
Width: 486
GlyphClass: 2
Flags: HW
LayerCount: 3
Fore
SplineSet
302 0 m 0
 302 -22.6666666667 269.666666667 -77.3333333333 205 -164 c 1
 167 -206.666666667 133.166666667 -243.666666667 103.5 -275 c 128
 73.8333333333 -306.333333333 46 -336 20 -364 c 1
 20 -259 l 1
 169 -54 l 1
 169 0 l 1
 161 0 l 1
 71 136 l 1
 179 264 l 1
 261 194.666666667 302 106.666666667 302 0 c 0
EndSplineSet
EndChar

StartChar: hyphen
Encoding: 15 45 15
Width: 1336
GlyphClass: 2
Flags: HW
LayerCount: 3
Fore
SplineSet
164 486 m 1
 164 637 l 1
 1101 637 l 1
 1101 486 l 1
 164 486 l 1
EndSplineSet
EndChar

StartChar: period
Encoding: 16 46 16
Width: 494
GlyphClass: 2
Flags: HW
LayerCount: 3
Fore
SplineSet
181 17 m 1
 46 164 l 1
 197 310 l 1
 332 164 l 1
 181 17 l 1
EndSplineSet
EndChar

StartChar: slash
Encoding: 17 47 17
Width: 909
GlyphClass: 2
Flags: HW
LayerCount: 3
Fore
SplineSet
34 -64 m 1
 640 1441 l 1
 786 1441 l 1
 179 -64 l 1
 34 -64 l 1
EndSplineSet
EndChar

StartChar: zero
Encoding: 18 48 18
Width: 1105
GlyphClass: 2
Flags: HW
LayerCount: 3
Fore
SplineSet
116 732 m 0
 116 858 126.166666667 969.333333333 146.5 1066 c 128
 166.833333333 1162.66666667 195.833333333 1243.83333333 233.5 1309.5 c 128
 271.166666667 1375.16666667 317 1424.66666667 371 1458 c 128
 425 1491.33333333 485.666666667 1508 553 1508 c 0
 623.666666667 1508 686 1490.66666667 740 1456 c 128
 794 1421.33333333 839.166666667 1370.66666667 875.5 1304 c 128
 911.833333333 1237.33333333 939.166666667 1155.33333333 957.5 1058 c 128
 975.833333333 960.666666667 985 849.333333333 985 724 c 0
 985 630 978.833333333 546.5 966.5 473.5 c 128
 954.166666667 400.5 937.166666667 336.5 915.5 281.5 c 128
 893.833333333 226.5 868.5 180 839.5 142 c 128
 810.5 104 779.666666667 73.3333333333 747 50 c 128
 714.333333333 26.6666666667 680.5 9.66666666667 645.5 -1 c 128
 610.5 -11.6666666667 576.333333333 -17 543 -17 c 0
 481 -17 424 -0.666666666667 372 32 c 128
 320 64.6666666667 275 112.833333333 237 176.5 c 128
 199 240.166666667 169.333333333 318.5 148 411.5 c 128
 126.666666667 504.5 116 611.333333333 116 732 c 0
312 706 m 0
 312 600 316.666666667 506.333333333 326 425 c 128
 335.333333333 343.666666667 349.666666667 275.333333333 369 220 c 128
 388.333333333 164.666666667 412.833333333 122.666666667 442.5 94 c 128
 472.166666667 65.3333333333 507.333333333 51 548 51 c 0
 584.666666667 51 617.833333333 63.1666666667 647.5 87.5 c 128
 677.166666667 111.833333333 702.5 153 723.5 211 c 128
 744.5 269 760.833333333 345.833333333 772.5 441.5 c 128
 784.166666667 537.166666667 790 656.666666667 790 800 c 0
 790 1010.66666667 769.833333333 1170 729.5 1278 c 128
 689.166666667 1386 629.666666667 1440 551 1440 c 0
 505.666666667 1440 467.666666667 1422.16666667 437 1386.5 c 128
 406.333333333 1350.83333333 381.833333333 1300.66666667 363.5 1236 c 128
 345.166666667 1171.33333333 332 1094 324 1004 c 128
 316 914 312 814.666666667 312 706 c 0
EndSplineSet
EndChar

StartChar: one
Encoding: 19 49 19
Width: 1024
GlyphClass: 2
Flags: HW
LayerCount: 3
Fore
SplineSet
617 229 m 2
 617 195.666666667 620.5 167.666666667 627.5 145 c 128
 634.5 122.333333333 645.666666667 104 661 90 c 128
 676.333333333 76 695.833333333 65.8333333333 719.5 59.5 c 128
 743.166666667 53.1666666667 772 50 806 50 c 1
 806 0 l 1
 285 0 l 1
 285 50 l 1
 343.666666667 50 386.5 63.3333333333 413.5 90 c 128
 440.5 116.666666667 454 163 454 229 c 2
 454 1254 l 2
 454 1281.33333333 453.333333333 1302.83333333 452 1318.5 c 128
 450.666666667 1334.16666667 448.5 1345.83333333 445.5 1353.5 c 128
 442.5 1361.16666667 439 1365.66666667 435 1367 c 128
 431 1368.33333333 426.166666667 1368.16666667 420.5 1366.5 c 128
 414.833333333 1364.83333333 408.5 1362.66666667 401.5 1360 c 128
 394.5 1357.33333333 386.666666667 1356 378 1356 c 0
 371.333333333 1356 362.166666667 1353.83333333 350.5 1349.5 c 128
 338.833333333 1345.16666667 326.333333333 1339.66666667 313 1333 c 128
 299.666666667 1326.33333333 286.666666667 1319.16666667 274 1311.5 c 128
 261.333333333 1303.83333333 251 1297 243 1291 c 1
 228 1368 l 1
 554 1495 l 1
 617 1495 l 1
 617 229 l 2
EndSplineSet
EndChar

StartChar: two
Encoding: 20 50 20
Width: 1111
GlyphClass: 2
Flags: HW
LayerCount: 3
Fore
SplineSet
1032 263 m 1
 963 0 l 1
 136 0 l 1
 89 76 l 1
 187 160 271.5 234.833333333 342.5 300.5 c 128
 413.5 366.166666667 473.666666667 425.666666667 523 479 c 128
 572.333333333 532.333333333 612.166666667 580.666666667 642.5 624 c 128
 672.833333333 667.333333333 696.333333333 708.166666667 713 746.5 c 128
 729.666666667 784.833333333 740.833333333 822.166666667 746.5 858.5 c 128
 752.166666667 894.833333333 755 932.666666667 755 972 c 0
 755 1034 747.666666667 1088.33333333 733 1135 c 128
 718.333333333 1181.66666667 698.5 1220.66666667 673.5 1252 c 128
 648.5 1283.33333333 619.666666667 1307 587 1323 c 128
 554.333333333 1339 520.333333333 1347 485 1347 c 0
 453 1347 421.666666667 1340.83333333 391 1328.5 c 128
 360.333333333 1316.16666667 331.666666667 1298.16666667 305 1274.5 c 128
 278.333333333 1250.83333333 254.5 1222.16666667 233.5 1188.5 c 128
 212.5 1154.83333333 195.666666667 1117 183 1075 c 1
 139 1173 l 1
 146.333333333 1219 160.5 1262 181.5 1302 c 128
 202.5 1342 230 1376.66666667 264 1406 c 128
 298 1435.33333333 337.833333333 1458.33333333 383.5 1475 c 128
 429.166666667 1491.66666667 480.666666667 1500 538 1500 c 0
 596 1500 650 1486.16666667 700 1458.5 c 128
 750 1430.83333333 793.333333333 1395.33333333 830 1352 c 128
 866.666666667 1308.66666667 895.5 1260.66666667 916.5 1208 c 128
 937.5 1155.33333333 948 1104.33333333 948 1055 c 0
 948 1001.66666667 943.166666667 953.666666667 933.5 911 c 128
 923.833333333 868.333333333 908.666666667 827.166666667 888 787.5 c 128
 867.333333333 747.833333333 840.666666667 707.833333333 808 667.5 c 128
 775.333333333 627.166666667 735.833333333 582.333333333 689.5 533 c 128
 643.166666667 483.666666667 589.5 428.166666667 528.5 366.5 c 128
 467.5 304.833333333 398.666666667 233 322 151 c 1
 713 151 l 2
 745.666666667 151 774.833333333 152.166666667 800.5 154.5 c 128
 826.166666667 156.833333333 849.5 161.833333333 870.5 169.5 c 128
 891.5 177.166666667 910.333333333 188.333333333 927 203 c 128
 943.666666667 217.666666667 959.333333333 237.666666667 974 263 c 1
 1032 263 l 1
EndSplineSet
EndChar

StartChar: three
Encoding: 21 51 21
Width: 1054
GlyphClass: 2
Flags: HW
LayerCount: 3
Fore
SplineSet
123 1250 m 1
 145 1284 169.166666667 1316 195.5 1346 c 128
 221.833333333 1376 251 1402.5 283 1425.5 c 128
 315 1448.5 350.333333333 1466.66666667 389 1480 c 128
 427.666666667 1493.33333333 470.666666667 1500 518 1500 c 0
 567.333333333 1500 612.5 1492 653.5 1476 c 128
 694.5 1460 729.833333333 1438.66666667 759.5 1412 c 128
 789.166666667 1385.33333333 812.166666667 1354.83333333 828.5 1320.5 c 128
 844.833333333 1286.16666667 853 1250.66666667 853 1214 c 0
 853 1168 846.833333333 1126 834.5 1088 c 128
 822.166666667 1050 806 1015.5 786 984.5 c 128
 766 953.5 743.333333333 925.666666667 718 901 c 128
 692.666666667 876.333333333 666.666666667 854.333333333 640 835 c 1
 682.666666667 818.333333333 721.166666667 798.166666667 755.5 774.5 c 128
 789.833333333 750.833333333 819.166666667 723.666666667 843.5 693 c 128
 867.833333333 662.333333333 886.5 628.833333333 899.5 592.5 c 128
 912.5 556.166666667 919 517.333333333 919 476 c 0
 919 400 905.333333333 331.5 878 270.5 c 128
 850.666666667 209.5 812.333333333 157.5 763 114.5 c 128
 713.666666667 71.5 654.166666667 38.5 584.5 15.5 c 128
 514.833333333 -7.5 438 -19 354 -19 c 0
 334.666666667 -19 314.5 -17.5 293.5 -14.5 c 128
 272.5 -11.5 250.5 -6 227.5 2 c 128
 204.5 10 180.666666667 21.1666666667 156 35.5 c 128
 131.333333333 49.8333333333 105.333333333 68 78 90 c 1
 196 234 l 1
 234 180 278.333333333 140.666666667 329 116 c 128
 379.666666667 91.3333333333 433.666666667 79 491 79 c 0
 525 79 557.666666667 83.8333333333 589 93.5 c 128
 620.333333333 103.166666667 647.833333333 119 671.5 141 c 128
 695.166666667 163 714.166666667 192 728.5 228 c 128
 742.833333333 264 750 308.333333333 750 361 c 0
 750 424.333333333 741 478.666666667 723 524 c 128
 705 569.333333333 679.666666667 606.5 647 635.5 c 128
 614.333333333 664.5 575.666666667 685.666666667 531 699 c 128
 486.333333333 712.333333333 437.666666667 719 385 719 c 2
 345 719 l 1
 300 796 l 1
 350.666666667 802 398.833333333 812.5 444.5 827.5 c 128
 490.166666667 842.5 530.5 863.5 565.5 890.5 c 128
 600.5 917.5 628.333333333 951.333333333 649 992 c 128
 669.666666667 1032.66666667 680 1082 680 1140 c 0
 680 1180 673.833333333 1214.66666667 661.5 1244 c 128
 649.166666667 1273.33333333 632.333333333 1297.66666667 611 1317 c 128
 589.666666667 1336.33333333 564.833333333 1350.66666667 536.5 1360 c 128
 508.166666667 1369.33333333 478 1374 446 1374 c 0
 396 1374 350.166666667 1360 308.5 1332 c 128
 266.833333333 1304 223.333333333 1260.33333333 178 1201 c 1
 123 1250 l 1
EndSplineSet
EndChar

StartChar: four
Encoding: 22 52 22
Width: 1111
GlyphClass: 2
Flags: HW
LayerCount: 3
Fore
SplineSet
1028 461 m 1
 1007 328 l 1
 842 328 l 1
 842 0 l 1
 668 0 l 1
 668 328 l 1
 132 328 l 1
 79 446 l 1
 743 1497 l 1
 842 1497 l 1
 842 461 l 1
 1028 461 l 1
668 461 m 1
 668 1182 l 1
 628.666666667 1117.33333333 589.666666667 1055.5 551 996.5 c 128
 512.333333333 937.5 473.666666667 879.166666667 435 821.5 c 128
 396.333333333 763.833333333 357.666666667 705.5 319 646.5 c 128
 280.333333333 587.5 241.333333333 525.666666667 202 461 c 1
 668 461 l 1
EndSplineSet
EndChar

StartChar: five
Encoding: 23 53 23
Width: 1081
GlyphClass: 2
Flags: HW
LayerCount: 3
Fore
SplineSet
948 1498 m 1
 891 1340 l 1
 484 1340 l 1
 471.333333333 1308 458.666666667 1277.66666667 446 1249 c 128
 433.333333333 1220.33333333 420.833333333 1192 408.5 1164 c 128
 396.166666667 1136 383.833333333 1107.66666667 371.5 1079 c 128
 359.166666667 1050.33333333 346.666666667 1020.33333333 334 989 c 1
 422 975.666666667 502.333333333 954.833333333 575 926.5 c 128
 647.666666667 898.166666667 709.833333333 863.833333333 761.5 823.5 c 128
 813.166666667 783.166666667 853.333333333 737.166666667 882 685.5 c 128
 910.666666667 633.833333333 925 578.333333333 925 519 c 0
 925 461.666666667 916.666666667 408.833333333 900 360.5 c 128
 883.333333333 312.166666667 860.833333333 268 832.5 228 c 128
 804.166666667 188 771.333333333 152.833333333 734 122.5 c 128
 696.666666667 92.1666666667 657.166666667 66.6666666667 615.5 46 c 128
 573.833333333 25.3333333333 531.333333333 9.66666666667 488 -1 c 128
 444.666666667 -11.6666666667 403.333333333 -17 364 -17 c 0
 344.666666667 -17 323.5 -14.8333333333 300.5 -10.5 c 128
 277.5 -6.16666666667 253.833333333 1.33333333333 229.5 12 c 128
 205.166666667 22.6666666667 180.5 37.1666666667 155.5 55.5 c 128
 130.5 73.8333333333 106.666666667 96.6666666667 84 124 c 1
 191 289 l 1
 233.666666667 229.666666667 277.5 187.5 322.5 162.5 c 128
 367.5 137.5 418 125 474 125 c 0
 514 124.333333333 551.833333333 131.166666667 587.5 145.5 c 128
 623.166666667 159.833333333 654.5 179.833333333 681.5 205.5 c 128
 708.5 231.166666667 729.833333333 261.833333333 745.5 297.5 c 128
 761.166666667 333.166666667 769 372 769 414 c 0
 769 476.666666667 756.166666667 533.5 730.5 584.5 c 128
 704.833333333 635.5 666.166666667 679 614.5 715 c 128
 562.833333333 751 498 778.833333333 420 798.5 c 128
 342 818.166666667 250.666666667 828 146 828 c 1
 428 1498 l 1
 948 1498 l 1
EndSplineSet
EndChar

StartChar: six
Encoding: 24 54 24
Width: 1142
GlyphClass: 2
Flags: HW
LayerCount: 3
Fore
SplineSet
987 1498 m 1
 987 1453 l 1
 931.666666667 1451 879.666666667 1440.83333333 831 1422.5 c 128
 782.333333333 1404.16666667 737.166666667 1380.16666667 695.5 1350.5 c 128
 653.833333333 1320.83333333 615.333333333 1286.16666667 580 1246.5 c 128
 544.666666667 1206.83333333 513.166666667 1164.33333333 485.5 1119 c 128
 457.833333333 1073.66666667 433.833333333 1026.66666667 413.5 978 c 128
 393.166666667 929.333333333 376.666666667 881 364 833 c 1
 386 847.666666667 408.833333333 861 432.5 873 c 128
 456.166666667 885 480 895 504 903 c 128
 528 911 551.666666667 917.166666667 575 921.5 c 128
 598.333333333 925.833333333 620 928 640 928 c 0
 690.666666667 928 737.5 919.166666667 780.5 901.5 c 128
 823.5 883.833333333 860.5 858.166666667 891.5 824.5 c 128
 922.5 790.833333333 946.833333333 749.333333333 964.5 700 c 128
 982.166666667 650.666666667 991 594.666666667 991 532 c 0
 991 454 979.833333333 381.833333333 957.5 315.5 c 128
 935.166666667 249.166666667 904.5 191.833333333 865.5 143.5 c 128
 826.5 95.1666666667 780.166666667 57.1666666667 726.5 29.5 c 128
 672.833333333 1.83333333333 614.666666667 -12 552 -12 c 0
 486 -12 426.333333333 3.33333333333 373 34 c 128
 319.666666667 64.6666666667 274.333333333 106.833333333 237 160.5 c 128
 199.666666667 214.166666667 170.833333333 277.333333333 150.5 350 c 128
 130.166666667 422.666666667 120 501 120 585 c 0
 120 656.333333333 128.833333333 728.5 146.5 801.5 c 128
 164.166666667 874.5 189.5 944.833333333 222.5 1012.5 c 128
 255.5 1080.16666667 295.666666667 1143.5 343 1202.5 c 128
 390.333333333 1261.5 443.5 1312.83333333 502.5 1356.5 c 128
 561.5 1400.16666667 625.666666667 1434.66666667 695 1460 c 128
 764.333333333 1485.33333333 838 1498 916 1498 c 2
 987 1498 l 1
326 512 m 0
 326 440.666666667 332.333333333 377 345 321 c 128
 357.666666667 265 375.166666667 217.833333333 397.5 179.5 c 128
 419.833333333 141.166666667 446.166666667 111.833333333 476.5 91.5 c 128
 506.833333333 71.1666666667 539.666666667 61 575 61 c 0
 603.666666667 61 631.666666667 69.1666666667 659 85.5 c 128
 686.333333333 101.833333333 710.5 125.5 731.5 156.5 c 128
 752.5 187.5 769.5 225.666666667 782.5 271 c 128
 795.5 316.333333333 802 368.333333333 802 427 c 0
 802 561.666666667 780.166666667 661.833333333 736.5 727.5 c 128
 692.833333333 793.166666667 634 826 560 826 c 0
 544.666666667 826 527.5 823.333333333 508.5 818 c 128
 489.5 812.666666667 470.333333333 805 451 795 c 128
 431.666666667 785 412.833333333 772.666666667 394.5 758 c 128
 376.166666667 743.333333333 359.666666667 727 345 709 c 1
 338.333333333 663.666666667 333.5 625.833333333 330.5 595.5 c 128
 327.5 565.166666667 326 537.333333333 326 512 c 0
EndSplineSet
EndChar

StartChar: seven
Encoding: 25 55 25
Width: 1099
GlyphClass: 2
Flags: HW
LayerCount: 3
Fore
SplineSet
231 1500 m 1
 1004 1500 l 1
 1004 1396 l 1
 524 -32 l 1
 385 47 l 1
 865 1333 l 1
 446 1333 l 2
 402.666666667 1333 367 1328.66666667 339 1320 c 128
 311 1311.33333333 287.666666667 1299 269 1283 c 128
 250.333333333 1267 234.333333333 1247.83333333 221 1225.5 c 128
 207.666666667 1203.16666667 193.666666667 1178.66666667 179 1152 c 1
 102 1166 l 1
 231 1500 l 1
EndSplineSet
EndChar

StartChar: eight
Encoding: 26 56 26
Width: 1049
GlyphClass: 2
Flags: HW
LayerCount: 3
Fore
SplineSet
113 329 m 0
 113 367 118.5 402.666666667 129.5 436 c 128
 140.5 469.333333333 157.833333333 502.333333333 181.5 535 c 128
 205.166666667 567.666666667 235.166666667 600.5 271.5 633.5 c 128
 307.833333333 666.5 351.333333333 701.333333333 402 738 c 1
 344.666666667 784 298.166666667 824 262.5 858 c 128
 226.833333333 892 199.166666667 924 179.5 954 c 128
 159.833333333 984 146.5 1013.83333333 139.5 1043.5 c 128
 132.5 1073.16666667 129 1106.33333333 129 1143 c 0
 129 1193.66666667 138.666666667 1240.83333333 158 1284.5 c 128
 177.333333333 1328.16666667 204.5 1366 239.5 1398 c 128
 274.5 1430 316.5 1455 365.5 1473 c 128
 414.5 1491 468.666666667 1500 528 1500 c 0
 584.666666667 1500 636.666666667 1490.33333333 684 1471 c 128
 731.333333333 1451.66666667 772 1425.83333333 806 1393.5 c 128
 840 1361.16666667 866.333333333 1324.33333333 885 1283 c 128
 903.666666667 1241.66666667 913 1199 913 1155 c 0
 913 1121 908.5 1090 899.5 1062 c 128
 890.5 1034 874.5 1006.16666667 851.5 978.5 c 128
 828.5 950.833333333 797.5 922 758.5 892 c 128
 719.5 862 670 828.333333333 610 791 c 1
 678 737 733.5 690 776.5 650 c 128
 819.5 610 853.333333333 573 878 539 c 128
 902.666666667 505 919.666666667 471.666666667 929 439 c 128
 938.333333333 406.333333333 943 370.333333333 943 331 c 0
 943 277.666666667 932.833333333 229 912.5 185 c 128
 892.166666667 141 863.666666667 103.333333333 827 72 c 128
 790.333333333 40.6666666667 746.5 16.5 695.5 -0.5 c 128
 644.5 -17.5 588.666666667 -26 528 -26 c 0
 466.666666667 -26 410.666666667 -17.6666666667 360 -1 c 128
 309.333333333 15.6666666667 265.666666667 39.5 229 70.5 c 128
 192.333333333 101.5 163.833333333 138.833333333 143.5 182.5 c 128
 123.166666667 226.166666667 113 275 113 329 c 0
305 1193 m 0
 305 1167 307.333333333 1143.16666667 312 1121.5 c 128
 316.666666667 1099.83333333 327.5 1076.33333333 344.5 1051 c 128
 361.5 1025.66666667 386.5 996.333333333 419.5 963 c 128
 452.5 929.666666667 497.333333333 888.333333333 554 839 c 1
 593.333333333 875 624.833333333 906.166666667 648.5 932.5 c 128
 672.166666667 958.833333333 690.333333333 984 703 1008 c 128
 715.666666667 1032 724 1056.33333333 728 1081 c 128
 732 1105.66666667 734 1134 734 1166 c 0
 734 1202.66666667 729.5 1237.33333333 720.5 1270 c 128
 711.5 1302.66666667 698.333333333 1331.16666667 681 1355.5 c 128
 663.666666667 1379.83333333 642.333333333 1399 617 1413 c 128
 591.666666667 1427 562.333333333 1434 529 1434 c 256
 495.666666667 1434 465.333333333 1427.16666667 438 1413.5 c 128
 410.666666667 1399.83333333 387.166666667 1381.83333333 367.5 1359.5 c 128
 347.833333333 1337.16666667 332.5 1311.5 321.5 1282.5 c 128
 310.5 1253.5 305 1223.66666667 305 1193 c 0
778 260 m 0
 778 294.666666667 772.166666667 327.833333333 760.5 359.5 c 128
 748.833333333 391.166666667 730.333333333 424 705 458 c 128
 679.666666667 492 646.833333333 527.833333333 606.5 565.5 c 128
 566.166666667 603.166666667 517.333333333 645.333333333 460 692 c 1
 433.333333333 669.333333333 409.833333333 646.333333333 389.5 623 c 128
 369.166666667 599.666666667 352 574 338 546 c 128
 324 518 313.5 486.833333333 306.5 452.5 c 128
 299.5 418.166666667 296 378.333333333 296 333 c 0
 296 279.666666667 302 234.333333333 314 197 c 128
 326 159.666666667 342.833333333 129.333333333 364.5 106 c 128
 386.166666667 82.6666666667 412.166666667 65.8333333333 442.5 55.5 c 128
 472.833333333 45.1666666667 506.333333333 40 543 40 c 0
 577.666666667 40 609.5 44.5 638.5 53.5 c 128
 667.5 62.5 692.333333333 76.1666666667 713 94.5 c 128
 733.666666667 112.833333333 749.666666667 135.666666667 761 163 c 128
 772.333333333 190.333333333 778 222.666666667 778 260 c 0
EndSplineSet
EndChar

StartChar: nine
Encoding: 27 57 27
Width: 1058
GlyphClass: 2
Flags: HW
LayerCount: 3
Fore
SplineSet
95 -12 m 1
 95 33 l 1
 179 37.6666666667 255.166666667 58.3333333333 323.5 95 c 128
 391.833333333 131.666666667 452 178.333333333 504 235 c 128
 556 291.666666667 599.833333333 355.333333333 635.5 426 c 128
 671.166666667 496.666666667 698.666666667 568.333333333 718 641 c 1
 696 625.666666667 673 612.166666667 649 600.5 c 128
 625 588.833333333 601 579 577 571 c 128
 553 563 529.333333333 557 506 553 c 128
 482.666666667 549 460.666666667 547 440 547 c 0
 389.333333333 547 342.666666667 558.166666667 300 580.5 c 128
 257.333333333 602.833333333 220.5 633.5 189.5 672.5 c 128
 158.5 711.5 134.333333333 757.833333333 117 811.5 c 128
 99.6666666667 865.166666667 91 923.666666667 91 987 c 0
 91 1065 102.166666667 1135.5 124.5 1198.5 c 128
 146.833333333 1261.5 177.5 1315.16666667 216.5 1359.5 c 128
 255.5 1403.83333333 301.666666667 1438 355 1462 c 128
 408.333333333 1486 466.333333333 1498 529 1498 c 0
 595.666666667 1498 655.5 1482.16666667 708.5 1450.5 c 128
 761.5 1418.83333333 806.666666667 1375.5 844 1320.5 c 128
 881.333333333 1265.5 910 1201 930 1127 c 128
 950 1053 960 973.333333333 960 888 c 0
 960 816.666666667 951.166666667 744.833333333 933.5 672.5 c 128
 915.833333333 600.166666667 890.666666667 530.666666667 858 464 c 128
 825.333333333 397.333333333 785.5 335.166666667 738.5 277.5 c 128
 691.5 219.833333333 638.5 169.5 579.5 126.5 c 128
 520.5 83.5 456.166666667 49.6666666667 386.5 25 c 128
 316.833333333 0.333333333333 243 -12 165 -12 c 2
 95 -12 l 1
738 765 m 1
 744 810.333333333 748.5 848.333333333 751.5 879 c 128
 754.5 909.666666667 756 938.333333333 756 965 c 0
 756 1035.66666667 749.666666667 1099.33333333 737 1156 c 128
 724.333333333 1212.66666667 707 1260.66666667 685 1300 c 128
 663 1339.33333333 636.833333333 1369.66666667 606.5 1391 c 128
 576.166666667 1412.33333333 543 1423 507 1423 c 0
 478.333333333 1423 450.5 1416.83333333 423.5 1404.5 c 128
 396.5 1392.16666667 372.333333333 1372.66666667 351 1346 c 128
 329.666666667 1319.33333333 312.5 1285 299.5 1243 c 128
 286.5 1201 280 1150.66666667 280 1092 c 0
 280 1024.66666667 285.5 963.666666667 296.5 909 c 128
 307.5 854.333333333 323.5 807.666666667 344.5 769 c 128
 365.5 730.333333333 391 700.5 421 679.5 c 128
 451 658.5 485.333333333 648 524 648 c 0
 538.666666667 648 555.333333333 650.666666667 574 656 c 128
 592.666666667 661.333333333 611.666666667 669.166666667 631 679.5 c 128
 650.333333333 689.833333333 669.333333333 702.166666667 688 716.5 c 128
 706.666666667 730.833333333 723.333333333 747 738 765 c 1
EndSplineSet
EndChar

StartChar: colon
Encoding: 28 58 28
Width: 657
GlyphClass: 2
Flags: HW
LayerCount: 3
Fore
SplineSet
312 674 m 1
 174 821 l 1
 322 967 l 1
 461 821 l 1
 312 674 l 1
317 7 m 1
 179 156 l 1
 327 302 l 1
 466 156 l 1
 317 7 l 1
EndSplineSet
EndChar

StartChar: semicolon
Encoding: 29 59 29
Width: 609
GlyphClass: 2
Flags: HW
LayerCount: 3
Fore
SplineSet
437 0 m 0
 437 -32.6666666667 403 -89 335 -169 c 0
 322.333333333 -185.666666667 309.833333333 -200.833333333 297.5 -214.5 c 128
 285.166666667 -228.166666667 273 -240.666666667 261 -252 c 0
 237.666666667 -274.666666667 209.333333333 -300 176 -328 c 1
 120 -276 l 1
 302 -103 l 1
 305 0 l 1
 302 0 l 1
 207 139 l 1
 317 264 l 1
 397 180.666666667 437 92.6666666667 437 0 c 0
310 674 m 1
 171 821 l 1
 320 967 l 1
 459 821 l 1
 310 674 l 1
EndSplineSet
EndChar

StartChar: less
Encoding: 30 60 30
Width: 867
GlyphClass: 2
Flags: HW
LayerCount: 3
Fore
SplineSet
715 34 m 1
 123 450 l 1
 123 597 l 1
 705 1011 l 1
 705 825 l 1
 284 519 l 1
 715 213 l 1
 715 34 l 1
EndSplineSet
EndChar

StartChar: equal
Encoding: 31 61 31
Width: 1339
GlyphClass: 2
Flags: HW
LayerCount: 3
Fore
SplineSet
164 850 m 1
 164 975 l 1
 1155 975 l 1
 1155 850 l 1
 164 850 l 1
164 420 m 1
 164 547 l 1
 1155 547 l 1
 1155 420 l 1
 164 420 l 1
EndSplineSet
EndChar

StartChar: greater
Encoding: 32 62 32
Width: 867
GlyphClass: 2
Flags: HW
LayerCount: 3
Fore
SplineSet
123 213 m 1
 554 519 l 1
 133 825 l 1
 133 1011 l 1
 715 597 l 1
 715 450 l 1
 123 34 l 1
 123 213 l 1
EndSplineSet
EndChar

StartChar: question
Encoding: 33 63 33
Width: 1116
GlyphClass: 2
Flags: HW
LayerCount: 3
Fore
SplineSet
926 970 m 0
 926 951.333333333 919.166666667 927 905.5 897 c 128
 891.833333333 867 874.166666667 834 852.5 798 c 128
 830.833333333 762 806.166666667 724.5 778.5 685.5 c 128
 750.833333333 646.5 722.833333333 608.833333333 694.5 572.5 c 128
 666.166666667 536.166666667 639.166666667 502.666666667 613.5 472 c 128
 587.833333333 441.333333333 565.666666667 416 547 396 c 1
 442 504 l 1
 508.666666667 574 563.333333333 633.666666667 606 683 c 128
 648.666666667 732.333333333 681.333333333 775 704 811 c 0
 739.333333333 867.666666667 766 915.833333333 784 955.5 c 128
 802 995.166666667 811 1028.33333333 811 1055 c 0
 811 1076.33333333 806.5 1097.83333333 797.5 1119.5 c 128
 788.5 1141.16666667 776.833333333 1160.66666667 762.5 1178 c 128
 748.166666667 1195.33333333 731.666666667 1209.33333333 713 1220 c 128
 694.333333333 1230.66666667 675 1236 655 1236 c 0
 639 1236 620.166666667 1233.33333333 598.5 1228 c 128
 576.833333333 1222.66666667 553.666666667 1214.16666667 529 1202.5 c 128
 504.333333333 1190.83333333 478.833333333 1175.83333333 452.5 1157.5 c 128
 426.166666667 1139.16666667 400 1116.66666667 374 1090 c 1
 279 1175 l 1
 391 1285 l 1
 461 1321 531 1339 601 1339 c 0
 645 1339 686.833333333 1329 726.5 1309 c 128
 766.166666667 1289 800.666666667 1262 830 1228 c 128
 859.333333333 1194 882.666666667 1154.66666667 900 1110 c 128
 917.333333333 1065.33333333 926 1018.66666667 926 970 c 0
537 -3 m 1
 402 125 l 1
 550 271 l 1
 686 125 l 1
 537 -3 l 1
EndSplineSet
EndChar

StartChar: at
Encoding: 34 64 34
Width: 1865
GlyphClass: 2
Flags: HW
LayerCount: 3
Fore
SplineSet
1719 156 m 1
 1691 72 1650.83333333 -4.33333333333 1598.5 -73 c 128
 1546.16666667 -141.666666667 1485.16666667 -200.5 1415.5 -249.5 c 128
 1345.83333333 -298.5 1269.5 -336.333333333 1186.5 -363 c 128
 1103.5 -389.666666667 1017.33333333 -403 928 -403 c 0
 850.666666667 -403 777.333333333 -393.5 708 -374.5 c 128
 638.666666667 -355.5 574.5 -328.5 515.5 -293.5 c 128
 456.5 -258.5 403.166666667 -216.666666667 355.5 -168 c 128
 307.833333333 -119.333333333 267.333333333 -65.5 234 -6.5 c 128
 200.666666667 52.5 175 116.166666667 157 184.5 c 128
 139 252.833333333 130 323.666666667 130 397 c 0
 130 475.666666667 140.166666667 551.833333333 160.5 625.5 c 128
 180.833333333 699.166666667 209.666666667 768.333333333 247 833 c 128
 284.333333333 897.666666667 329 957 381 1011 c 128
 433 1065 491 1111.33333333 555 1150 c 128
 619 1188.66666667 687.833333333 1218.66666667 761.5 1240 c 128
 835.166666667 1261.33333333 912 1272 992 1272 c 0
 1088 1272 1176.66666667 1256.5 1258 1225.5 c 128
 1339.33333333 1194.5 1409.66666667 1151.5 1469 1096.5 c 128
 1528.33333333 1041.5 1574.83333333 976.166666667 1608.5 900.5 c 128
 1642.16666667 824.833333333 1659 742 1659 652 c 0
 1659 596.666666667 1652.66666667 542.833333333 1640 490.5 c 128
 1627.33333333 438.166666667 1609.5 388.833333333 1586.5 342.5 c 128
 1563.5 296.166666667 1535.83333333 253.666666667 1503.5 215 c 128
 1471.16666667 176.333333333 1435.5 143 1396.5 115 c 128
 1357.5 87 1315.66666667 65.1666666667 1271 49.5 c 128
 1226.33333333 33.8333333333 1180 26 1132 26 c 0
 1028 26 976 69.6666666667 976 157 c 0
 976 169 976 169 976 182.5 c 128
 976 191.5 976.333333333 201.666666667 977 213 c 1
 916.333333333 145.666666667 860.333333333 97.1666666667 809 67.5 c 128
 757.666666667 37.8333333333 711 23 669 23 c 0
 641.666666667 23 616.666666667 28.8333333333 594 40.5 c 128
 571.333333333 52.1666666667 551.666666667 67.8333333333 535 87.5 c 128
 518.333333333 107.166666667 505.333333333 130.166666667 496 156.5 c 128
 486.666666667 182.833333333 482 211 482 241 c 0
 482 281.666666667 489.333333333 325.166666667 504 371.5 c 128
 518.666666667 417.833333333 538.5 463.833333333 563.5 509.5 c 128
 588.5 555.166666667 617.833333333 599.166666667 651.5 641.5 c 128
 685.166666667 683.833333333 720.833333333 721 758.5 753 c 128
 796.166666667 785 835.166666667 810.666666667 875.5 830 c 128
 915.833333333 849.333333333 955.333333333 859 994 859 c 0
 1026 859 1054.16666667 854.333333333 1078.5 845 c 128
 1102.83333333 835.666666667 1122.66666667 819 1138 795 c 0
 1139.33333333 795.666666667 1140 796.666666667 1140 798 c 0
 1142 804.666666667 1144 811.5 1146 818.5 c 128
 1148 825.5 1150 831.666666667 1152 837 c 1
 1164 838.333333333 1177.33333333 840 1192 842 c 128
 1206.66666667 844 1219.66666667 846 1231 848 c 0
 1244.33333333 850.666666667 1260.66666667 852.833333333 1280 854.5 c 128
 1299.33333333 856.166666667 1319.66666667 857.666666667 1341 859 c 1
 1325.66666667 809.666666667 1310.5 759.666666667 1295.5 709 c 128
 1280.5 658.333333333 1266.16666667 609 1252.5 561 c 128
 1238.83333333 513 1226 467.166666667 1214 423.5 c 128
 1202 379.833333333 1191.5 340.5 1182.5 305.5 c 128
 1173.5 270.5 1166.5 240.833333333 1161.5 216.5 c 128
 1156.5 192.166666667 1154 175.333333333 1154 166 c 0
 1154 133.333333333 1167.66666667 117 1195 117 c 0
 1215.66666667 117 1238.83333333 122.833333333 1264.5 134.5 c 128
 1290.16666667 146.166666667 1316 163 1342 185 c 128
 1368 207 1393.16666667 234 1417.5 266 c 128
 1441.83333333 298 1463.5 334.5 1482.5 375.5 c 128
 1501.5 416.5 1516.83333333 461.5 1528.5 510.5 c 128
 1540.16666667 559.5 1546 612 1546 668 c 0
 1546 742.666666667 1532.16666667 811.666666667 1504.5 875 c 128
 1476.83333333 938.333333333 1438.33333333 993 1389 1039 c 128
 1339.66666667 1085 1281.33333333 1121 1214 1147 c 128
 1146.66666667 1173 1073.33333333 1186 994 1186 c 0
 925.333333333 1186 859.666666667 1176.33333333 797 1157 c 128
 734.333333333 1137.66666667 676 1110.33333333 622 1075 c 128
 568 1039.66666667 518.833333333 997.166666667 474.5 947.5 c 128
 430.166666667 897.833333333 392.333333333 843 361 783 c 128
 329.666666667 723 305.5 658.333333333 288.5 589 c 128
 271.5 519.666666667 263 448 263 374 c 0
 263 273.333333333 279.166666667 181.666666667 311.5 99 c 128
 343.833333333 16.3333333333 389.166666667 -54.5 447.5 -113.5 c 128
 505.833333333 -172.5 576 -218.333333333 658 -251 c 128
 740 -283.666666667 831 -300 931 -300 c 0
 1087 -300 1223.83333333 -258.833333333 1341.5 -176.5 c 128
 1459.16666667 -94.1666666667 1554.33333333 26 1627 184 c 1
 1719 156 l 1
1091 681 m 0
 1091 695.666666667 1089 709.5 1085 722.5 c 128
 1081 735.5 1075.16666667 747 1067.5 757 c 128
 1059.83333333 767 1050.5 775 1039.5 781 c 128
 1028.5 787 1015.66666667 790 1001 790 c 0
 977.666666667 790 953.333333333 780.833333333 928 762.5 c 128
 902.666666667 744.166666667 877.833333333 720.166666667 853.5 690.5 c 128
 829.166666667 660.833333333 805.833333333 627.166666667 783.5 589.5 c 128
 761.166666667 551.833333333 741.666666667 513.666666667 725 475 c 128
 708.333333333 436.333333333 695 398.5 685 361.5 c 128
 675 324.5 670 292.333333333 670 265 c 0
 670 235.666666667 676.5 210.5 689.5 189.5 c 128
 702.5 168.5 721.666666667 158 747 158 c 0
 774.333333333 158 801.666666667 166.333333333 829 183 c 128
 856.333333333 199.666666667 882.833333333 221.833333333 908.5 249.5 c 128
 934.166666667 277.166666667 958 309 980 345 c 128
 1002 381 1021.33333333 418.333333333 1038 457 c 128
 1054.66666667 495.666666667 1067.66666667 534.333333333 1077 573 c 128
 1086.33333333 611.666666667 1091 647.666666667 1091 681 c 0
1131 772 m 1
 1131 773 l 1
 1131 772 l 1
EndSplineSet
EndChar

StartChar: bracketleft
Encoding: 35 91 35
Width: 794
GlyphClass: 2
Flags: HW
LayerCount: 3
Fore
SplineSet
609 0 m 1
 609 -88 l 1
 174 -88 l 1
 174 1510 l 1
 609 1510 l 1
 609 1424 l 1
 310 1424 l 1
 310 0 l 1
 609 0 l 1
EndSplineSet
EndChar

StartChar: backslash
Encoding: 36 92 36
Width: 1062
GlyphClass: 2
Flags: HW
LayerCount: 3
Fore
SplineSet
929 -74 m 1
 779 -74 l 1
 156 1467 l 1
 307 1467 l 1
 929 -74 l 1
EndSplineSet
EndChar

StartChar: bracketright
Encoding: 37 93 37
Width: 799
GlyphClass: 2
Flags: HW
LayerCount: 3
Fore
SplineSet
176 -85 m 1
 176 0 l 1
 471 0 l 1
 471 1424 l 1
 176 1424 l 1
 176 1510 l 1
 609 1510 l 1
 609 -85 l 1
 176 -85 l 1
EndSplineSet
EndChar

StartChar: asciicircum
Encoding: 38 94 38
Width: 1087
GlyphClass: 2
Flags: HW
LayerCount: 3
Fore
SplineSet
1029 1126 m 1
 860 1126 l 1
 594 1541 l 1
 325 1134 l 1
 146 1134 l 1
 564 1812 l 1
 615 1812 l 1
 1029 1126 l 1
EndSplineSet
EndChar

StartChar: underscore
Encoding: 39 95 39
Width: 1510
GlyphClass: 2
Flags: HW
LayerCount: 3
Fore
SplineSet
161 7 m 1
 161 149 l 1
 1349 149 l 1
 1349 7 l 1
 161 7 l 1
EndSplineSet
EndChar

StartChar: braceleft
Encoding: 40 123 40
Width: 714
GlyphClass: 2
Flags: HW
LayerCount: 3
Fore
SplineSet
412 569 m 1
 432 536.333333333 446 505 454 475 c 128
 462 445 466 412 466 376 c 0
 466 326.666666667 461 276.666666667 451 226 c 0
 446.333333333 200.666666667 442.833333333 176.833333333 440.5 154.5 c 128
 438.166666667 132.166666667 437 111.333333333 437 92 c 0
 437 45.3333333333 452.333333333 10.6666666667 483 -12 c 0
 498.333333333 -23.3333333333 516 -34.1666666667 536 -44.5 c 128
 556 -54.8333333333 577.666666667 -64.6666666667 601 -74 c 1
 601 -171 l 1
 494.333333333 -146.333333333 415.333333333 -100.666666667 364 -34 c 1
 346 -18.6666666667 331.333333333 -1.66666666667 320 17 c 128
 308.666666667 35.6666666667 300 55.5 294 76.5 c 128
 288 97.5 284.333333333 119.166666667 283 141.5 c 128
 281.666666667 163.833333333 282 186.666666667 284 210 c 0
 286 232.666666667 288.833333333 255.666666667 292.5 279 c 128
 296.166666667 302.333333333 299.833333333 325 303.5 347 c 128
 307.166666667 369 310.333333333 390.5 313 411.5 c 128
 315.666666667 432.5 317 452.333333333 317 471 c 0
 317 515 300.333333333 550.666666667 267 578 c 0
 234.333333333 606 196.666666667 624 154 632 c 1
 154 727 l 1
 197.333333333 734.333333333 235 752 267 780 c 0
 300.333333333 809.333333333 317 848 317 896 c 0
 317 925.333333333 314.833333333 954.833333333 310.5 984.5 c 128
 306.166666667 1014.16666667 301.666666667 1043.66666667 297 1073 c 128
 292.333333333 1102.33333333 288.833333333 1131.5 286.5 1160.5 c 128
 284.166666667 1189.5 284.666666667 1218 288 1246 c 128
 291.333333333 1274 298.833333333 1301.5 310.5 1328.5 c 128
 322.166666667 1355.5 340 1381.66666667 364 1407 c 0
 380 1427.66666667 396.666666667 1445.66666667 414 1461 c 128
 431.333333333 1476.33333333 449.666666667 1489.5 469 1500.5 c 128
 488.333333333 1511.5 508.833333333 1520.83333333 530.5 1528.5 c 128
 552.166666667 1536.16666667 575.666666667 1543 601 1549 c 1
 601 1454 l 1
 568.333333333 1442.66666667 541.5 1431.33333333 520.5 1420 c 128
 499.5 1408.66666667 482.833333333 1395.16666667 470.5 1379.5 c 128
 458.166666667 1363.83333333 449.5 1345 444.5 1323 c 128
 439.5 1301 437 1273.66666667 437 1241 c 0
 437 1222 437 1222 437 1210 c 128
 437 1202 437.333333333 1196 438 1192 c 256
 438.666666667 1188 439.333333333 1183.5 440 1178.5 c 128
 440.666666667 1173.5 441.333333333 1168 442 1162 c 0
 443.333333333 1156 444.666666667 1148.5 446 1139.5 c 128
 447.333333333 1130.5 449.333333333 1120 452 1108 c 256
 454.666666667 1096 457 1080.16666667 459 1060.5 c 128
 461 1040.83333333 463.333333333 1017 466 989 c 1
 466 929.666666667 462.666666667 895.333333333 456 886 c 0
 447.333333333 866 438.333333333 847.333333333 429 830 c 128
 419.666666667 812.666666667 409 795.833333333 397 779.5 c 128
 385 763.166666667 371.666666667 747.333333333 357 732 c 128
 342.333333333 716.666666667 325 701.333333333 305 686 c 1
 412 569 l 1
EndSplineSet
EndChar

StartChar: bar
Encoding: 41 124 41
Width: 450
GlyphClass: 2
Flags: HW
LayerCount: 3
Fore
SplineSet
207 92 m 1
 207 1336 l 1
 345 1204 l 1
 345 -8 l 1
 207 92 l 1
EndSplineSet
EndChar

StartChar: braceright
Encoding: 42 125 42
Width: 704
GlyphClass: 2
Flags: HW
LayerCount: 3
Fore
SplineSet
281 1382 m 1
 274.333333333 1392 261 1403.16666667 241 1415.5 c 128
 221 1427.83333333 192 1440.66666667 154 1454 c 1
 154 1546 l 1
 204.666666667 1539.33333333 248.5 1524 285.5 1500 c 128
 322.5 1476 356 1446.66666667 386 1412 c 0
 416 1373.33333333 437.666666667 1334.16666667 451 1294.5 c 128
 464.333333333 1254.83333333 471 1215 471 1175 c 0
 470.333333333 1139 468.666666667 1110 466 1088 c 128
 463.333333333 1066 460.333333333 1046 457 1028 c 128
 453.666666667 1010 450.833333333 991.833333333 448.5 973.5 c 128
 446.166666667 955.166666667 445 932 445 904 c 0
 445 860.666666667 457 825.666666667 481 799 c 1
 493 779.666666667 508.333333333 765.833333333 527 757.5 c 128
 545.666666667 749.166666667 573 742.333333333 609 737 c 1
 609 640 l 1
 583 634 559.833333333 625.166666667 539.5 613.5 c 128
 519.166666667 601.833333333 502 588.5 488 573.5 c 128
 474 558.5 463.333333333 542 456 524 c 128
 448.666666667 506 445 487.666666667 445 469 c 0
 445 453 445.833333333 434.833333333 447.5 414.5 c 128
 449.166666667 394.166666667 453.666666667 372.333333333 461 349 c 1
 464.333333333 317 468.166666667 288.333333333 472.5 263 c 128
 476.833333333 237.666666667 479 215.666666667 479 197 c 0
 479 126.333333333 456 54.6666666667 410 -18 c 1
 377.333333333 -62 341.166666667 -96.5 301.5 -121.5 c 128
 261.833333333 -146.5 215 -162.333333333 161 -169 c 1
 161 -74 l 1
 219 -47.3333333333 259.666666667 -20.3333333333 283 7 c 0
 306.333333333 35 319.333333333 66.3333333333 322 101 c 0
 324 119 324 137.666666667 322 157 c 128
 320 176.333333333 317.5 197 314.5 219 c 128
 311.5 241 308 265 304 291 c 128
 300 317 297 345.333333333 295 376 c 0
 295 391.333333333 295.666666667 407.333333333 297 424 c 128
 298.333333333 440.666666667 300.333333333 458 303 476 c 0
 309 512.666666667 324.333333333 542.666666667 349 566 c 1
 355 578 361.166666667 588.666666667 367.5 598 c 128
 373.833333333 607.333333333 381 616.5 389 625.5 c 128
 397 634.5 406.5 643.833333333 417.5 653.5 c 128
 428.5 663.166666667 441.333333333 674 456 686 c 1
 434 707.333333333 416 725.333333333 402 740 c 128
 388 754.666666667 376.666666667 766.5 368 775.5 c 128
 359.333333333 784.5 353 791 349 795 c 128
 345 799 342.666666667 801 342 801 c 0
 332 816.333333333 323.666666667 831 317 845 c 128
 310.333333333 859 304.833333333 873.333333333 300.5 888 c 128
 296.166666667 902.666666667 293.166666667 918.166666667 291.5 934.5 c 128
 289.833333333 950.833333333 289 969 289 989 c 256
 289 1009 292.5 1034.33333333 299.5 1065 c 128
 306.5 1095.66666667 312 1128.33333333 316 1163 c 0
 318 1181 319.5 1199.16666667 320.5 1217.5 c 128
 321.5 1235.83333333 321.166666667 1254.16666667 319.5 1272.5 c 128
 317.833333333 1290.83333333 314.166666667 1309 308.5 1327 c 128
 302.833333333 1345 294.666666667 1362.66666667 284 1380 c 1
 281 1382 l 1
EndSplineSet
EndChar

StartChar: asciitilde
Encoding: 43 126 43
Width: 1362
GlyphClass: 2
Flags: HW
LayerCount: 3
Fore
SplineSet
950 642 m 1
 1041.33333333 642 1092.66666667 695 1104 801 c 1
 1192 801 l 1
 1184 713 1157 645 1111 597 c 256
 1065 549 1009.66666667 525 945 525 c 0
 929.666666667 525 912.166666667 527.166666667 892.5 531.5 c 128
 872.833333333 535.833333333 851.833333333 541.833333333 829.5 549.5 c 128
 807.166666667 557.166666667 783.666666667 565.666666667 759 575 c 128
 734.333333333 584.333333333 709.333333333 594 684 604 c 0
 634 624.666666667 584.166666667 643.5 534.5 660.5 c 128
 484.833333333 677.5 438 686 394 686 c 0
 356 686 324 674.166666667 298 650.5 c 128
 272 626.833333333 251.666666667 585.666666667 237 527 c 1
 161 527 l 1
 165.666666667 615 190.333333333 682.666666667 235 730 c 0
 280.333333333 777.333333333 334 801 396 801 c 0
 423.333333333 801 461 793.666666667 509 779 c 0
 534.333333333 771.666666667 560.166666667 764 586.5 756 c 128
 612.833333333 748 640.333333333 739.333333333 669 730 c 2
 830 674 l 2
 855.333333333 666.666666667 878 660.333333333 898 655 c 128
 918 649.666666667 935.333333333 645.333333333 950 642 c 1
EndSplineSet
EndChar

StartChar: endash
Encoding: 44 8211 44
Width: 1336
GlyphClass: 2
Flags: HW
LayerCount: 3
Fore
SplineSet
164 526 m 1
 164 677 l 1
 1101 677 l 1
 1101 526 l 1
 164 526 l 1
EndSplineSet
EndChar

StartChar: emdash
Encoding: 45 8212 45
Width: 1964
GlyphClass: 2
Flags: HW
LayerCount: 3
Fore
SplineSet
164 526 m 1
 164 677 l 1
 1820 677 l 1
 1820 526 l 1
 164 526 l 1
EndSplineSet
EndChar

StartChar: quoteleft
Encoding: 46 8216 46
Width: 584
GlyphClass: 2
Flags: HW
LayerCount: 3
Fore
SplineSet
179 1295 m 0
 175.666666667 1298.33333333 174 1305.33333333 174 1316 c 0
 174 1331.33333333 178.333333333 1349.5 187 1370.5 c 128
 195.666666667 1391.5 205.666666667 1419.33333333 217 1454 c 1
 317 1669 l 1
 320.333333333 1663.66666667 326.5 1658.16666667 335.5 1652.5 c 128
 344.5 1646.83333333 353 1642.33333333 361 1639 c 1
 311 1539.66666667 286 1471.33333333 286 1434 c 0
 286 1410 297.666666667 1386.33333333 321 1363 c 0
 332.333333333 1351.66666667 344 1341 356 1331 c 128
 368 1321 379.666666667 1311.33333333 391 1302 c 1
 387.666666667 1296 382.666666667 1286.5 376 1273.5 c 128
 369.333333333 1260.5 362.5 1246.83333333 355.5 1232.5 c 128
 348.5 1218.16666667 342.333333333 1204.33333333 337 1191 c 128
 331.666666667 1177.66666667 328.333333333 1167.33333333 327 1160 c 1
 247.666666667 1196 198.333333333 1241 179 1295 c 0
EndSplineSet
EndChar

StartChar: quoteright
Encoding: 47 8217 47
Width: 564
GlyphClass: 2
Flags: HW
LayerCount: 3
Fore
SplineSet
384 1362 m 0
 384.666666667 1358.66666667 385.166666667 1355 385.5 1351 c 128
 385.833333333 1347 386 1343 386 1339 c 0
 386 1322.33333333 382.333333333 1303.16666667 375 1281.5 c 128
 367.666666667 1259.83333333 357.666666667 1231 345 1195 c 1
 249 989 l 1
 243.666666667 992.333333333 236.666666667 996 228 1000 c 128
 219.333333333 1004 211.666666667 1007.66666667 205 1011 c 1
 252.333333333 1113 276 1182.33333333 276 1219 c 0
 276 1243.66666667 264.333333333 1267.66666667 241 1291 c 0
 229.666666667 1302.33333333 218 1313 206 1323 c 128
 194 1333 181.666666667 1341.66666667 169 1349 c 1
 173.666666667 1357.66666667 179.333333333 1368.5 186 1381.5 c 128
 192.666666667 1394.5 199.333333333 1408 206 1422 c 128
 212.666666667 1436 218.666666667 1449.66666667 224 1463 c 128
 229.333333333 1476.33333333 233 1487 235 1495 c 1
 315 1458.33333333 364.666666667 1414 384 1362 c 0
EndSplineSet
EndChar

StartChar: divide
Encoding: 48 247 48
Width: 1382
GlyphClass: 2
Flags: HW
LayerCount: 3
Fore
SplineSet
660 66 m 1
 507 217 l 1
 660 366 l 1
 819 217 l 1
 660 66 l 1
164 486 m 1
 164 650 l 1
 1152 650 l 1
 1152 486 l 1
 164 486 l 1
660 806 m 1
 507 962 l 1
 660 1111 l 1
 819 960 l 1
 660 806 l 1
EndSplineSet
EndChar

StartChar: minus
Encoding: 49 8722 49
Width: 1300
GlyphClass: 2
Flags: HW
LayerCount: 3
Fore
SplineSet
1052 496 m 1
 249 496 l 1
 249 640 l 1
 1052 640 l 1
 1052 496 l 1
EndSplineSet
EndChar

StartChar: multiply
Encoding: 50 215 50
Width: 1309
GlyphClass: 2
Flags: HW
LayerCount: 3
Fore
SplineSet
694 494 m 1
 345 154 l 1
 246 256 l 1
 589 599 l 1
 264 924 l 1
 379 1042 l 1
 704 714 l 1
 1047 1055 l 1
 1150 950 l 1
 806 609 l 1
 1134 281 l 1
 1019 169 l 1
 694 494 l 1
EndSplineSet
EndChar

StartChar: u0964
Encoding: 51 58212 51
Width: 854
GlyphClass: 2
Flags: HW
LayerCount: 3
Fore
SplineSet
592 -107 m 1
 416 -107 l 1
 416 1389 l 1
 592 1389 l 1
 592 -107 l 1
EndSplineSet
EndChar

StartChar: u0965
Encoding: 52 58213 52
Width: 1254
GlyphClass: 2
Flags: HW
LayerCount: 3
Fore
SplineSet
992 -107 m 1
 816 -107 l 1
 816 1389 l 1
 992 1389 l 1
 992 -107 l 1
592 -107 m 1
 416 -107 l 1
 416 1389 l 1
 592 1389 l 1
 592 -107 l 1
EndSplineSet
EndChar

StartChar: u11DA0
Encoding: 53 73120 53
Width: 1106
GlyphClass: 2
Flags: HW
LayerCount: 3
Fore
SplineSet
562 1040 m 0
 505.333333333 1040 455.166666667 1025.83333333 411.5 997.5 c 128
 367.833333333 969.166666667 331 933.166666667 301 889.5 c 128
 271 845.833333333 248.166666667 797.666666667 232.5 745 c 128
 216.833333333 692.333333333 209 641.666666667 209 593 c 0
 209 562.333333333 211.833333333 529.833333333 217.5 495.5 c 128
 223.166666667 461.166666667 232 427.333333333 244 394 c 128
 256 360.666666667 271.333333333 328.666666667 290 298 c 128
 308.666666667 267.333333333 331.166666667 240.333333333 357.5 217 c 128
 383.833333333 193.666666667 414 175.166666667 448 161.5 c 128
 482 147.833333333 520 141 562 141 c 0
 586.666666667 141 612 145.333333333 638 154 c 128
 664 162.666666667 689 174.5 713 189.5 c 128
 737 204.5 759.5 222.166666667 780.5 242.5 c 128
 801.5 262.833333333 819.666666667 285 835 309 c 0
 861 351 880.5 395.833333333 893.5 443.5 c 128
 906.5 491.166666667 913 541 913 593 c 0
 913 645.666666667 905 698.5 889 751.5 c 128
 873 804.5 849.833333333 852.333333333 819.5 895 c 128
 789.166666667 937.666666667 752.333333333 972.5 709 999.5 c 128
 665.666666667 1026.5 616.666666667 1040 562 1040 c 0
562 1182 m 0
 615.333333333 1182 664.5 1173.83333333 709.5 1157.5 c 128
 754.5 1141.16666667 795.333333333 1118.66666667 832 1090 c 128
 868.666666667 1061.33333333 901 1027.83333333 929 989.5 c 128
 957 951.166666667 980.5 910.333333333 999.5 867 c 128
 1018.5 823.666666667 1032.83333333 778.5 1042.5 731.5 c 128
 1052.16666667 684.5 1057 638.333333333 1057 593 c 0
 1057 519.666666667 1045.16666667 447.5 1021.5 376.5 c 128
 997.833333333 305.5 964.166666667 241.833333333 920.5 185.5 c 128
 876.833333333 129.166666667 824.666666667 83.6666666667 764 49 c 128
 703.333333333 14.3333333333 636 -3 562 -3 c 0
 486 -3 417.333333333 13.8333333333 356 47.5 c 128
 294.666666667 81.1666666667 242.666666667 125.833333333 200 181.5 c 128
 157.333333333 237.166666667 124.5 300.666666667 101.5 372 c 128
 78.5 443.333333333 67 517 67 593 c 0
 67 639 72 685.666666667 82 733 c 128
 92 780.333333333 106.833333333 825.833333333 126.5 869.5 c 128
 146.166666667 913.166666667 170.166666667 954 198.5 992 c 128
 226.833333333 1030 259.333333333 1063 296 1091 c 128
 332.666666667 1119 373.333333333 1141.16666667 418 1157.5 c 128
 462.666666667 1173.83333333 510.666666667 1182 562 1182 c 0
EndSplineSet
EndChar

StartChar: u11DA1
Encoding: 54 73121 54
Width: 1091
GlyphClass: 2
Flags: HW
LayerCount: 3
Fore
SplineSet
845 371 m 1
 845 321 l 2
 843 273.666666667 832.666666667 229.833333333 814 189.5 c 128
 795.333333333 149.166666667 770.333333333 114.166666667 739 84.5 c 128
 707.666666667 54.8333333333 671.166666667 31.5 629.5 14.5 c 128
 587.833333333 -2.5 543.333333333 -11 496 -11 c 0
 448 -11 402.833333333 -2 360.5 16 c 128
 318.166666667 34 281.5 58.8333333333 250.5 90.5 c 128
 219.5 122.166666667 195 159.333333333 177 202 c 128
 159 244.666666667 150 290.666666667 150 340 c 0
 150 388 159 432.833333333 177 474.5 c 128
 195 516.166666667 219.5 552.666666667 250.5 584 c 128
 281.5 615.333333333 318.166666667 640 360.5 658 c 128
 402.833333333 676 448 685 496 685 c 0
 534 685 570.5 680.333333333 605.5 671 c 128
 640.5 661.666666667 673 649.333333333 703 634 c 1
 705 1283 l 1
 847 1283 l 1
 845 371 l 1
703 376 m 2
 703 404 697.333333333 428.5 686 449.5 c 128
 674.666666667 470.5 659.333333333 488 640 502 c 128
 620.666666667 516 598.5 526.333333333 573.5 533 c 128
 548.5 539.666666667 522.666666667 543 496 543 c 0
 468 543 441.666666667 537.666666667 417 527 c 128
 392.333333333 516.333333333 371 501.666666667 353 483 c 128
 335 464.333333333 320.666666667 442.833333333 310 418.5 c 128
 299.333333333 394.166666667 294 368 294 340 c 0
 294 310.666666667 299.333333333 283.333333333 310 258 c 128
 320.666666667 232.666666667 335 210.666666667 353 192 c 128
 371 173.333333333 392.333333333 158.666666667 417 148 c 128
 441.666666667 137.333333333 468 132 496 132 c 0
 524.666666667 132 551.666666667 137.333333333 577 148 c 128
 602.333333333 158.666666667 624.333333333 173.333333333 643 192 c 128
 661.666666667 210.666666667 676.333333333 232.666666667 687 258 c 128
 697.666666667 283.333333333 703 310.666666667 703 340 c 2
 703 376 l 2
EndSplineSet
EndChar

StartChar: u11DA2
Encoding: 55 73122 55
Width: 1516
GlyphClass: 2
Flags: HW
LayerCount: 3
Fore
SplineSet
187 1226 m 1
 1039 1230 l 2
 1089.66666667 1230 1137 1222.33333333 1181 1207 c 128
 1225 1191.66666667 1263.33333333 1169.83333333 1296 1141.5 c 128
 1328.66666667 1113.16666667 1354.16666667 1078.5 1372.5 1037.5 c 128
 1390.83333333 996.5 1400 950.666666667 1400 900 c 0
 1400 856.666666667 1392.5 815.5 1377.5 776.5 c 128
 1362.5 737.5 1342 703.166666667 1316 673.5 c 128
 1290 643.833333333 1259.16666667 620.166666667 1223.5 602.5 c 128
 1187.83333333 584.833333333 1149.33333333 575.666666667 1108 575 c 1
 1108 723 l 1
 1130.66666667 723 1151.16666667 728.166666667 1169.5 738.5 c 128
 1187.83333333 748.833333333 1203.5 762.166666667 1216.5 778.5 c 128
 1229.5 794.833333333 1239.33333333 813.166666667 1246 833.5 c 128
 1252.66666667 853.833333333 1256 874 1256 894 c 0
 1256 922.666666667 1252 949.166666667 1244 973.5 c 128
 1236 997.833333333 1221.33333333 1018.66666667 1200 1036 c 0
 1176.66666667 1055.33333333 1151 1067.83333333 1123 1073.5 c 128
 1095 1079.16666667 1067 1082 1039 1082 c 2
 835 1082 l 1
 862.333333333 1050 885.166666667 1014.66666667 903.5 976 c 128
 921.833333333 937.333333333 936.5 897.333333333 947.5 856 c 128
 958.5 814.666666667 966.166666667 772.5 970.5 729.5 c 128
 974.833333333 686.5 977 644.666666667 977 604 c 0
 977 560.666666667 973 515.666666667 965 469 c 128
 957 422.333333333 944.666666667 376.5 928 331.5 c 128
 911.333333333 286.5 890.5 244 865.5 204 c 128
 840.5 164 810.666666667 128.833333333 776 98.5 c 128
 741.333333333 68.1666666667 702 44.1666666667 658 26.5 c 128
 614 8.83333333333 565 0 511 0 c 0
 443 0 382.666666667 10 330 30 c 128
 277.333333333 50 233 77.1666666667 197 111.5 c 128
 161 145.833333333 133.833333333 186 115.5 232 c 128
 97.1666666667 278 88 327 88 379 c 0
 88 421 94.1666666667 459.166666667 106.5 493.5 c 128
 118.833333333 527.833333333 136.5 557.5 159.5 582.5 c 128
 182.5 607.5 210.5 627.166666667 243.5 641.5 c 128
 276.5 655.833333333 313.666666667 663.666666667 355 665 c 0
 387 665 418.5 658.666666667 449.5 646 c 128
 480.5 633.333333333 508 614.333333333 532 589 c 0
 560 559 579.333333333 525 590 487 c 128
 600.666666667 449 606 411 606 373 c 0
 606 331 597.333333333 290.666666667 580 252 c 128
 562.666666667 213.333333333 541 177 515 143 c 1
 551.666666667 145.666666667 585 155 615 171 c 128
 645 187 671.833333333 207.666666667 695.5 233 c 128
 719.166666667 258.333333333 739.666666667 287 757 319 c 128
 774.333333333 351 788.833333333 384.333333333 800.5 419 c 128
 812.166666667 453.666666667 820.833333333 488.5 826.5 523.5 c 128
 832.166666667 558.5 835 591.333333333 835 622 c 0
 833.666666667 654 830.333333333 687.666666667 825 723 c 128
 819.666666667 758.333333333 811.833333333 793 801.5 827 c 128
 791.166666667 861 778.166666667 893.5 762.5 924.5 c 128
 746.833333333 955.5 727.833333333 982.666666667 705.5 1006 c 128
 683.166666667 1029.33333333 657.333333333 1047.83333333 628 1061.5 c 128
 598.666666667 1075.16666667 565.333333333 1082 528 1082 c 2
 187 1082 l 1
 187 1226 l 1
231 394 m 0
 231 390.666666667 230.833333333 387.5 230.5 384.5 c 128
 230.166666667 381.5 230 378.333333333 230 375 c 0
 230 273.666666667 270.333333333 205 351 169 c 1
 368.333333333 175.666666667 384 186.666666667 398 202 c 128
 412 217.333333333 423.833333333 234.666666667 433.5 254 c 128
 443.166666667 273.333333333 450.666666667 293.833333333 456 315.5 c 128
 461.333333333 337.166666667 464 357.666666667 464 377 c 0
 464 393 462.166666667 409.333333333 458.5 426 c 128
 454.833333333 442.666666667 448.666666667 457.833333333 440 471.5 c 128
 431.333333333 485.166666667 420.333333333 496.666666667 407 506 c 128
 393.666666667 515.333333333 377 520.333333333 357 521 c 0
 319 519 289.166666667 507.333333333 267.5 486 c 128
 245.833333333 464.666666667 233.666666667 434 231 394 c 0
EndSplineSet
EndChar

StartChar: u11DA3
Encoding: 56 73123 56
Width: 1099
GlyphClass: 2
Flags: HW
LayerCount: 3
Fore
SplineSet
453 130 m 0
 535.666666667 130 603.833333333 148.333333333 657.5 185 c 128
 711.166666667 221.666666667 752 270 780 330 c 1
 742 382.666666667 695 420.833333333 639 444.5 c 128
 583 468.166666667 521 480 453 480 c 0
 413 480 378.166666667 475.166666667 348.5 465.5 c 128
 318.833333333 455.833333333 294 443 274 427 c 128
 254 411 239.166666667 392.666666667 229.5 372 c 128
 219.833333333 351.333333333 215 330.333333333 215 309 c 0
 215 287 220 265.166666667 230 243.5 c 128
 240 221.833333333 255 202.666666667 275 186 c 128
 295 169.333333333 319.833333333 155.833333333 349.5 145.5 c 128
 379.166666667 135.166666667 413.666666667 130 453 130 c 0
453 623 m 0
 527.666666667 623 596.666666667 612.666666667 660 592 c 128
 723.333333333 571.333333333 780.333333333 537 831 489 c 1
 834.333333333 510.333333333 836.833333333 532 838.5 554 c 128
 840.166666667 576 841 598.666666667 841 622 c 0
 841 676 834.5 728.666666667 821.5 780 c 128
 808.5 831.333333333 790 880 766 926 c 1
 767 925 l 1
 759 938.333333333 750.5 951.5 741.5 964.5 c 128
 732.5 977.5 722.666666667 989.666666667 712 1001 c 1
 704 961 690.166666667 924 670.5 890 c 128
 650.833333333 856 626.833333333 826.333333333 598.5 801 c 128
 570.166666667 775.666666667 538.166666667 755.833333333 502.5 741.5 c 128
 466.833333333 727.166666667 429.333333333 720 390 720 c 0
 355.333333333 720 321.833333333 726.333333333 289.5 739 c 128
 257.166666667 751.666666667 228.5 769.5 203.5 792.5 c 128
 178.5 815.5 158.5 842.5 143.5 873.5 c 128
 128.5 904.5 121 938.666666667 121 976 c 0
 121 1022 131.666666667 1062.83333333 153 1098.5 c 128
 174.333333333 1134.16666667 201.666666667 1164 235 1188 c 128
 268.333333333 1212 305.333333333 1230.33333333 346 1243 c 128
 386.666666667 1255.66666667 426.666666667 1262 466 1262 c 0
 519.333333333 1262 569.166666667 1253.16666667 615.5 1235.5 c 128
 661.833333333 1217.83333333 704.166666667 1193.66666667 742.5 1163 c 128
 780.833333333 1132.33333333 815 1096.33333333 845 1055 c 128
 875 1013.66666667 900.333333333 969.333333333 921 922 c 128
 941.666666667 874.666666667 957.333333333 825.333333333 968 774 c 128
 978.666666667 722.666666667 984 672 984 622 c 0
 984 538.666666667 973.166666667 458.666666667 951.5 382 c 128
 929.833333333 305.333333333 897.166666667 237.666666667 853.5 179 c 128
 809.833333333 120.333333333 754.666666667 73.6666666667 688 39 c 128
 621.333333333 4.33333333333 543 -13 453 -13 c 0
 405 -13 358.166666667 -6 312.5 8 c 128
 266.833333333 22 226.166666667 42.8333333333 190.5 70.5 c 128
 154.833333333 98.1666666667 126.166666667 132.666666667 104.5 174 c 128
 82.8333333333 215.333333333 72 263.666666667 72 319 c 1
 74.6666666667 368.333333333 87.6666666667 412 111 450 c 128
 134.333333333 488 163.833333333 519.833333333 199.5 545.5 c 128
 235.166666667 571.166666667 275 590.5 319 603.5 c 128
 363 616.5 407.666666667 623 453 623 c 0
571 1098 m 1
 553 1105.33333333 535.333333333 1110.5 518 1113.5 c 128
 500.666666667 1116.5 483.333333333 1118 466 1118 c 0
 444.666666667 1118 422.333333333 1115.33333333 399 1110 c 128
 375.666666667 1104.66666667 354 1096.66666667 334 1086 c 128
 314 1075.33333333 297.5 1061.5 284.5 1044.5 c 128
 271.5 1027.5 265 1007.66666667 265 985 c 0
 265 963.666666667 268.5 945.5 275.5 930.5 c 128
 282.5 915.5 291.833333333 903 303.5 893 c 128
 315.166666667 883 328.5 875.666666667 343.5 871 c 128
 358.5 866.333333333 374 864 390 864 c 0
 417.333333333 864 442.166666667 869.833333333 464.5 881.5 c 128
 486.833333333 893.166666667 506 908.666666667 522 928 c 128
 538 947.333333333 550.333333333 969.666666667 559 995 c 128
 567.666666667 1020.33333333 572 1047 572 1075 c 2
 571 1098 l 1
EndSplineSet
EndChar

StartChar: u11DA4
Encoding: 57 73124 57
Width: 1492
GlyphClass: 2
Flags: HW
LayerCount: 3
Fore
SplineSet
1092 -12 m 0
 1064 -10.6666666667 1037.5 -5.16666666667 1012.5 4.5 c 128
 987.5 14.1666666667 963.833333333 26.6666666667 941.5 42 c 128
 919.166666667 57.3333333333 898.333333333 75.3333333333 879 96 c 128
 859.666666667 116.666666667 841.666666667 138.666666667 825 162 c 1
 779 110 725.5 69.5 664.5 40.5 c 128
 603.5 11.5 539.666666667 -3 473 -3 c 0
 423 -3 373.5 4.5 324.5 19.5 c 128
 275.5 34.5 233 58.6666666667 197 92 c 0
 167 122 143.333333333 155.166666667 126 191.5 c 128
 108.666666667 227.833333333 100 266 100 306 c 0
 100 348.666666667 108.666666667 390.333333333 126 431 c 128
 143.333333333 471.666666667 169 506 203 534 c 0
 241 564.666666667 283.833333333 586.666666667 331.5 600 c 128
 379.166666667 613.333333333 426.333333333 620 473 620 c 0
 543.666666667 620 608 605.666666667 666 577 c 128
 724 548.333333333 774.666666667 499.333333333 818 430 c 1
 829.333333333 460 837.166666667 491 841.5 523 c 128
 845.833333333 555 848 587 848 619 c 0
 848 669 842.333333333 719.166666667 831 769.5 c 128
 819.666666667 819.833333333 802 867 778 911 c 1
 779 911 l 1
 763 937.666666667 744.666666667 962.333333333 724 985 c 128
 703.333333333 1007.66666667 680.666666667 1027.33333333 656 1044 c 128
 631.333333333 1060.66666667 604.833333333 1073.83333333 576.5 1083.5 c 128
 548.166666667 1093.16666667 518.333333333 1098 487 1098 c 0
 461 1098 436.333333333 1095.16666667 413 1089.5 c 128
 389.666666667 1083.83333333 369 1075.16666667 351 1063.5 c 128
 333 1051.83333333 318.833333333 1036.83333333 308.5 1018.5 c 128
 298.166666667 1000.16666667 293 978.666666667 293 954 c 0
 293 938.666666667 296.666666667 925 304 913 c 128
 311.333333333 901 320.666666667 890.666666667 332 882 c 128
 343.333333333 873.333333333 356.333333333 866.666666667 371 862 c 128
 385.666666667 857.333333333 400.333333333 855 415 855 c 0
 429 855 443 857 457 861 c 128
 471 865 483.333333333 870.833333333 494 878.5 c 128
 504.666666667 886.166666667 513.333333333 895.166666667 520 905.5 c 128
 526.666666667 915.833333333 530 927 530 939 c 1
 677 939 l 1
 677 903 668.666666667 871 652 843 c 128
 635.333333333 815 614.166666667 791.166666667 588.5 771.5 c 128
 562.833333333 751.833333333 534.666666667 737 504 727 c 128
 473.333333333 717 443.666666667 712 415 712 c 0
 382.333333333 712 350 717.5 318 728.5 c 128
 286 739.5 257.166666667 756 231.5 778 c 128
 205.833333333 800 185.166666667 827.166666667 169.5 859.5 c 128
 153.833333333 891.833333333 146 929.333333333 146 972 c 0
 148 1018 159.166666667 1058.16666667 179.5 1092.5 c 128
 199.833333333 1126.83333333 226 1155.16666667 258 1177.5 c 128
 290 1199.83333333 325.833333333 1216.5 365.5 1227.5 c 128
 405.166666667 1238.5 445.666666667 1244 487 1244 c 0
 527 1244 567 1238.16666667 607 1226.5 c 128
 647 1214.83333333 685 1197.66666667 721 1175 c 128
 757 1152.33333333 790.5 1124.83333333 821.5 1092.5 c 128
 852.5 1060.16666667 879.333333333 1023.33333333 902 982 c 1
 901 982 l 1
 933 927.333333333 956.666666667 868.833333333 972 806.5 c 128
 987.333333333 744.166666667 995 681.666666667 995 619 c 0
 995 560.333333333 988.333333333 503.166666667 975 447.5 c 128
 961.666666667 391.833333333 940.666666667 337 912 283 c 1
 923.333333333 267 936.166666667 250.5 950.5 233.5 c 128
 964.833333333 216.5 980.166666667 200.666666667 996.5 186 c 128
 1012.83333333 171.333333333 1029.66666667 159 1047 149 c 128
 1064.33333333 139 1081.33333333 133 1098 131 c 0
 1129.33333333 131.666666667 1155.83333333 137.333333333 1177.5 148 c 128
 1199.16666667 158.666666667 1216.83333333 173.166666667 1230.5 191.5 c 128
 1244.16666667 209.833333333 1254 231.166666667 1260 255.5 c 128
 1266 279.833333333 1269 306 1269 334 c 1
 1411 334 l 1
 1411 308 1409.33333333 281.833333333 1406 255.5 c 128
 1402.66666667 229.166666667 1396.66666667 204 1388 180 c 128
 1379.33333333 156 1368 133.333333333 1354 112 c 128
 1340 90.6666666667 1322 71.6666666667 1300 55 c 0
 1272 31.6666666667 1239.33333333 14.3333333333 1202 3 c 0
 1166 -7 1129.33333333 -12 1092 -12 c 0
742 282 m 1
 734 304.666666667 722.333333333 327.666666667 707 351 c 128
 691.666666667 374.333333333 672.833333333 395.333333333 650.5 414 c 128
 628.166666667 432.666666667 602.166666667 447.833333333 572.5 459.5 c 128
 542.833333333 471.166666667 509.666666667 477 473 477 c 0
 434.333333333 477 400.833333333 472.333333333 372.5 463 c 128
 344.166666667 453.666666667 320.5 441.166666667 301.5 425.5 c 128
 282.5 409.833333333 268.333333333 392.166666667 259 372.5 c 128
 249.666666667 352.833333333 245 332.666666667 245 312 c 0
 245 290.666666667 249.833333333 269.833333333 259.5 249.5 c 128
 269.166666667 229.166666667 283.5 211 302.5 195 c 128
 321.5 179 345.333333333 166 374 156 c 128
 402.666666667 146 435.666666667 141 473 141 c 0
 529.666666667 141 580.666666667 154.333333333 626 181 c 128
 671.333333333 207.666666667 710 241.333333333 742 282 c 1
EndSplineSet
EndChar

StartChar: u11DA5
Encoding: 58 73125 58
Width: 1081
GlyphClass: 2
Flags: HW
LayerCount: 3
Fore
SplineSet
919 519 m 0
 919 489 912.5 462.666666667 899.5 440 c 128
 886.5 417.333333333 869 398.333333333 847 383 c 1
 872.333333333 364.333333333 893 342.333333333 909 317 c 128
 925 291.666666667 933 264 933 234 c 0
 933 201.333333333 926.5 172.833333333 913.5 148.5 c 128
 900.5 124.166666667 883.166666667 103.333333333 861.5 86 c 128
 839.833333333 68.6666666667 814.666666667 54.3333333333 786 43 c 128
 757.333333333 31.6666666667 727.5 22.6666666667 696.5 16 c 128
 665.5 9.33333333333 634.333333333 4.66666666667 603 2 c 128
 571.666666667 -0.666666666667 542.333333333 -2 515 -2 c 0
 485.666666667 -2 452.5 1.66666666667 415.5 9 c 128
 378.5 16.3333333333 342 27 306 41 c 128
 270 55 236.666666667 72.1666666667 206 92.5 c 128
 175.333333333 112.833333333 152 136 136 162 c 0
 134 165.333333333 131.333333333 169.833333333 128 175.5 c 128
 124.666666667 181.166666667 121.166666667 187 117.5 193 c 128
 113.833333333 199 110.333333333 204.666666667 107 210 c 128
 103.666666667 215.333333333 101 220 99 224 c 1
 228 291 l 1
 247.333333333 259.666666667 269.666666667 234.166666667 295 214.5 c 128
 320.333333333 194.833333333 347.5 179.5 376.5 168.5 c 128
 405.5 157.5 436 150 468 146 c 128
 500 142 532.333333333 140 565 140 c 0
 588.333333333 140 613 140.833333333 639 142.5 c 128
 665 144.166666667 688.833333333 148 710.5 154 c 128
 732.166666667 160 750 169.333333333 764 182 c 128
 778 194.666666667 785 212 785 234 c 0
 785 248.666666667 780.166666667 260.5 770.5 269.5 c 128
 760.833333333 278.5 748.5 285.166666667 733.5 289.5 c 128
 718.5 293.833333333 701.666666667 296.666666667 683 298 c 128
 664.333333333 299.333333333 646 300 628 300 c 2
 447 300 l 1
 447 436 l 1
 623 436 l 2
 670.333333333 436 707.166666667 440.666666667 733.5 450 c 128
 759.833333333 459.333333333 773 477.666666667 773 505 c 0
 773 516.333333333 765.333333333 526 750 534 c 128
 734.666666667 542 710 546 676 546 c 2
 607 546 l 2
 588.333333333 546 571.166666667 546.166666667 555.5 546.5 c 128
 539.833333333 546.833333333 525.333333333 547 512 547 c 2
 468 547 l 2
 420 547 375.666666667 555.166666667 335 571.5 c 128
 294.333333333 587.833333333 259.166666667 610.5 229.5 639.5 c 128
 199.833333333 668.5 176.666666667 702.833333333 160 742.5 c 128
 143.333333333 782.166666667 135 825.666666667 135 873 c 0
 135 928.333333333 145 977.666666667 165 1021 c 128
 185 1064.33333333 212.666666667 1100.83333333 248 1130.5 c 128
 283.333333333 1160.16666667 325.666666667 1182.83333333 375 1198.5 c 128
 424.333333333 1214.16666667 478.666666667 1222 538 1222 c 0
 572.666666667 1222 607 1217.16666667 641 1207.5 c 128
 675 1197.83333333 705.5 1183.16666667 732.5 1163.5 c 128
 759.5 1143.83333333 781.5 1119.16666667 798.5 1089.5 c 128
 815.5 1059.83333333 824 1025 824 985 c 0
 822 948.333333333 813.166666667 916.166666667 797.5 888.5 c 128
 781.833333333 860.833333333 761.666666667 837.666666667 737 819 c 128
 712.333333333 800.333333333 684.5 786.333333333 653.5 777 c 128
 622.5 767.666666667 590.666666667 763 558 763 c 0
 502 763 449 773 399 793 c 128
 349 813 309 842.666666667 279 882 c 1
 279 846 283.166666667 815.833333333 291.5 791.5 c 128
 299.833333333 767.166666667 311.666666667 747.166666667 327 731.5 c 128
 342.333333333 715.833333333 361.166666667 704 383.5 696 c 128
 405.833333333 688 431 682.333333333 459 679 c 1
 654 678 l 2
 675.333333333 678 701.166666667 677.333333333 731.5 676 c 128
 761.833333333 674.666666667 790.833333333 669.333333333 818.5 660 c 128
 846.166666667 650.666666667 869.833333333 635 889.5 613 c 128
 909.166666667 591 919 559.666666667 919 519 c 0
538 1080 m 0
 496 1080 457.5 1074.66666667 422.5 1064 c 128
 387.5 1053.33333333 358.333333333 1035.33333333 335 1010 c 1
 358.333333333 974 387.833333333 947.666666667 423.5 931 c 128
 459.166666667 914.333333333 500.333333333 906 547 906 c 0
 563 906 579 907.333333333 595 910 c 128
 611 912.666666667 625.5 917.166666667 638.5 923.5 c 128
 651.5 929.833333333 662 938.666666667 670 950 c 128
 678 961.333333333 682 975.666666667 682 993 c 0
 682 1009.66666667 677.333333333 1023.66666667 668 1035 c 128
 658.666666667 1046.33333333 646.833333333 1055.33333333 632.5 1062 c 128
 618.166666667 1068.66666667 602.5 1073.33333333 585.5 1076 c 128
 568.5 1078.66666667 552.666666667 1080 538 1080 c 0
EndSplineSet
EndChar

StartChar: u11DA6
Encoding: 59 73126 59
Width: 1142
GlyphClass: 2
Flags: HW
LayerCount: 3
Fore
SplineSet
245 645 m 0
 245 601 248.833333333 554.5 256.5 505.5 c 128
 264.166666667 456.5 274.333333333 412 287 372 c 1
 293 414 305.5 452.166666667 324.5 486.5 c 128
 343.5 520.833333333 368 550.166666667 398 574.5 c 128
 428 598.833333333 462.833333333 617.5 502.5 630.5 c 128
 542.166666667 643.5 585.666666667 650 633 650 c 0
 676.333333333 650 720 643.333333333 764 630 c 128
 808 616.666666667 847.666666667 597 883 571 c 128
 918.333333333 545 947.166666667 512.833333333 969.5 474.5 c 128
 991.833333333 436.166666667 1003 391.666666667 1003 341 c 0
 1003 287 991.166666667 239.333333333 967.5 198 c 128
 943.833333333 156.666666667 913.166666667 122 875.5 94 c 128
 837.833333333 66 795.333333333 45 748 31 c 128
 700.666666667 17 653.333333333 10 606 10 c 0
 542 10 485 18.3333333333 435 35 c 128
 385 51.6666666667 341.333333333 74.6666666667 304 104 c 128
 266.666666667 133.333333333 235.166666667 168.166666667 209.5 208.5 c 128
 183.833333333 248.833333333 163 292.5 147 339.5 c 128
 131 386.5 119.5 436 112.5 488 c 128
 105.5 540 102 592.333333333 102 645 c 0
 102 695 107.5 745.5 118.5 796.5 c 128
 129.5 847.5 145.5 896.666666667 166.5 944 c 128
 187.5 991.333333333 213.166666667 1035.66666667 243.5 1077 c 128
 273.833333333 1118.33333333 308.166666667 1154.5 346.5 1185.5 c 128
 384.833333333 1216.5 426.833333333 1240.83333333 472.5 1258.5 c 128
 518.166666667 1276.16666667 566.666666667 1285 618 1285 c 0
 660.666666667 1285 702.333333333 1279.5 743 1268.5 c 128
 783.666666667 1257.5 820.166666667 1240.5 852.5 1217.5 c 128
 884.833333333 1194.5 911.166666667 1165.66666667 931.5 1131 c 128
 951.833333333 1096.33333333 962.666666667 1055.33333333 964 1008 c 0
 963.333333333 987.333333333 961.166666667 968 957.5 950 c 128
 953.833333333 932 948.333333333 914.666666667 941 898 c 0
 929.666666667 874 915.166666667 852.333333333 897.5 833 c 128
 879.833333333 813.666666667 860.333333333 797.333333333 839 784 c 128
 817.666666667 770.666666667 794.833333333 760.5 770.5 753.5 c 128
 746.166666667 746.5 721.333333333 743 696 743 c 0
 656.666666667 743 619 750.166666667 583 764.5 c 128
 547 778.833333333 514.833333333 798.666666667 486.5 824 c 128
 458.166666667 849.333333333 434.5 879.166666667 415.5 913.5 c 128
 396.5 947.833333333 384 985 378 1025 c 1
 356 1001 336.666666667 974 320 944 c 128
 303.333333333 914 289.5 882.5 278.5 849.5 c 128
 267.5 816.5 259.166666667 782.5 253.5 747.5 c 128
 247.833333333 712.5 245 678.333333333 245 645 c 0
633 503 m 0
 599 503 567.166666667 497.666666667 537.5 487 c 128
 507.833333333 476.333333333 482 460.166666667 460 438.5 c 128
 438 416.833333333 420.166666667 389.5 406.5 356.5 c 128
 392.833333333 323.5 384.666666667 285 382 241 c 1
 395.333333333 221.666666667 410.333333333 206.166666667 427 194.5 c 128
 443.666666667 182.833333333 461.5 174 480.5 168 c 128
 499.5 162 519.666666667 158 541 156 c 128
 562.333333333 154 584 153 606 153 c 0
 636 153 666.166666667 156.833333333 696.5 164.5 c 128
 726.833333333 172.166666667 754 183.666666667 778 199 c 128
 802 214.333333333 821.666666667 233.5 837 256.5 c 128
 852.333333333 279.5 860 306.333333333 860 337 c 256
 860 367.666666667 852.833333333 393.666666667 838.5 415 c 128
 824.166666667 436.333333333 805.833333333 453.5 783.5 466.5 c 128
 761.166666667 479.5 736.666666667 488.833333333 710 494.5 c 128
 683.333333333 500.166666667 657.666666667 503 633 503 c 0
618 1141 m 0
 582.666666667 1141 548 1133.66666667 514 1119 c 1
 514 1089 517.833333333 1060.16666667 525.5 1032.5 c 128
 533.166666667 1004.83333333 544.666666667 980.166666667 560 958.5 c 128
 575.333333333 936.833333333 594.333333333 919.5 617 906.5 c 128
 639.666666667 893.5 666 887 696 887 c 0
 710 887 724.5 889.166666667 739.5 893.5 c 128
 754.5 897.833333333 768 904.5 780 913.5 c 128
 792 922.5 802 933.666666667 810 947 c 128
 818 960.333333333 822 976 822 994 c 0
 822 1017.33333333 816.5 1038.16666667 805.5 1056.5 c 128
 794.5 1074.83333333 779.666666667 1090.16666667 761 1102.5 c 128
 742.333333333 1114.83333333 720.666666667 1124.33333333 696 1131 c 128
 671.333333333 1137.66666667 645.333333333 1141 618 1141 c 0
EndSplineSet
EndChar

StartChar: u11DA7
Encoding: 60 73127 60
Width: 1221
GlyphClass: 2
Flags: HW
LayerCount: 3
Fore
SplineSet
1106 575 m 2
 1106 495 l 2
 1106 429.666666667 1095.16666667 366.833333333 1073.5 306.5 c 128
 1051.83333333 246.166666667 1021.16666667 192.666666667 981.5 146 c 128
 941.833333333 99.3333333333 894.166666667 62 838.5 34 c 128
 782.833333333 6 720.666666667 -8 652 -8 c 0
 594 -8 536.666666667 2.16666666667 480 22.5 c 128
 423.333333333 42.8333333333 372.5 72.3333333333 327.5 111 c 128
 282.5 149.666666667 246 196.833333333 218 252.5 c 128
 190 308.166666667 176 371.333333333 176 442 c 0
 176 504.666666667 188.333333333 563.166666667 213 617.5 c 128
 237.666666667 671.833333333 270.666666667 719 312 759 c 128
 353.333333333 799 401 830.333333333 455 853 c 128
 509 875.666666667 565.666666667 887 625 887 c 0
 650.333333333 887 676.666666667 884.833333333 704 880.5 c 128
 731.333333333 876.166666667 758.5 869.833333333 785.5 861.5 c 128
 812.5 853.166666667 838.333333333 842.5 863 829.5 c 128
 887.666666667 816.5 910 801.333333333 930 784 c 1
 923.333333333 842 905.5 895.166666667 876.5 943.5 c 128
 847.5 991.833333333 812.166666667 1033.16666667 770.5 1067.5 c 128
 728.833333333 1101.83333333 683 1128.5 633 1147.5 c 128
 583 1166.5 533.666666667 1176 485 1176 c 2
 162 1176 l 1
 162 1319 l 1
 485 1319 l 2
 585.666666667 1319 674.5 1300.33333333 751.5 1263 c 128
 828.5 1225.66666667 893.333333333 1174 946 1108 c 128
 998.666666667 1042 1038.5 963.5 1065.5 872.5 c 128
 1092.5 781.5 1106 682.333333333 1106 575 c 2
320 443 m 256
 320 401 328.166666667 361.333333333 344.5 324 c 128
 360.833333333 286.666666667 383.333333333 254.166666667 412 226.5 c 128
 440.666666667 198.833333333 474.166666667 177 512.5 161 c 128
 550.833333333 145 591.666666667 137 635 137 c 256
 678.333333333 137 719.166666667 145 757.5 161 c 128
 795.833333333 177 829.333333333 198.833333333 858 226.5 c 128
 886.666666667 254.166666667 909.333333333 286.666666667 926 324 c 128
 942.666666667 361.333333333 951 401 951 443 c 256
 951 485 942.666666667 524.666666667 926 562 c 128
 909.333333333 599.333333333 886.666666667 632 858 660 c 128
 829.333333333 688 795.833333333 710 757.5 726 c 128
 719.166666667 742 678.333333333 750 635 750 c 256
 591.666666667 750 550.833333333 742 512.5 726 c 128
 474.166666667 710 440.666666667 688 412 660 c 128
 383.333333333 632 360.833333333 599.333333333 344.5 562 c 128
 328.166666667 524.666666667 320 485 320 443 c 256
EndSplineSet
EndChar

StartChar: u11DA8
Encoding: 61 73128 61
Width: 1575
GlyphClass: 2
Flags: HW
LayerCount: 3
Fore
SplineSet
1500 834 m 0
 1500 792.666666667 1493.16666667 752.5 1479.5 713.5 c 128
 1465.83333333 674.5 1446.33333333 639.833333333 1421 609.5 c 128
 1395.66666667 579.166666667 1365 554.833333333 1329 536.5 c 128
 1293 518.166666667 1253 509 1209 509 c 0
 1165.66666667 509 1125.16666667 515.666666667 1087.5 529 c 128
 1049.83333333 542.333333333 1017.16666667 561.666666667 989.5 587 c 128
 961.833333333 612.333333333 940 642.833333333 924 678.5 c 128
 908 714.166666667 900 754.666666667 900 800 c 0
 900 850 909.333333333 893 928 929 c 128
 946.666666667 965 971.333333333 994.833333333 1002 1018.5 c 128
 1032.66666667 1042.16666667 1067.83333333 1059.5 1107.5 1070.5 c 128
 1147.16666667 1081.5 1187.66666667 1087 1229 1087 c 2
 1254 1087 l 2
 1258 1087 1262 1086.83333333 1266 1086.5 c 128
 1270 1086.16666667 1273.66666667 1085.66666667 1277 1085 c 1
 1254.33333333 1113 1227.33333333 1135.66666667 1196 1153 c 128
 1164.66666667 1170.33333333 1128 1179 1086 1179 c 2
 674 1179 l 1
 693.333333333 1165 711.833333333 1148 729.5 1128 c 128
 747.166666667 1108 762.833333333 1086 776.5 1062 c 128
 790.166666667 1038 801 1012 809 984 c 128
 817 956 821 926.666666667 821 896 c 0
 821 812.666666667 806.833333333 742 778.5 684 c 128
 750.166666667 626 701.333333333 579.666666667 632 545 c 1
 666 515 693 479.5 713 438.5 c 128
 733 397.5 743 353.666666667 743 307 c 0
 743 269 736 231.5 722 194.5 c 128
 708 157.5 688 124.5 662 95.5 c 128
 636 66.5 604.333333333 43.1666666667 567 25.5 c 128
 529.666666667 7.83333333333 488 -1 442 -1 c 0
 398.666666667 -1 358 7 320 23 c 128
 282 39 249 60.3333333333 221 87 c 128
 193 113.666666667 170.833333333 144.333333333 154.5 179 c 128
 138.166666667 213.666666667 130 249.666666667 130 287 c 0
 130 336.333333333 139 379.166666667 157 415.5 c 128
 175 451.833333333 199.833333333 483.666666667 231.5 511 c 128
 263.166666667 538.333333333 300.833333333 562.166666667 344.5 582.5 c 128
 388.166666667 602.833333333 435.666666667 621.666666667 487 639 c 0
 515.666666667 649 541.666666667 660.833333333 565 674.5 c 128
 588.333333333 688.166666667 608.166666667 704.833333333 624.5 724.5 c 128
 640.833333333 744.166666667 653.5 767.333333333 662.5 794 c 128
 671.5 820.666666667 676 851.666666667 676 887 c 0
 676 923.666666667 666.833333333 959.666666667 648.5 995 c 128
 630.166666667 1030.33333333 606.833333333 1061.5 578.5 1088.5 c 128
 550.166666667 1115.5 519 1137.33333333 485 1154 c 128
 451 1170.66666667 418 1179 386 1179 c 2
 112 1179 l 1
 112 1321 l 1
 1084 1321 l 2
 1156.66666667 1321 1219.16666667 1307.5 1271.5 1280.5 c 128
 1323.83333333 1253.5 1367 1217.5 1401 1172.5 c 128
 1435 1127.5 1460 1075.66666667 1476 1017 c 128
 1492 958.333333333 1500 897.333333333 1500 834 c 0
599 322 m 0
 599 340.666666667 595.166666667 358 587.5 374 c 128
 579.833333333 390 570 404.666666667 558 418 c 128
 546 431.333333333 532.333333333 443.5 517 454.5 c 128
 501.666666667 465.5 486.666666667 475.333333333 472 484 c 1
 446.666666667 476 422.166666667 466.666666667 398.5 456 c 128
 374.833333333 445.333333333 353.666666667 432.166666667 335 416.5 c 128
 316.333333333 400.833333333 301.5 382.333333333 290.5 361 c 128
 279.5 339.666666667 274 314.333333333 274 285 c 0
 274 267.666666667 278.333333333 250.333333333 287 233 c 128
 295.666666667 215.666666667 307.333333333 200.166666667 322 186.5 c 128
 336.666666667 172.833333333 354 161.833333333 374 153.5 c 128
 394 145.166666667 415.666666667 141 439 141 c 0
 463.666666667 141 485.833333333 145.5 505.5 154.5 c 128
 525.166666667 163.5 542 176 556 192 c 128
 570 208 580.666666667 227.166666667 588 249.5 c 128
 595.333333333 271.833333333 599 296 599 322 c 0
1357 841 m 0
 1357 847.666666667 1356.66666667 855.833333333 1356 865.5 c 128
 1355.33333333 875.166666667 1354.5 885.166666667 1353.5 895.5 c 128
 1352.5 905.833333333 1351.16666667 916 1349.5 926 c 128
 1347.83333333 936 1346 944.666666667 1344 952 c 1
 1322.66666667 958 1302.5 961.833333333 1283.5 963.5 c 128
 1264.5 965.166666667 1244.33333333 966 1223 966 c 0
 1200.33333333 966 1178.5 962.333333333 1157.5 955 c 128
 1136.5 947.666666667 1117.83333333 936.833333333 1101.5 922.5 c 128
 1085.16666667 908.166666667 1072.16666667 890.666666667 1062.5 870 c 128
 1052.83333333 849.333333333 1048 826 1048 800 c 0
 1048 752 1062.83333333 715.166666667 1092.5 689.5 c 128
 1122.16666667 663.833333333 1161 651 1209 651 c 0
 1232.33333333 651 1253.16666667 656.666666667 1271.5 668 c 128
 1289.83333333 679.333333333 1305.33333333 694 1318 712 c 128
 1330.66666667 730 1340.33333333 750.333333333 1347 773 c 128
 1353.66666667 795.666666667 1357 818.333333333 1357 841 c 0
EndSplineSet
EndChar

StartChar: u11DA9
Encoding: 62 73129 62
Width: 1339
GlyphClass: 2
Flags: HW
LayerCount: 3
Fore
SplineSet
528 735 m 0
 538 735 547.833333333 735.333333333 557.5 736 c 128
 567.166666667 736.666666667 576.666666667 737 586 737 c 0
 628 737 670.5 730.5 713.5 717.5 c 128
 756.5 704.5 795.333333333 684.333333333 830 657 c 128
 864.666666667 629.666666667 893 594.666666667 915 552 c 128
 937 509.333333333 948 458.666666667 948 400 c 0
 948 377.333333333 945.833333333 356.5 941.5 337.5 c 128
 937.166666667 318.5 931 300.333333333 923 283 c 128
 915 265.666666667 905.333333333 248.833333333 894 232.5 c 128
 882.666666667 216.166666667 870.333333333 199.666666667 857 183 c 1
 871.666666667 171.666666667 888.666666667 161 908 151 c 128
 927.333333333 141 946 136 964 136 c 0
 1010.66666667 136 1042.66666667 149.833333333 1060 177.5 c 128
 1077.33333333 205.166666667 1086 246 1086 300 c 1
 1228 300 l 1
 1228 242.666666667 1219.66666667 194.833333333 1203 156.5 c 128
 1186.33333333 118.166666667 1164.5 87.3333333333 1137.5 64 c 128
 1110.5 40.6666666667 1080 24 1046 14 c 128
 1012 4 978 -1 944 -1 c 1
 904 4.33333333333 869 13.8333333333 839 27.5 c 128
 809 41.1666666667 779.666666667 59.6666666667 751 83 c 1
 701 51 650 28.1666666667 598 14.5 c 128
 546 0.833333333333 491.666666667 -6 435 -6 c 0
 401 -6 365.833333333 -1.16666666667 329.5 8.5 c 128
 293.166666667 18.1666666667 260 32.5 230 51.5 c 128
 200 70.5 175 94.1666666667 155 122.5 c 128
 135 150.833333333 124.666666667 183.666666667 124 221 c 0
 124 259.666666667 133.5 292.166666667 152.5 318.5 c 128
 171.5 344.833333333 195.333333333 366 224 382 c 128
 252.666666667 398 283.833333333 409.5 317.5 416.5 c 128
 351.166666667 423.5 382.666666667 427 412 427 c 0
 475.333333333 427 532.5 417.166666667 583.5 397.5 c 128
 634.5 377.833333333 684 346.333333333 732 303 c 2
 755 282 l 1
 761.666666667 292.666666667 767.833333333 302 773.5 310 c 128
 779.166666667 318 784 326 788 334 c 128
 792 342 795.166666667 351.166666667 797.5 361.5 c 128
 799.833333333 371.833333333 801 384.666666667 801 400 c 0
 801 430 795.833333333 457.666666667 785.5 483 c 128
 775.166666667 508.333333333 761.166666667 530 743.5 548 c 128
 725.833333333 566 705 580 681 590 c 128
 657 600 631.666666667 605 605 605 c 2
 514 605 l 2
 460 605 410 614.666666667 364 634 c 128
 318 653.333333333 278.166666667 680.666666667 244.5 716 c 128
 210.833333333 751.333333333 184.666666667 793.833333333 166 843.5 c 128
 147.333333333 893.166666667 138 948 138 1008 c 0
 138 1050.66666667 147.666666667 1090.83333333 167 1128.5 c 128
 186.333333333 1166.16666667 212.166666667 1199.16666667 244.5 1227.5 c 128
 276.833333333 1255.83333333 314.166666667 1278.33333333 356.5 1295 c 128
 398.833333333 1311.66666667 443 1320 489 1320 c 0
 523.666666667 1320 558 1315.5 592 1306.5 c 128
 626 1297.5 656.166666667 1283.66666667 682.5 1265 c 128
 708.833333333 1246.33333333 730.166666667 1222.66666667 746.5 1194 c 128
 762.833333333 1165.33333333 771 1131.33333333 771 1092 c 0
 771 1060 764 1030.66666667 750 1004 c 128
 736 977.333333333 717.166666667 954.666666667 693.5 936 c 128
 669.833333333 917.333333333 642.5 902.833333333 611.5 892.5 c 128
 580.5 882.166666667 547.666666667 877 513 877 c 0
 461 877 415 888.166666667 375 910.5 c 128
 335 932.833333333 302.333333333 965.666666667 277 1009 c 1
 277 1008 l 2
 277 913.333333333 297.666666667 844.166666667 339 800.5 c 128
 380.333333333 756.833333333 443.333333333 735 528 735 c 0
435 137 m 0
 471.666666667 137 508 140.833333333 544 148.5 c 128
 580 156.166666667 613.333333333 169.333333333 644 188 c 1
 606.666666667 222.666666667 569.833333333 247.333333333 533.5 262 c 128
 497.166666667 276.666666667 456.666666667 284 412 284 c 0
 400.666666667 284 387 283.166666667 371 281.5 c 128
 355 279.833333333 339.333333333 276.833333333 324 272.5 c 128
 308.666666667 268.166666667 295.666666667 261.833333333 285 253.5 c 128
 274.333333333 245.166666667 269 234 269 220 c 0
 269 208 274.833333333 196.833333333 286.5 186.5 c 128
 298.166666667 176.166666667 312.5 167.333333333 329.5 160 c 128
 346.5 152.666666667 364.5 147 383.5 143 c 128
 402.5 139 419.666666667 137 435 137 c 0
506 1010 m 0
 520.666666667 1010 535.333333333 1012.33333333 550 1017 c 128
 564.666666667 1021.66666667 577.833333333 1028 589.5 1036 c 128
 601.166666667 1044 610.5 1053.16666667 617.5 1063.5 c 128
 624.5 1073.83333333 628 1085 628 1097 c 0
 628 1113 623.166666667 1126.5 613.5 1137.5 c 128
 603.833333333 1148.5 592 1157.66666667 578 1165 c 128
 564 1172.33333333 548.833333333 1177.66666667 532.5 1181 c 128
 516.166666667 1184.33333333 501.666666667 1186 489 1186 c 0
 459 1186 431.333333333 1181.16666667 406 1171.5 c 128
 380.666666667 1161.83333333 358.333333333 1149.33333333 339 1134 c 1
 345 1116.66666667 354 1100.5 366 1085.5 c 128
 378 1070.5 391.666666667 1057.33333333 407 1046 c 128
 422.333333333 1034.66666667 438.5 1025.83333333 455.5 1019.5 c 128
 472.5 1013.16666667 489.333333333 1010 506 1010 c 0
EndSplineSet
EndChar

StartChar: uni0970
Encoding: 63 2416 63
Width: 640
GlyphClass: 2
Flags: HW
LayerCount: 3
Fore
SplineSet
537 306 m 256
 537 254 518.666666667 209.666666667 482 173 c 0
 446 137 402 119 350 119 c 256
 298 119 253.666666667 137 217 173 c 0
 181 209.666666667 163 254 163 306 c 256
 163 358 181 402 217 438 c 0
 253.666666667 474.666666667 298 493 350 493 c 256
 402 493 446 474.666666667 482 438 c 0
 518.666666667 402 537 358 537 306 c 256
441 306 m 256
 441 331.333333333 432.166666667 352.833333333 414.5 370.5 c 128
 396.833333333 388.166666667 375.333333333 397 350 397 c 256
 324.666666667 397 303.166666667 388.166666667 285.5 370.5 c 128
 267.833333333 352.833333333 259 331.333333333 259 306 c 256
 259 280.666666667 267.833333333 259.166666667 285.5 241.5 c 128
 303.166666667 223.833333333 324.666666667 215 350 215 c 256
 375.333333333 215 396.833333333 223.833333333 414.5 241.5 c 128
 432.166666667 259.166666667 441 280.666666667 441 306 c 256
EndSplineSet
EndChar

StartChar: u11D98
Encoding: 64 73112 64
Width: 2927
GlyphClass: 2
Flags: HW
LayerCount: 3
Fore
SplineSet
2173 354 m 1
 2190.33333333 330 2209.16666667 308 2229.5 288 c 128
 2249.83333333 268 2271 250.833333333 2293 236.5 c 128
 2315 222.166666667 2337.5 210.833333333 2360.5 202.5 c 128
 2383.5 194.166666667 2406 190 2428 190 c 0
 2496 190 2549.16666667 222.833333333 2587.5 288.5 c 128
 2625.83333333 354.166666667 2645 456.333333333 2645 595 c 0
 2645 638.333333333 2641 683.166666667 2633 729.5 c 128
 2625 775.833333333 2613.16666667 821 2597.5 865 c 128
 2581.83333333 909 2562.83333333 950.5 2540.5 989.5 c 128
 2518.16666667 1028.5 2492.5 1062.66666667 2463.5 1092 c 128
 2434.5 1121.33333333 2402.5 1144.5 2367.5 1161.5 c 128
 2332.5 1178.5 2294.66666667 1187 2254 1187 c 0
 2204.66666667 1187 2163.5 1172.33333333 2130.5 1143 c 128
 2097.5 1113.66666667 2070.16666667 1075 2048.5 1027 c 128
 2026.83333333 979 2009 924.166666667 1995 862.5 c 128
 1981 800.833333333 1968.33333333 737.666666667 1957 673 c 0
 1947.66666667 622.333333333 1937.83333333 570.5 1927.5 517.5 c 128
 1917.16666667 464.5 1904.66666667 413.166666667 1890 363.5 c 128
 1875.33333333 313.833333333 1858 266.833333333 1838 222.5 c 128
 1818 178.166666667 1793.33333333 139.5 1764 106.5 c 128
 1734.66666667 73.5 1700.33333333 47.5 1661 28.5 c 128
 1621.66666667 9.5 1575.66666667 0 1523 0 c 0
 1423 0 1338 29.8333333333 1268 89.5 c 128
 1198 149.166666667 1139.66666667 237.666666667 1093 355 c 1
 1071.66666667 301.666666667 1046 253.333333333 1016 210 c 128
 986 166.666666667 951 129.5 911 98.5 c 128
 871 67.5 826 43.5 776 26.5 c 128
 726 9.5 670 1 608 1 c 0
 562.666666667 1 518.833333333 7.83333333333 476.5 21.5 c 128
 434.166666667 35.1666666667 394.333333333 54 357 78 c 128
 319.666666667 102 285.5 130.666666667 254.5 164 c 128
 223.5 197.333333333 196.833333333 233.833333333 174.5 273.5 c 128
 152.166666667 313.166666667 134.833333333 355.5 122.5 400.5 c 128
 110.166666667 445.5 104 491.666666667 104 539 c 0
 104 603.666666667 112 663.5 128 718.5 c 128
 144 773.5 166.5 821.166666667 195.5 861.5 c 128
 224.5 901.833333333 259.333333333 933.333333333 300 956 c 128
 340.666666667 978.666666667 385.666666667 990 435 990 c 0
 471 990 505.833333333 984.5 539.5 973.5 c 128
 573.166666667 962.5 604.5 946.833333333 633.5 926.5 c 128
 662.5 906.166666667 688.666666667 881.166666667 712 851.5 c 128
 735.333333333 821.833333333 754.666666667 788.333333333 770 751 c 1
 645 687 l 1
 634.333333333 710.333333333 622.5 731.166666667 609.5 749.5 c 128
 596.5 767.833333333 581.666666667 783.333333333 565 796 c 128
 548.333333333 808.666666667 529.333333333 818.333333333 508 825 c 128
 486.666666667 831.666666667 462.666666667 835 436 835 c 0
 385.333333333 835 344 810.166666667 312 760.5 c 128
 280 710.833333333 264 637 264 539 c 0
 264 493.666666667 270.5 449.833333333 283.5 407.5 c 128
 296.5 365.166666667 316.333333333 327.333333333 343 294 c 128
 369.666666667 260.666666667 403.166666667 234 443.5 214 c 128
 483.833333333 194 531.333333333 184 586 184 c 0
 648.666666667 184 705.5 198.166666667 756.5 226.5 c 128
 807.5 254.833333333 851 294.166666667 887 344.5 c 128
 923 394.833333333 950.833333333 454.5 970.5 523.5 c 128
 990.166666667 592.5 1000 667.333333333 1000 748 c 2
 1000 1162 l 1
 1185 1162 l 1
 1185 755 l 2
 1185 673 1192.66666667 597.5 1208 528.5 c 128
 1223.33333333 459.5 1245.5 399.833333333 1274.5 349.5 c 128
 1303.5 299.166666667 1338.83333333 260 1380.5 232 c 128
 1422.16666667 204 1469.66666667 190 1523 190 c 0
 1567 190 1602.5 202.666666667 1629.5 228 c 128
 1656.5 253.333333333 1678.66666667 287.5 1696 330.5 c 128
 1713.33333333 373.5 1727.83333333 423.5 1739.5 480.5 c 128
 1751.16666667 537.5 1763.66666667 597.333333333 1777 660 c 0
 1787.66666667 711.333333333 1799.16666667 763.5 1811.5 816.5 c 128
 1823.83333333 869.5 1838.5 920.833333333 1855.5 970.5 c 128
 1872.5 1020.16666667 1892.33333333 1066.83333333 1915 1110.5 c 128
 1937.66666667 1154.16666667 1965 1192.33333333 1997 1225 c 128
 2029 1257.66666667 2066.16666667 1283.33333333 2108.5 1302 c 128
 2150.83333333 1320.66666667 2200 1330 2256 1330 c 0
 2311.33333333 1330 2363.83333333 1320.16666667 2413.5 1300.5 c 128
 2463.16666667 1280.83333333 2509 1253.66666667 2551 1219 c 128
 2593 1184.33333333 2630.83333333 1143.5 2664.5 1096.5 c 128
 2698.16666667 1049.5 2726.83333333 998.833333333 2750.5 944.5 c 128
 2774.16666667 890.166666667 2792.33333333 833.166666667 2805 773.5 c 128
 2817.66666667 713.833333333 2824 654.333333333 2824 595 c 0
 2824 508.333333333 2814.83333333 428.666666667 2796.5 356 c 128
 2778.16666667 283.333333333 2752.16666667 220.666666667 2718.5 168 c 128
 2684.83333333 115.333333333 2644.83333333 74.1666666667 2598.5 44.5 c 128
 2552.16666667 14.8333333333 2501 0 2445 0 c 0
 2401 0 2359.83333333 7.16666666667 2321.5 21.5 c 128
 2283.16666667 35.8333333333 2247.66666667 55.1666666667 2215 79.5 c 128
 2182.33333333 103.833333333 2152.83333333 131.833333333 2126.5 163.5 c 128
 2100.16666667 195.166666667 2077 228.333333333 2057 263 c 1
 2173 354 l 1
1239 1732 m 1
 1253 1691.33333333 1272.5 1654.16666667 1297.5 1620.5 c 128
 1322.5 1586.83333333 1351 1557.83333333 1383 1533.5 c 128
 1415 1509.16666667 1449.66666667 1490.16666667 1487 1476.5 c 128
 1524.33333333 1462.83333333 1562.33333333 1456 1601 1456 c 256
 1639.66666667 1456 1677.66666667 1462.66666667 1715 1476 c 128
 1752.33333333 1489.33333333 1787 1508.16666667 1819 1532.5 c 128
 1851 1556.83333333 1879.5 1585.83333333 1904.5 1619.5 c 128
 1929.5 1653.16666667 1949 1690.33333333 1963 1731 c 1
 2106 1689 l 1
 2090.66666667 1635 2067 1584.33333333 2035 1537 c 128
 2003 1489.66666667 1964.66666667 1448.16666667 1920 1412.5 c 128
 1875.33333333 1376.83333333 1825.83333333 1348.66666667 1771.5 1328 c 128
 1717.16666667 1307.33333333 1660 1297 1600 1297 c 0
 1540.66666667 1297 1484 1307.33333333 1430 1328 c 128
 1376 1348.66666667 1326.83333333 1376.66666667 1282.5 1412 c 128
 1238.16666667 1447.33333333 1200 1488.66666667 1168 1536 c 128
 1136 1583.33333333 1112.33333333 1634 1097 1688 c 1
 1239 1732 l 1
2543 2564 m 0
 2543 2582 2547.16666667 2598.66666667 2555.5 2614 c 128
 2563.83333333 2629.33333333 2575 2642.83333333 2589 2654.5 c 128
 2603 2666.16666667 2618.83333333 2675.16666667 2636.5 2681.5 c 128
 2654.16666667 2687.83333333 2672.33333333 2691 2691 2691 c 0
 2714.33333333 2691 2736.83333333 2686.16666667 2758.5 2676.5 c 128
 2780.16666667 2666.83333333 2799.5 2653.83333333 2816.5 2637.5 c 128
 2833.5 2621.16666667 2847 2601.83333333 2857 2579.5 c 128
 2867 2557.16666667 2872 2533.66666667 2872 2509 c 0
 2872 2488.33333333 2868.33333333 2469.33333333 2861 2452 c 128
 2853.66666667 2434.66666667 2843.66666667 2419.83333333 2831 2407.5 c 128
 2818.33333333 2395.16666667 2803.5 2385.66666667 2786.5 2379 c 128
 2769.5 2372.33333333 2751 2369 2731 2369 c 0
 2704.33333333 2369 2679.66666667 2374.16666667 2657 2384.5 c 128
 2634.33333333 2394.83333333 2614.5 2408.83333333 2597.5 2426.5 c 128
 2580.5 2444.16666667 2567.16666667 2464.83333333 2557.5 2488.5 c 128
 2547.83333333 2512.16666667 2543 2537.33333333 2543 2564 c 0
1489 1773 m 256
 1489 1787.66666667 1491.66666667 1801.33333333 1497 1814 c 128
 1502.33333333 1826.66666667 1509.83333333 1837.66666667 1519.5 1847 c 128
 1529.16666667 1856.33333333 1540.33333333 1863.83333333 1553 1869.5 c 128
 1565.66666667 1875.16666667 1579.33333333 1878 1594 1878 c 256
 1608.66666667 1878 1622.33333333 1875.16666667 1635 1869.5 c 128
 1647.66666667 1863.83333333 1658.66666667 1856.33333333 1668 1847 c 128
 1677.33333333 1837.66666667 1684.83333333 1826.66666667 1690.5 1814 c 128
 1696.16666667 1801.33333333 1699 1787.66666667 1699 1773 c 256
 1699 1758.33333333 1696.16666667 1744.66666667 1690.5 1732 c 128
 1684.83333333 1719.33333333 1677.33333333 1708.33333333 1668 1699 c 128
 1658.66666667 1689.66666667 1647.66666667 1682.33333333 1635 1677 c 128
 1622.33333333 1671.66666667 1608.66666667 1669 1594 1669 c 256
 1579.33333333 1669 1565.66666667 1671.66666667 1553 1677 c 128
 1540.33333333 1682.33333333 1529.16666667 1689.66666667 1519.5 1699 c 128
 1509.83333333 1708.33333333 1502.33333333 1719.33333333 1497 1732 c 128
 1491.66666667 1744.66666667 1489 1758.33333333 1489 1773 c 256
EndSplineSet
EndChar

StartChar: uni20A8
Encoding: 65 8360 65
Width: 1398
GlyphClass: 2
Flags: HW
LayerCount: 3
Fore
SplineSet
1053 0 m 1
 774 0 l 1
 278 496 l 1
 277 673 l 1
 345 673 l 2
 477.666666667 673 578.333333333 687.166666667 647 715.5 c 128
 715.666666667 743.833333333 752.666666667 783.333333333 758 834 c 1
 258 834 l 1
 258 993 l 1
 747 993 l 1
 742.333333333 1007 735.166666667 1023.33333333 725.5 1042 c 128
 715.833333333 1060.66666667 702.666666667 1078.5 686 1095.5 c 128
 669.333333333 1112.5 648.5 1126.83333333 623.5 1138.5 c 128
 598.5 1150.16666667 568.333333333 1156 533 1156 c 2
 267 1156 l 1
 267 1320 l 1
 1132 1320 l 1
 1132 1156 l 1
 875 1156 l 1
 889 1144 901.166666667 1130.83333333 911.5 1116.5 c 128
 921.833333333 1102.16666667 930.666666667 1087.66666667 938 1073 c 128
 945.333333333 1058.33333333 951.5 1044 956.5 1030 c 128
 961.5 1016 965.666666667 1003.66666667 969 993 c 1
 1152 993 l 1
 1152 834 l 1
 971 834 l 1
 965.666666667 794 952.666666667 756 932 720 c 128
 911.333333333 684 883 651.833333333 847 623.5 c 128
 811 595.166666667 767.666666667 571.666666667 717 553 c 128
 666.333333333 534.333333333 608.666666667 522.666666667 544 518 c 1
 1053 0 l 1
EndSplineSet
EndChar

StartChar: u11D96
Encoding: 66 73110 66
Width: 640
GlyphClass: 2
Flags: HW
LayerCount: 3
Fore
SplineSet
302 979 m 0
 287.333333333 979 273 976.166666667 259 970.5 c 128
 245 964.833333333 232.5 956.833333333 221.5 946.5 c 128
 210.5 936.166666667 201.666666667 923.833333333 195 909.5 c 128
 188.333333333 895.166666667 185 879 185 861 c 0
 185 846.333333333 188.333333333 832 195 818 c 128
 201.666666667 804 210.5 791.5 221.5 780.5 c 128
 232.5 769.5 245 760.666666667 259 754 c 128
 273 747.333333333 287.333333333 744 302 744 c 0
 319.333333333 744 335.833333333 747.333333333 351.5 754 c 128
 367.166666667 760.666666667 380.833333333 769.5 392.5 780.5 c 128
 404.166666667 791.5 413.5 804 420.5 818 c 128
 427.5 832 431 846.333333333 431 861 c 0
 431 879 427.5 895.166666667 420.5 909.5 c 128
 413.5 923.833333333 404.166666667 936.166666667 392.5 946.5 c 128
 380.833333333 956.833333333 367.166666667 964.833333333 351.5 970.5 c 128
 335.833333333 976.166666667 319.333333333 979 302 979 c 0
302 1084 m 0
 334 1084 363.666666667 1078.5 391 1067.5 c 128
 418.333333333 1056.5 441.833333333 1041 461.5 1021 c 128
 481.166666667 1001 496.5 977.333333333 507.5 950 c 128
 518.5 922.666666667 524 893 524 861 c 0
 524 831.666666667 518.5 803.666666667 507.5 777 c 128
 496.5 750.333333333 481.166666667 726.666666667 461.5 706 c 128
 441.833333333 685.333333333 418.333333333 669 391 657 c 128
 363.666666667 645 334 639 302 639 c 0
 272.666666667 639 244.5 645 217.5 657 c 128
 190.5 669 166.833333333 685.333333333 146.5 706 c 128
 126.166666667 726.666666667 109.833333333 750.333333333 97.5 777 c 128
 85.1666666667 803.666666667 79 831.666666667 79 861 c 0
 79 893 85.1666666667 922.666666667 97.5 950 c 128
 109.833333333 977.333333333 126.166666667 1001 146.5 1021 c 128
 166.833333333 1041 190.5 1056.5 217.5 1067.5 c 128
 244.5 1078.5 272.666666667 1084 302 1084 c 0
302 410 m 0
 287.333333333 410 273 406.666666667 259 400 c 128
 245 393.333333333 232.5 384.166666667 221.5 372.5 c 128
 210.5 360.833333333 201.666666667 347.166666667 195 331.5 c 128
 188.333333333 315.833333333 185 299 185 281 c 0
 185 266.333333333 188.333333333 252 195 238 c 128
 201.666666667 224 210.5 211.5 221.5 200.5 c 128
 232.5 189.5 245 180.666666667 259 174 c 128
 273 167.333333333 287.333333333 164 302 164 c 0
 319.333333333 164 335.833333333 167.333333333 351.5 174 c 128
 367.166666667 180.666666667 380.833333333 189.5 392.5 200.5 c 128
 404.166666667 211.5 413.5 224 420.5 238 c 128
 427.5 252 431 266.333333333 431 281 c 0
 431 299 427.5 315.833333333 420.5 331.5 c 128
 413.5 347.166666667 404.166666667 360.833333333 392.5 372.5 c 128
 380.833333333 384.166666667 367.166666667 393.333333333 351.5 400 c 128
 335.833333333 406.666666667 319.333333333 410 302 410 c 0
302 516 m 0
 334 516 363.666666667 509.833333333 391 497.5 c 128
 418.333333333 485.166666667 441.833333333 468.333333333 461.5 447 c 128
 481.166666667 425.666666667 496.5 400.666666667 507.5 372 c 128
 518.5 343.333333333 524 313 524 281 c 0
 524 251.666666667 518.5 223.666666667 507.5 197 c 128
 496.5 170.333333333 481.166666667 146.666666667 461.5 126 c 128
 441.833333333 105.333333333 418.333333333 89 391 77 c 128
 363.666666667 65 334 59 302 59 c 0
 272.666666667 59 244.5 65 217.5 77 c 128
 190.5 89 166.833333333 105.333333333 146.5 126 c 128
 126.166666667 146.666666667 109.833333333 170.333333333 97.5 197 c 128
 85.1666666667 223.666666667 79 251.666666667 79 281 c 0
 79 313 85.1666666667 343.333333333 97.5 372 c 128
 109.833333333 400.666666667 126.166666667 425.666666667 146.5 447 c 128
 166.833333333 468.333333333 190.5 485.166666667 217.5 497.5 c 128
 244.5 509.833333333 272.666666667 516 302 516 c 0
-53 1318 m 1
 686 1318 l 1
 686 1225 l 1
 -53 1225 l 1
 -53 1318 l 1
EndSplineSet
EndChar

StartChar: u11D60
Encoding: 67 73056 67
Width: 1602
GlyphClass: 2
Flags: HW
LayerCount: 3
Fore
SplineSet
-39 1320 m 1
 1617 1320 l 1
 1617 1226 l 1
 1445 1226 l 1
 1450 331 l 2
 1450 281 1441.83333333 235.666666667 1425.5 195 c 128
 1409.16666667 154.333333333 1386.33333333 119.5 1357 90.5 c 128
 1327.66666667 61.5 1292.83333333 39.1666666667 1252.5 23.5 c 128
 1212.16666667 7.83333333333 1167.66666667 0 1119 0 c 0
 1085.66666667 0 1053.33333333 3.16666666667 1022 9.5 c 128
 990.666666667 15.8333333333 961.333333333 25.3333333333 934 38 c 128
 906.666666667 50.6666666667 882 66.5 860 85.5 c 128
 838 104.5 819.666666667 126.666666667 805 152 c 1
 769 104 723.166666667 66.6666666667 667.5 40 c 128
 611.833333333 13.3333333333 549.666666667 0 481 0 c 0
 427.666666667 0 378.666666667 9.83333333333 334 29.5 c 128
 289.333333333 49.1666666667 250.833333333 75.8333333333 218.5 109.5 c 128
 186.166666667 143.166666667 161 182.833333333 143 228.5 c 128
 125 274.166666667 116 323 116 375 c 0
 116 418.333333333 122.166666667 460 134.5 500 c 128
 146.833333333 540 165.166666667 575.166666667 189.5 605.5 c 128
 213.833333333 635.833333333 244.166666667 660.166666667 280.5 678.5 c 128
 316.833333333 696.833333333 359.333333333 706 408 706 c 0
 460 706 507 695 549 673 c 128
 591 651 629 618.666666667 663 576 c 1
 547 491 l 1
 528.333333333 517 507.5 535.833333333 484.5 547.5 c 128
 461.5 559.166666667 436 565 408 565 c 0
 382.666666667 565 360.5 559.5 341.5 548.5 c 128
 322.5 537.5 306.833333333 523 294.5 505 c 128
 282.166666667 487 273 466.666666667 267 444 c 128
 261 421.333333333 258 398.333333333 258 375 c 0
 258 343 263.166666667 312.666666667 273.5 284 c 128
 283.833333333 255.333333333 298.666666667 230.5 318 209.5 c 128
 337.333333333 188.5 360.833333333 171.833333333 388.5 159.5 c 128
 416.166666667 147.166666667 447 141 481 141 c 0
 537 141 583.166666667 152.166666667 619.5 174.5 c 128
 655.833333333 196.833333333 684.833333333 225.5 706.5 260.5 c 128
 728.166666667 295.5 743.666666667 334.666666667 753 378 c 128
 762.333333333 421.333333333 767.666666667 464 769 506 c 2
 769 730 l 1
 910 730 l 1
 910 297 l 2
 910 269 916 245.166666667 928 225.5 c 128
 940 205.833333333 955.666666667 189.833333333 975 177.5 c 128
 994.333333333 165.166666667 1016.66666667 156 1042 150 c 128
 1067.33333333 144 1093 141 1119 141 c 0
 1147 141 1172.66666667 145.333333333 1196 154 c 128
 1219.33333333 162.666666667 1239.33333333 175.166666667 1256 191.5 c 128
 1272.66666667 207.833333333 1285.66666667 227.833333333 1295 251.5 c 128
 1304.33333333 275.166666667 1309 301.666666667 1309 331 c 0
 1308.33333333 479 1307.5 628 1306.5 778 c 128
 1305.5 928 1304.66666667 1077.33333333 1304 1226 c 1
 -39 1226 l 1
 -39 1320 l 1
EndSplineSet
EndChar

StartChar: u11D61
Encoding: 68 73057 68
Width: 2148
GlyphClass: 2
Flags: HW
LayerCount: 3
Fore
SplineSet
-39 1320 m 1
 2157 1320 l 1
 2157 1226 l 1
 1478 1226 l 1
 1478 980 l 1
 1508.66666667 993.333333333 1542 1003.33333333 1578 1010 c 128
 1614 1016.66666667 1652 1020 1692 1020 c 0
 1739.33333333 1020 1783.66666667 1011 1825 993 c 128
 1866.33333333 975 1902.33333333 950.5 1933 919.5 c 128
 1963.66666667 888.5 1987.83333333 852.333333333 2005.5 811 c 128
 2023.16666667 769.666666667 2032 725.666666667 2032 679 c 0
 2032 635.666666667 2023.83333333 595.166666667 2007.5 557.5 c 128
 1991.16666667 519.833333333 1969 487.166666667 1941 459.5 c 128
 1913 431.833333333 1880.33333333 410 1843 394 c 128
 1805.66666667 378 1766 370 1724 370 c 0
 1678 370 1636.16666667 377.5 1598.5 392.5 c 128
 1560.83333333 407.5 1527.5 427.833333333 1498.5 453.5 c 128
 1469.5 479.166666667 1444.5 509 1423.5 543 c 128
 1402.5 577 1385.66666667 612.666666667 1373 650 c 1
 1368.33333333 632 1364.83333333 613.166666667 1362.5 593.5 c 128
 1360.16666667 573.833333333 1359 553 1359 531 c 0
 1359 513.666666667 1359.66666667 496.333333333 1361 479 c 128
 1362.33333333 461.666666667 1363 444.333333333 1363 427 c 0
 1363 371.666666667 1357.5 319 1346.5 269 c 128
 1335.5 219 1317.83333333 174.5 1293.5 135.5 c 128
 1269.16666667 96.5 1237.83333333 64.8333333333 1199.5 40.5 c 128
 1161.16666667 16.1666666667 1114.66666667 2.66666666667 1060 0 c 1
 1059 0 l 2
 1057 0 1055 -0.166666666667 1053 -0.5 c 128
 1051 -0.833333333333 1049.33333333 -1 1048 -1 c 2
 1039 -1 l 2
 976.333333333 -1 921.5 12.3333333333 874.5 39 c 128
 827.5 65.6666666667 790.666666667 103.333333333 764 152 c 1
 728 104 682.333333333 66.6666666667 627 40 c 128
 571.666666667 13.3333333333 509.666666667 0 441 0 c 0
 387.666666667 0 338.666666667 9.83333333333 294 29.5 c 128
 249.333333333 49.1666666667 210.833333333 75.8333333333 178.5 109.5 c 128
 146.166666667 143.166666667 121 182.833333333 103 228.5 c 128
 85 274.166666667 76 323 76 375 c 0
 76 418.333333333 82 460 94 500 c 128
 106 540 124.166666667 575.166666667 148.5 605.5 c 128
 172.833333333 635.833333333 203.166666667 660.166666667 239.5 678.5 c 128
 275.833333333 696.833333333 318.666666667 706 368 706 c 0
 420 706 466.833333333 695 508.5 673 c 128
 550.166666667 651 588 618.666666667 622 576 c 1
 506 491 l 1
 487.333333333 517 466.666666667 535.833333333 444 547.5 c 128
 421.333333333 559.166666667 396 565 368 565 c 0
 342.666666667 565 320.5 559.5 301.5 548.5 c 128
 282.5 537.5 266.666666667 523 254 505 c 128
 241.333333333 487 232 466.666666667 226 444 c 128
 220 421.333333333 217 398.333333333 217 375 c 0
 217 343 222.166666667 312.666666667 232.5 284 c 128
 242.833333333 255.333333333 257.833333333 230.5 277.5 209.5 c 128
 297.166666667 188.5 320.833333333 171.833333333 348.5 159.5 c 128
 376.166666667 147.166666667 407 141 441 141 c 0
 497 141 543.166666667 152.166666667 579.5 174.5 c 128
 615.833333333 196.833333333 644.833333333 225.5 666.5 260.5 c 128
 688.166666667 295.5 703.5 334.666666667 712.5 378 c 128
 721.5 421.333333333 726.666666667 464 728 506 c 2
 728 730 l 1
 869 730 l 1
 869 297 l 2
 869 271.666666667 873.166666667 249.166666667 881.5 229.5 c 128
 889.833333333 209.833333333 901.333333333 193.333333333 916 180 c 128
 930.666666667 166.666666667 947.833333333 156.5 967.5 149.5 c 128
 987.166666667 142.5 1008.66666667 139 1032 139 c 0
 1072 139 1104.5 146.666666667 1129.5 162 c 128
 1154.5 177.333333333 1174 198 1188 224 c 128
 1202 250 1211.5 280 1216.5 314 c 128
 1221.5 348 1224 383.666666667 1224 421 c 0
 1224 444.333333333 1223.16666667 468 1221.5 492 c 128
 1219.83333333 516 1219 539.666666667 1219 563 c 0
 1219 629.666666667 1229.5 689.166666667 1250.5 741.5 c 128
 1271.5 793.833333333 1300 840 1336 880 c 1
 1336 1226 l 1
 -39 1226 l 1
 -39 1320 l 1
1692 879 m 0
 1646 879 1605.83333333 874 1571.5 864 c 128
 1537.16666667 854 1507.33333333 840.333333333 1482 823 c 1
 1485.33333333 787 1492.16666667 750.666666667 1502.5 714 c 128
 1512.83333333 677.333333333 1527.5 644 1546.5 614 c 128
 1565.5 584 1589.33333333 559.5 1618 540.5 c 128
 1646.66666667 521.5 1681.33333333 512 1722 512 c 0
 1744.66666667 512 1766 516.333333333 1786 525 c 128
 1806 533.666666667 1823.5 545.5 1838.5 560.5 c 128
 1853.5 575.5 1865.16666667 593.166666667 1873.5 613.5 c 128
 1881.83333333 633.833333333 1886 655.666666667 1886 679 c 0
 1886 707 1881 733.166666667 1871 757.5 c 128
 1861 781.833333333 1847.33333333 803 1830 821 c 128
 1812.66666667 839 1792.16666667 853.166666667 1768.5 863.5 c 128
 1744.83333333 873.833333333 1719.33333333 879 1692 879 c 0
EndSplineSet
EndChar

StartChar: u11D62
Encoding: 69 73058 69
Width: 1825
GlyphClass: 2
Flags: HW
LayerCount: 3
Fore
SplineSet
-39 1320 m 1
 777 1320 l 1
 789 1374 807 1424.66666667 831 1472 c 128
 855 1519.33333333 885.333333333 1560.5 922 1595.5 c 128
 958.666666667 1630.5 1001.83333333 1658 1051.5 1678 c 128
 1101.16666667 1698 1157.66666667 1708 1221 1708 c 0
 1288.33333333 1708 1347.33333333 1698.33333333 1398 1679 c 128
 1448.66666667 1659.66666667 1491.66666667 1632.66666667 1527 1598 c 128
 1562.33333333 1563.33333333 1590.66666667 1522.33333333 1612 1475 c 128
 1633.33333333 1427.66666667 1648.33333333 1376 1657 1320 c 1
 1857 1320 l 1
 1857 1226 l 1
 1665 1226 l 1
 1665.66666667 1221.33333333 1666 1216.66666667 1666 1212 c 128
 1666 1205 1666 1205 1666 1198 c 2
 1666 408 l 2
 1666 360.666666667 1660.5 315 1649.5 271 c 128
 1638.5 227 1621 188.166666667 1597 154.5 c 128
 1573 120.833333333 1542 93.8333333333 1504 73.5 c 128
 1466 53.1666666667 1420 43 1366 43 c 0
 1280 43 1215.16666667 64.5 1171.5 107.5 c 128
 1127.83333333 150.5 1106 214 1106 298 c 1
 1256 298 l 1
 1256 278 1257.66666667 261 1261 247 c 128
 1264.33333333 233 1270.33333333 221.666666667 1279 213 c 128
 1287.66666667 204.333333333 1299 198 1313 194 c 128
 1327 190 1344.66666667 188 1366 188 c 0
 1392 188 1414.5 193.333333333 1433.5 204 c 128
 1452.5 214.666666667 1468 229.666666667 1480 249 c 128
 1492 268.333333333 1501 291.5 1507 318.5 c 128
 1513 345.5 1516 375.333333333 1516 408 c 2
 1516 1198 l 2
 1516 1205 1516 1205 1516 1212 c 128
 1516 1216.66666667 1515.66666667 1221.33333333 1515 1226 c 1
 908 1226 l 1
 907.333333333 1220.66666667 906.833333333 1215.83333333 906.5 1211.5 c 128
 906.166666667 1207.16666667 906 1202.66666667 906 1198 c 0
 906 1108 906 1108 906 1023 c 128
 906 966.333333333 906.166666667 910.166666667 906.5 854.5 c 128
 906.833333333 798.833333333 907 743.333333333 907 688 c 128
 907 605 907 605 907 521 c 0
 907 481 904 440 898 398 c 128
 892 356 882.333333333 315 869 275 c 128
 855.666666667 235 838 197.333333333 816 162 c 128
 794 126.666666667 766.833333333 95.6666666667 734.5 69 c 128
 702.166666667 42.3333333333 664.166666667 21.3333333333 620.5 6 c 128
 576.833333333 -9.33333333333 527 -17 471 -17 c 0
 413.666666667 -17 361.666666667 -6.83333333333 315 13.5 c 128
 268.333333333 33.8333333333 228.333333333 61.3333333333 195 96 c 128
 161.666666667 130.666666667 136 171.333333333 118 218 c 128
 100 264.666666667 91 314.666666667 91 368 c 0
 91 410 97.5 451.333333333 110.5 492 c 128
 123.5 532.666666667 142.833333333 569 168.5 601 c 128
 194.166666667 633 226 658.833333333 264 678.5 c 128
 302 698.166666667 346 708 396 708 c 256
 446 708 492.666666667 697.833333333 536 677.5 c 128
 579.333333333 657.166666667 616 625.666666667 646 583 c 1
 526 498 l 1
 508.666666667 520.666666667 489.666666667 537.166666667 469 547.5 c 128
 448.333333333 557.833333333 424 563 396 563 c 0
 366.666666667 563 342 556.833333333 322 544.5 c 128
 302 532.166666667 286 516.5 274 497.5 c 128
 262 478.5 253.5 457.5 248.5 434.5 c 128
 243.5 411.5 241 389.333333333 241 368 c 0
 241 332.666666667 246.833333333 300.166666667 258.5 270.5 c 128
 270.166666667 240.833333333 286.333333333 215.5 307 194.5 c 128
 327.666666667 173.5 352 157.166666667 380 145.5 c 128
 408 133.833333333 438.333333333 128 471 128 c 0
 529.666666667 128 577.666666667 140.5 615 165.5 c 128
 652.333333333 190.5 681.833333333 223 703.5 263 c 128
 725.166666667 303 740.166666667 347.833333333 748.5 397.5 c 128
 756.833333333 447.166666667 761 496.666666667 761 546 c 2
 761 1203 l 2
 761 1206.33333333 761.166666667 1210 761.5 1214 c 128
 761.833333333 1218 762.333333333 1222 763 1226 c 1
 -39 1226 l 1
 -39 1320 l 1
1221 1563 m 0
 1165 1563 1116.33333333 1551.66666667 1075 1529 c 128
 1033.66666667 1506.33333333 999 1471 971 1423 c 0
 962.333333333 1407.66666667 954.5 1391.16666667 947.5 1373.5 c 128
 940.5 1355.83333333 934.333333333 1338 929 1320 c 1
 1506 1320 l 1
 1499.33333333 1355.33333333 1489.16666667 1387.83333333 1475.5 1417.5 c 128
 1461.83333333 1447.16666667 1443.66666667 1472.83333333 1421 1494.5 c 128
 1398.33333333 1516.16666667 1370.5 1533 1337.5 1545 c 128
 1304.5 1557 1265.66666667 1563 1221 1563 c 0
EndSplineSet
EndChar

StartChar: u11D63
Encoding: 70 73059 70
Width: 2150
GlyphClass: 2
Flags: HW
LayerCount: 3
Fore
SplineSet
-39 1320 m 1
 769 1320 l 1
 775 1372.66666667 785.333333333 1422.66666667 800 1470 c 128
 814.666666667 1517.33333333 836 1558.66666667 864 1594 c 128
 892 1629.33333333 927.5 1657.33333333 970.5 1678 c 128
 1013.5 1698.66666667 1066.33333333 1709 1129 1709 c 0
 1181.66666667 1709 1229.33333333 1701.5 1272 1686.5 c 128
 1314.66666667 1671.5 1351 1648.16666667 1381 1616.5 c 128
 1411 1584.83333333 1434.33333333 1544.5 1451 1495.5 c 128
 1467.66666667 1446.5 1476.66666667 1388 1478 1320 c 1
 2167 1320 l 1
 2167 1226 l 1
 1479 1226 l 1
 1479 554 l 1
 1489.66666667 568.666666667 1503 582.333333333 1519 595 c 128
 1535 607.666666667 1552.33333333 618.5 1571 627.5 c 128
 1589.66666667 636.5 1609.33333333 643.5 1630 648.5 c 128
 1650.66666667 653.5 1671 656 1691 656 c 0
 1739 656 1783 646.666666667 1823 628 c 128
 1863 609.333333333 1897.16666667 583.5 1925.5 550.5 c 128
 1953.83333333 517.5 1975.83333333 478.833333333 1991.5 434.5 c 128
 2007.16666667 390.166666667 2015 342 2015 290 c 0
 2015 231.333333333 2004.66666667 175.833333333 1984 123.5 c 128
 1963.33333333 71.1666666667 1931.66666667 24.6666666667 1889 -16 c 1
 1784 89 l 1
 1812 114.333333333 1832.66666667 143.166666667 1846 175.5 c 128
 1859.33333333 207.833333333 1866 242 1866 278 c 0
 1866 310.666666667 1862.5 341.166666667 1855.5 369.5 c 128
 1848.5 397.833333333 1837.66666667 422.333333333 1823 443 c 128
 1808.33333333 463.666666667 1789.83333333 480 1767.5 492 c 128
 1745.16666667 504 1718.66666667 510 1688 510 c 0
 1656.66666667 510 1628.16666667 502.166666667 1602.5 486.5 c 128
 1576.83333333 470.833333333 1554.83333333 451 1536.5 427 c 128
 1518.16666667 403 1504 376.5 1494 347.5 c 128
 1484 318.5 1479 290.666666667 1479 264 c 2
 1479 4 l 1
 1334 4 l 1
 1334 1226 l 1
 908 1226 l 1
 908 1212 908.166666667 1198.33333333 908.5 1185 c 128
 908.833333333 1171.66666667 909 1158.33333333 909 1145 c 2
 909 542 l 2
 909 500 906.166666667 457 900.5 413 c 128
 894.833333333 369 885.5 326.166666667 872.5 284.5 c 128
 859.5 242.833333333 842.166666667 203.5 820.5 166.5 c 128
 798.833333333 129.5 771.666666667 97.1666666667 739 69.5 c 128
 706.333333333 41.8333333333 667.666666667 19.8333333333 623 3.5 c 128
 578.333333333 -12.8333333333 527 -21 469 -21 c 0
 415 -21 365.166666667 -10.5 319.5 10.5 c 128
 273.833333333 31.5 234.166666667 59.6666666667 200.5 95 c 128
 166.833333333 130.333333333 140.666666667 171.166666667 122 217.5 c 128
 103.333333333 263.833333333 94 312.666666667 94 364 c 0
 94 408 100.833333333 450.666666667 114.5 492 c 128
 128.166666667 533.333333333 148 570 174 602 c 128
 200 634 231.5 659.833333333 268.5 679.5 c 128
 305.5 699.166666667 347.333333333 709 394 709 c 0
 446.666666667 709 494.833333333 698.166666667 538.5 676.5 c 128
 582.166666667 654.833333333 619 624 649 584 c 1
 529 494 l 1
 511.666666667 516.666666667 491.833333333 533.166666667 469.5 543.5 c 128
 447.166666667 553.833333333 422 559 394 559 c 0
 366.666666667 559 343.166666667 553.5 323.5 542.5 c 128
 303.833333333 531.5 287.666666667 516.833333333 275 498.5 c 128
 262.333333333 480.166666667 253.166666667 459.333333333 247.5 436 c 128
 241.833333333 412.666666667 239 388.666666667 239 364 c 0
 239 330 244.833333333 298.666666667 256.5 270 c 128
 268.166666667 241.333333333 284.333333333 216.5 305 195.5 c 128
 325.666666667 174.5 350 158.166666667 378 146.5 c 128
 406 134.833333333 436.333333333 129 469 129 c 0
 511 129 547.5 135.166666667 578.5 147.5 c 128
 609.5 159.833333333 636 176.5 658 197.5 c 128
 680 218.5 697.833333333 243.333333333 711.5 272 c 128
 725.166666667 300.666666667 735.833333333 331.333333333 743.5 364 c 128
 751.166666667 396.666666667 756.5 430.5 759.5 465.5 c 128
 762.5 500.5 764 535 764 569 c 0
 764 671.666666667 763.666666667 771.5 763 868.5 c 128
 762.333333333 965.5 762 1065.33333333 762 1168 c 0
 762 1182 762 1182 762 1196.5 c 128
 762 1206.16666667 762.333333333 1216 763 1226 c 1
 -39 1226 l 1
 -39 1320 l 1
1129 1571 m 0
 1086.33333333 1571 1051.33333333 1564.16666667 1024 1550.5 c 128
 996.666666667 1536.83333333 974.833333333 1518.5 958.5 1495.5 c 128
 942.166666667 1472.5 930.5 1445.83333333 923.5 1415.5 c 128
 916.5 1385.16666667 912 1353.33333333 910 1320 c 1
 1334 1320 l 1
 1334 1331.33333333 1333.16666667 1345.33333333 1331.5 1362 c 128
 1329.83333333 1378.66666667 1326.66666667 1396.33333333 1322 1415 c 128
 1317.33333333 1433.66666667 1310.5 1452.33333333 1301.5 1471 c 128
 1292.5 1489.66666667 1280.5 1506.33333333 1265.5 1521 c 128
 1250.5 1535.66666667 1231.83333333 1547.66666667 1209.5 1557 c 128
 1187.16666667 1566.33333333 1160.33333333 1571 1129 1571 c 0
EndSplineSet
EndChar

StartChar: u11D64
Encoding: 71 73060 71
Width: 1672
GlyphClass: 2
Flags: HW
LayerCount: 3
Fore
SplineSet
-39 1320 m 1
 1677 1320 l 1
 1677 1226 l 1
 1496 1226 l 1
 1496.66666667 1209.33333333 1497.5 1192.5 1498.5 1175.5 c 128
 1499.5 1158.5 1500 1141.33333333 1500 1124 c 0
 1500 1088 1495.16666667 1054.5 1485.5 1023.5 c 128
 1475.83333333 992.5 1462.83333333 963.333333333 1446.5 936 c 128
 1430.16666667 908.666666667 1411.5 883 1390.5 859 c 128
 1369.5 835 1347.66666667 811.666666667 1325 789 c 1
 1356.33333333 777.666666667 1385.16666667 763.5 1411.5 746.5 c 128
 1437.83333333 729.5 1460.5 709 1479.5 685 c 128
 1498.5 661 1513.33333333 633.166666667 1524 601.5 c 128
 1534.66666667 569.833333333 1540 534 1540 494 c 256
 1540 454 1532.83333333 416.333333333 1518.5 381 c 128
 1504.16666667 345.666666667 1484.33333333 315 1459 289 c 128
 1433.66666667 263 1403.5 242.333333333 1368.5 227 c 128
 1333.5 211.666666667 1295.66666667 204 1255 204 c 0
 1215.66666667 204 1178.83333333 211 1144.5 225 c 128
 1110.16666667 239 1080 258.333333333 1054 283 c 128
 1028 307.666666667 1007.5 336.666666667 992.5 370 c 128
 977.5 403.333333333 970 439.666666667 970 479 c 0
 970 519 974.833333333 555.833333333 984.5 589.5 c 128
 994.166666667 623.166666667 1007.66666667 656.333333333 1025 689 c 1
 798 689 l 1
 788 654.333333333 772.833333333 626.333333333 752.5 605 c 128
 732.166666667 583.666666667 708.5 566.5 681.5 553.5 c 128
 654.5 540.5 625.5 530.333333333 594.5 523 c 128
 563.5 515.666666667 532.666666667 509 502 503 c 128
 471.333333333 497 441.666666667 490.5 413 483.5 c 128
 384.333333333 476.5 359 466.5 337 453.5 c 128
 315 440.5 297.5 423.333333333 284.5 402 c 128
 271.5 380.666666667 265 353 265 319 c 0
 265 289 273.833333333 262.666666667 291.5 240 c 128
 309.166666667 217.333333333 331.333333333 198.5 358 183.5 c 128
 384.666666667 168.5 413.5 157.333333333 444.5 150 c 128
 475.5 142.666666667 504 139 530 139 c 0
 546 139 563.333333333 139.833333333 582 141.5 c 128
 600.666666667 143.166666667 619.5 145.833333333 638.5 149.5 c 128
 657.5 153.166666667 676 157.833333333 694 163.5 c 128
 712 169.166666667 728.333333333 176.333333333 743 185 c 1
 819 60 l 1
 776.333333333 34.6666666667 730 16.5 680 5.5 c 128
 630 -5.5 583.333333333 -11 540 -11 c 0
 492.666666667 -11 443.833333333 -3.83333333333 393.5 10.5 c 128
 343.166666667 24.8333333333 297.333333333 46 256 74 c 128
 214.666666667 102 180.833333333 136.833333333 154.5 178.5 c 128
 128.166666667 220.166666667 115 268.666666667 115 324 c 0
 115 378 122.833333333 422.5 138.5 457.5 c 128
 154.166666667 492.5 175 521.166666667 201 543.5 c 128
 227 565.833333333 256.333333333 583 289 595 c 128
 321.666666667 607 355.333333333 616.833333333 390 624.5 c 128
 424.666666667 632.166666667 458.333333333 639 491 645 c 128
 523.666666667 651 553 659 579 669 c 128
 605 679 625.833333333 692.5 641.5 709.5 c 128
 657.166666667 726.5 665 749.666666667 665 779 c 0
 665 803 658.333333333 822.166666667 645 836.5 c 128
 631.666666667 850.833333333 614.333333333 861.833333333 593 869.5 c 128
 571.666666667 877.166666667 547.166666667 882.333333333 519.5 885 c 128
 491.833333333 887.666666667 463.666666667 889 435 889 c 2
 185 884 l 1
 185 1226 l 1
 -39 1226 l 1
 -39 1320 l 1
330 1034 m 1
 430 1034 l 2
 468.666666667 1034 508.5 1032.16666667 549.5 1028.5 c 128
 590.5 1024.83333333 628.5 1016.16666667 663.5 1002.5 c 128
 698.5 988.833333333 728.833333333 968.833333333 754.5 942.5 c 128
 780.166666667 916.166666667 797 880 805 834 c 1
 945 834 l 2
 981 834 1016 833.833333333 1050 833.5 c 128
 1084 833.166666667 1117.33333333 831.666666667 1150 829 c 1
 1170 849 1192 869.5 1216 890.5 c 128
 1240 911.5 1262.16666667 933.666666667 1282.5 957 c 128
 1302.83333333 980.333333333 1320 1005.33333333 1334 1032 c 128
 1348 1058.66666667 1355 1087.66666667 1355 1119 c 0
 1355 1138.33333333 1354.5 1156.66666667 1353.5 1174 c 128
 1352.5 1191.33333333 1351.66666667 1208.66666667 1351 1226 c 1
 330 1226 l 1
 330 1034 l 1
1200 674 m 1
 1172 646 1150.83333333 616 1136.5 584 c 128
 1122.16666667 552 1115 517 1115 479 c 0
 1115 460.333333333 1118.83333333 443 1126.5 427 c 128
 1134.16666667 411 1144.33333333 397.333333333 1157 386 c 128
 1169.66666667 374.666666667 1184.5 365.666666667 1201.5 359 c 128
 1218.5 352.333333333 1236.33333333 349 1255 349 c 0
 1276.33333333 349 1295.66666667 353 1313 361 c 128
 1330.33333333 369 1345 379.833333333 1357 393.5 c 128
 1369 407.166666667 1378.33333333 422.666666667 1385 440 c 128
 1391.66666667 457.333333333 1395 475.333333333 1395 494 c 0
 1395 522.666666667 1389.83333333 547 1379.5 567 c 128
 1369.16666667 587 1355 604 1337 618 c 128
 1319 632 1298.16666667 643.333333333 1274.5 652 c 128
 1250.83333333 660.666666667 1226 668 1200 674 c 1
EndSplineSet
EndChar

StartChar: u11D65
Encoding: 72 73061 72
Width: 1641
GlyphClass: 2
Flags: HW
LayerCount: 3
Fore
SplineSet
342 291 m 2
 330 291 330 291 308.5 291 c 128
 294.166666667 291 279.833333333 289 265.5 285 c 128
 251.166666667 281 238.666666667 273.666666667 228 263 c 128
 217.333333333 252.333333333 212 236.666666667 212 216 c 0
 212 197.333333333 222.666666667 181.833333333 244 169.5 c 128
 265.333333333 157.166666667 291 147.5 321 140.5 c 128
 351 133.5 382.166666667 128.5 414.5 125.5 c 128
 446.833333333 122.5 474.333333333 121 497 121 c 0
 549.666666667 121 600 132 648 154 c 128
 696 176 739 208.333333333 777 251 c 1
 817 316 l 1
 937 236 l 1
 902 176 l 2
 880 138 852.166666667 106.333333333 818.5 81 c 128
 784.833333333 55.6666666667 748.166666667 35.1666666667 708.5 19.5 c 128
 668.833333333 3.83333333333 627.666666667 -7.33333333333 585 -14 c 128
 542.333333333 -20.6666666667 501.333333333 -24 462 -24 c 0
 418 -24 372.5 -19.6666666667 325.5 -11 c 128
 278.5 -2.33333333333 235.5 11.8333333333 196.5 31.5 c 128
 157.5 51.1666666667 125.333333333 77 100 109 c 128
 74.6666666667 141 62 180 62 226 c 0
 62 244.666666667 65.1666666667 262.666666667 71.5 280 c 128
 77.8333333333 297.333333333 86.3333333333 313.333333333 97 328 c 128
 107.666666667 342.666666667 119.833333333 355.833333333 133.5 367.5 c 128
 147.166666667 379.166666667 161.666666667 388.666666667 177 396 c 1
 161.666666667 411.333333333 151.166666667 429.666666667 145.5 451 c 128
 139.833333333 472.333333333 137 495.666666667 137 521 c 0
 137 555.666666667 144 585.166666667 158 609.5 c 128
 172 633.833333333 190.333333333 653.5 213 668.5 c 128
 235.666666667 683.5 261 694.333333333 289 701 c 128
 317 707.666666667 344.666666667 711 372 711 c 0
 394.666666667 711 416.333333333 709.333333333 437 706 c 128
 457.666666667 702.666666667 479.333333333 701 502 701 c 0
 516.666666667 701 532 702.5 548 705.5 c 128
 564 708.5 578.666666667 713.5 592 720.5 c 128
 605.333333333 727.5 616.166666667 737.166666667 624.5 749.5 c 128
 632.833333333 761.833333333 637 777.333333333 637 796 c 0
 637 813.333333333 630.666666667 827.5 618 838.5 c 128
 605.333333333 849.5 588.666666667 858.166666667 568 864.5 c 128
 547.333333333 870.833333333 523.833333333 875.166666667 497.5 877.5 c 128
 471.166666667 879.833333333 444.333333333 881 417 881 c 0
 379.666666667 881 343.833333333 880.666666667 309.5 880 c 128
 275.166666667 879.333333333 249.333333333 879 232 879 c 2
 162 879 l 1
 162 1226 l 1
 -39 1226 l 1
 -39 1320 l 1
 1657 1320 l 1
 1657 1226 l 1
 1473 1226 l 1
 1473.66666667 1211.33333333 1474.5 1196.66666667 1475.5 1182 c 128
 1476.5 1167.33333333 1477 1152 1477 1136 c 0
 1477 1098 1472.5 1062.5 1463.5 1029.5 c 128
 1454.5 996.5 1442.16666667 965.333333333 1426.5 936 c 128
 1410.83333333 906.666666667 1392.33333333 879.166666667 1371 853.5 c 128
 1349.66666667 827.833333333 1326.66666667 803.666666667 1302 781 c 1
 1333.33333333 769.666666667 1362.16666667 755.5 1388.5 738.5 c 128
 1414.83333333 721.5 1437.5 701 1456.5 677 c 128
 1475.5 653 1490.33333333 625.166666667 1501 593.5 c 128
 1511.66666667 561.833333333 1517 526 1517 486 c 0
 1517 444.666666667 1509.66666667 406.333333333 1495 371 c 128
 1480.33333333 335.666666667 1460 305 1434 279 c 128
 1408 253 1377.33333333 232.666666667 1342 218 c 128
 1306.66666667 203.333333333 1268.33333333 196 1227 196 c 0
 1189.66666667 196 1153.83333333 203 1119.5 217 c 128
 1085.16666667 231 1054.83333333 250.333333333 1028.5 275 c 128
 1002.16666667 299.666666667 981.166666667 328.666666667 965.5 362 c 128
 949.833333333 395.333333333 942 431.666666667 942 471 c 0
 942 511 947 547.833333333 957 581.5 c 128
 967 615.166666667 982 648.333333333 1002 681 c 1
 758 681 l 1
 745.333333333 659 729.5 640.166666667 710.5 624.5 c 128
 691.5 608.833333333 670.666666667 595.833333333 648 585.5 c 128
 625.333333333 575.166666667 601.5 567.666666667 576.5 563 c 128
 551.5 558.333333333 526.666666667 556 502 556 c 0
 490.666666667 556 480.666666667 556.333333333 472 557 c 128
 463.333333333 557.666666667 454.5 558.166666667 445.5 558.5 c 128
 436.5 558.833333333 426.5 559.333333333 415.5 560 c 128
 404.5 560.666666667 391.666666667 561 377 561 c 0
 341.666666667 561 317.833333333 555 305.5 543 c 128
 293.166666667 531 287 513.666666667 287 491 c 0
 287 479.666666667 291.5 470.666666667 300.5 464 c 128
 309.5 457.333333333 321 452.166666667 335 448.5 c 128
 349 444.833333333 364.166666667 442.5 380.5 441.5 c 128
 396.833333333 440.5 412.666666667 440 428 440 c 0
 438 440 447.333333333 440.166666667 456 440.5 c 128
 464.666666667 440.833333333 471.666666667 441 477 441 c 2
 627 441 l 1
 627 291 l 1
 342 291 l 2
1127 821 m 1
 1151.66666667 845.666666667 1176 868.833333333 1200 890.5 c 128
 1224 912.166666667 1245.5 935 1264.5 959 c 128
 1283.5 983 1298.66666667 1009.83333333 1310 1039.5 c 128
 1321.33333333 1069.16666667 1327 1104.66666667 1327 1146 c 0
 1327 1160 1326.5 1173.5 1325.5 1186.5 c 128
 1324.5 1199.5 1323.66666667 1212.66666667 1323 1226 c 1
 307 1226 l 1
 307 1026 l 1
 320.333333333 1026 335.333333333 1026.16666667 352 1026.5 c 128
 368.666666667 1026.83333333 386.333333333 1027 405 1027 c 0
 430.333333333 1027 457 1026.16666667 485 1024.5 c 128
 513 1022.83333333 540.5 1019.66666667 567.5 1015 c 128
 594.5 1010.33333333 620.5 1003.5 645.5 994.5 c 128
 670.5 985.5 692.833333333 973.5 712.5 958.5 c 128
 732.166666667 943.5 748.333333333 925 761 903 c 128
 773.666666667 881 781.666666667 854.666666667 785 824 c 1
 815 824 847 823.833333333 881 823.5 c 128
 915 823.166666667 947.666666667 822.833333333 979 822.5 c 128
 1010.33333333 822.166666667 1039.16666667 821.833333333 1065.5 821.5 c 128
 1091.83333333 821.166666667 1112.33333333 821 1127 821 c 1
1177 666 m 1
 1149 638 1127.83333333 608 1113.5 576 c 128
 1099.16666667 544 1092 509 1092 471 c 0
 1092 452.333333333 1095.83333333 435 1103.5 419 c 128
 1111.16666667 403 1121.33333333 389.333333333 1134 378 c 128
 1146.66666667 366.666666667 1161.5 357.666666667 1178.5 351 c 128
 1195.5 344.333333333 1213.33333333 341 1232 341 c 0
 1256 341 1276.5 345.5 1293.5 354.5 c 128
 1310.5 363.5 1324.5 375 1335.5 389 c 128
 1346.5 403 1354.5 418.666666667 1359.5 436 c 128
 1364.5 453.333333333 1367 470 1367 486 c 0
 1367 514.666666667 1362 539 1352 559 c 128
 1342 579 1328.5 596 1311.5 610 c 128
 1294.5 624 1274.33333333 635.333333333 1251 644 c 128
 1227.66666667 652.666666667 1203 660 1177 666 c 1
EndSplineSet
EndChar

StartChar: u11D67
Encoding: 73 73063 73
Width: 1602
GlyphClass: 2
Flags: HW
LayerCount: 3
Fore
SplineSet
-39 1320 m 1
 1296 1320 l 1
 1282.66666667 1362 1250.66666667 1392 1200 1410 c 128
 1149.33333333 1428 1080 1437 992 1437 c 0
 908 1437 836.666666667 1444.33333333 778 1459 c 128
 719.333333333 1473.66666667 671.666666667 1493.5 635 1518.5 c 128
 598.333333333 1543.5 571.666666667 1572.66666667 555 1606 c 128
 538.333333333 1639.33333333 530 1674.33333333 530 1711 c 0
 530 1739.66666667 535.5 1766 546.5 1790 c 128
 557.5 1814 572.166666667 1834.66666667 590.5 1852 c 128
 608.833333333 1869.33333333 630.166666667 1882.83333333 654.5 1892.5 c 128
 678.833333333 1902.16666667 704.333333333 1907 731 1907 c 0
 758.333333333 1907 784.333333333 1902.33333333 809 1893 c 128
 833.666666667 1883.66666667 855.5 1870.16666667 874.5 1852.5 c 128
 893.5 1834.83333333 908.5 1813.83333333 919.5 1789.5 c 128
 930.5 1765.16666667 936 1738 936 1708 c 0
 936 1684.66666667 930.833333333 1660.16666667 920.5 1634.5 c 128
 910.166666667 1608.83333333 894.333333333 1585.33333333 873 1564 c 1
 890.333333333 1562 909 1560.66666667 929 1560 c 128
 949 1559.33333333 970.666666667 1559 994 1559 c 0
 1064.66666667 1559 1124.66666667 1553.33333333 1174 1542 c 128
 1223.33333333 1530.66666667 1264.5 1514.5 1297.5 1493.5 c 128
 1330.5 1472.5 1356.66666667 1447.33333333 1376 1418 c 128
 1395.33333333 1388.66666667 1410.33333333 1356 1421 1320 c 1
 1617 1320 l 1
 1617 1226 l 1
 1445 1226 l 1
 1450 331 l 2
 1450 281 1441.83333333 235.666666667 1425.5 195 c 128
 1409.16666667 154.333333333 1386.33333333 119.5 1357 90.5 c 128
 1327.66666667 61.5 1292.83333333 39.1666666667 1252.5 23.5 c 128
 1212.16666667 7.83333333333 1167.66666667 0 1119 0 c 0
 1085.66666667 0 1053.33333333 3.16666666667 1022 9.5 c 128
 990.666666667 15.8333333333 961.333333333 25.3333333333 934 38 c 128
 906.666666667 50.6666666667 882 66.5 860 85.5 c 128
 838 104.5 819.666666667 126.666666667 805 152 c 1
 769 104 723.166666667 66.6666666667 667.5 40 c 128
 611.833333333 13.3333333333 549.666666667 0 481 0 c 0
 427.666666667 0 378.666666667 9.83333333333 334 29.5 c 128
 289.333333333 49.1666666667 250.833333333 75.8333333333 218.5 109.5 c 128
 186.166666667 143.166666667 161 182.833333333 143 228.5 c 128
 125 274.166666667 116 323 116 375 c 0
 116 418.333333333 122.166666667 460 134.5 500 c 128
 146.833333333 540 165.166666667 575.166666667 189.5 605.5 c 128
 213.833333333 635.833333333 244.166666667 660.166666667 280.5 678.5 c 128
 316.833333333 696.833333333 359.333333333 706 408 706 c 0
 460 706 507 695 549 673 c 128
 591 651 629 618.666666667 663 576 c 1
 547 491 l 1
 528.333333333 517 507.5 535.833333333 484.5 547.5 c 128
 461.5 559.166666667 436 565 408 565 c 0
 382.666666667 565 360.5 559.5 341.5 548.5 c 128
 322.5 537.5 306.833333333 523 294.5 505 c 128
 282.166666667 487 273 466.666666667 267 444 c 128
 261 421.333333333 258 398.333333333 258 375 c 0
 258 343 263.166666667 312.666666667 273.5 284 c 128
 283.833333333 255.333333333 298.666666667 230.5 318 209.5 c 128
 337.333333333 188.5 360.833333333 171.833333333 388.5 159.5 c 128
 416.166666667 147.166666667 447 141 481 141 c 0
 537 141 583.166666667 152.166666667 619.5 174.5 c 128
 655.833333333 196.833333333 684.833333333 225.5 706.5 260.5 c 128
 728.166666667 295.5 743.666666667 334.666666667 753 378 c 128
 762.333333333 421.333333333 767.666666667 464 769 506 c 2
 769 730 l 1
 910 730 l 1
 910 297 l 2
 910 269 916 245.166666667 928 225.5 c 128
 940 205.833333333 955.666666667 189.833333333 975 177.5 c 128
 994.333333333 165.166666667 1016.66666667 156 1042 150 c 128
 1067.33333333 144 1093 141 1119 141 c 0
 1147 141 1172.66666667 145.333333333 1196 154 c 128
 1219.33333333 162.666666667 1239.33333333 175.166666667 1256 191.5 c 128
 1272.66666667 207.833333333 1285.66666667 227.833333333 1295 251.5 c 128
 1304.33333333 275.166666667 1309 301.666666667 1309 331 c 0
 1308.33333333 479 1307.5 628 1306.5 778 c 128
 1305.5 928 1304.66666667 1077.33333333 1304 1226 c 1
 -39 1226 l 1
 -39 1320 l 1
812 1708 m 0
 812 1733.33333333 804.166666667 1753.33333333 788.5 1768 c 128
 772.833333333 1782.66666667 754.333333333 1790 733 1790 c 0
 721 1790 710.166666667 1787.5 700.5 1782.5 c 128
 690.833333333 1777.5 682.5 1771.16666667 675.5 1763.5 c 128
 668.5 1755.83333333 663.166666667 1747.16666667 659.5 1737.5 c 128
 655.833333333 1727.83333333 654 1718 654 1708 c 0
 654 1682 661.333333333 1659.16666667 676 1639.5 c 128
 690.666666667 1619.83333333 715 1603.33333333 749 1590 c 1
 771 1610.66666667 787 1630.66666667 797 1650 c 128
 807 1669.33333333 812 1688.66666667 812 1708 c 0
EndSplineSet
EndChar

StartChar: u11D68
Encoding: 74 73064 74
Width: 1602
GlyphClass: 2
Flags: HW
LayerCount: 3
Fore
SplineSet
-39 1320 m 1
 1296 1320 l 1
 1283.33333333 1362.66666667 1256.83333333 1393.83333333 1216.5 1413.5 c 128
 1176.16666667 1433.16666667 1128 1443 1072 1443 c 0
 1038 1443 1005.83333333 1445.83333333 975.5 1451.5 c 128
 945.166666667 1457.16666667 917.333333333 1465.33333333 892 1476 c 1
 828.666666667 1456 755.333333333 1446 672 1446 c 0
 602 1446 539.833333333 1452.83333333 485.5 1466.5 c 128
 431.166666667 1480.16666667 385.333333333 1499 348 1523 c 128
 310.666666667 1547 282.333333333 1575.16666667 263 1607.5 c 128
 243.666666667 1639.83333333 234 1674.33333333 234 1711 c 0
 234 1739.66666667 239.333333333 1766 250 1790 c 128
 260.666666667 1814 275 1834.66666667 293 1852 c 128
 311 1869.33333333 331.833333333 1882.83333333 355.5 1892.5 c 128
 379.166666667 1902.16666667 404.333333333 1907 431 1907 c 0
 458.333333333 1907 484.166666667 1902.33333333 508.5 1893 c 128
 532.833333333 1883.66666667 554.166666667 1870.16666667 572.5 1852.5 c 128
 590.833333333 1834.83333333 605.333333333 1813.83333333 616 1789.5 c 128
 626.666666667 1765.16666667 632 1738 632 1708 c 0
 632 1684.66666667 627.666666667 1660.5 619 1635.5 c 128
 610.333333333 1610.5 595.333333333 1587 574 1565 c 1
 606 1561 639.333333333 1559 674 1559 c 0
 691.333333333 1559 707.833333333 1559.33333333 723.5 1560 c 128
 739.166666667 1560.66666667 754.333333333 1561.66666667 769 1563 c 1
 732.333333333 1605.66666667 714 1655 714 1711 c 0
 714 1739.66666667 719.333333333 1766 730 1790 c 128
 740.666666667 1814 755 1834.66666667 773 1852 c 128
 791 1869.33333333 811.833333333 1882.83333333 835.5 1892.5 c 128
 859.166666667 1902.16666667 884.333333333 1907 911 1907 c 0
 938.333333333 1907 964.166666667 1902.33333333 988.5 1893 c 128
 1012.83333333 1883.66666667 1034.16666667 1870.16666667 1052.5 1852.5 c 128
 1070.83333333 1834.83333333 1085.33333333 1813.83333333 1096 1789.5 c 128
 1106.66666667 1765.16666667 1112 1738 1112 1708 c 0
 1112 1678.66666667 1106.16666667 1651.66666667 1094.5 1627 c 128
 1082.83333333 1602.33333333 1066.33333333 1579.66666667 1045 1559 c 1
 1074 1559 l 2
 1122.66666667 1559 1166 1553.33333333 1204 1542 c 128
 1242 1530.66666667 1275.16666667 1514.5 1303.5 1493.5 c 128
 1331.83333333 1472.5 1355.66666667 1447.33333333 1375 1418 c 128
 1394.33333333 1388.66666667 1409.33333333 1356 1420 1320 c 1
 1617 1320 l 1
 1617 1226 l 1
 1445 1226 l 1
 1450 331 l 2
 1450 281 1441.83333333 235.666666667 1425.5 195 c 128
 1409.16666667 154.333333333 1386.33333333 119.5 1357 90.5 c 128
 1327.66666667 61.5 1292.83333333 39.1666666667 1252.5 23.5 c 128
 1212.16666667 7.83333333333 1167.66666667 0 1119 0 c 0
 1085.66666667 0 1053.33333333 3.16666666667 1022 9.5 c 128
 990.666666667 15.8333333333 961.333333333 25.3333333333 934 38 c 128
 906.666666667 50.6666666667 882 66.5 860 85.5 c 128
 838 104.5 819.666666667 126.666666667 805 152 c 1
 769 104 723.166666667 66.6666666667 667.5 40 c 128
 611.833333333 13.3333333333 549.666666667 0 481 0 c 0
 427.666666667 0 378.666666667 9.83333333333 334 29.5 c 128
 289.333333333 49.1666666667 250.833333333 75.8333333333 218.5 109.5 c 128
 186.166666667 143.166666667 161 182.833333333 143 228.5 c 128
 125 274.166666667 116 323 116 375 c 0
 116 418.333333333 122.166666667 460 134.5 500 c 128
 146.833333333 540 165.166666667 575.166666667 189.5 605.5 c 128
 213.833333333 635.833333333 244.166666667 660.166666667 280.5 678.5 c 128
 316.833333333 696.833333333 359.333333333 706 408 706 c 0
 460 706 507 695 549 673 c 128
 591 651 629 618.666666667 663 576 c 1
 547 491 l 1
 528.333333333 517 507.5 535.833333333 484.5 547.5 c 128
 461.5 559.166666667 436 565 408 565 c 0
 382.666666667 565 360.5 559.5 341.5 548.5 c 128
 322.5 537.5 306.833333333 523 294.5 505 c 128
 282.166666667 487 273 466.666666667 267 444 c 128
 261 421.333333333 258 398.333333333 258 375 c 0
 258 343 263.166666667 312.666666667 273.5 284 c 128
 283.833333333 255.333333333 298.666666667 230.5 318 209.5 c 128
 337.333333333 188.5 360.833333333 171.833333333 388.5 159.5 c 128
 416.166666667 147.166666667 447 141 481 141 c 0
 537 141 583.166666667 152.166666667 619.5 174.5 c 128
 655.833333333 196.833333333 684.833333333 225.5 706.5 260.5 c 128
 728.166666667 295.5 743.666666667 334.666666667 753 378 c 128
 762.333333333 421.333333333 767.666666667 464 769 506 c 2
 769 730 l 1
 910 730 l 1
 910 297 l 2
 910 269 916 245.166666667 928 225.5 c 128
 940 205.833333333 955.666666667 189.833333333 975 177.5 c 128
 994.333333333 165.166666667 1016.66666667 156 1042 150 c 128
 1067.33333333 144 1093 141 1119 141 c 0
 1147 141 1172.66666667 145.333333333 1196 154 c 128
 1219.33333333 162.666666667 1239.33333333 175.166666667 1256 191.5 c 128
 1272.66666667 207.833333333 1285.66666667 227.833333333 1295 251.5 c 128
 1304.33333333 275.166666667 1309 301.666666667 1309 331 c 0
 1308.33333333 479 1307.5 628 1306.5 778 c 128
 1305.5 928 1304.66666667 1077.33333333 1304 1226 c 1
 -39 1226 l 1
 -39 1320 l 1
992 1708 m 0
 992 1733.33333333 984.166666667 1753.33333333 968.5 1768 c 128
 952.833333333 1782.66666667 934.333333333 1790 913 1790 c 0
 901 1790 890.166666667 1787.5 880.5 1782.5 c 128
 870.833333333 1777.5 862.5 1771.16666667 855.5 1763.5 c 128
 848.5 1755.83333333 843.166666667 1747.16666667 839.5 1737.5 c 128
 835.833333333 1727.83333333 834 1718 834 1708 c 0
 834 1682.66666667 839.333333333 1660.33333333 850 1641 c 128
 860.666666667 1621.66666667 877.666666667 1605.33333333 901 1592 c 1
 933 1605.33333333 956.166666667 1621.83333333 970.5 1641.5 c 128
 984.833333333 1661.16666667 992 1683.33333333 992 1708 c 0
512 1708 m 0
 512 1733.33333333 504.166666667 1753.33333333 488.5 1768 c 128
 472.833333333 1782.66666667 454.333333333 1790 433 1790 c 0
 421 1790 410.166666667 1787.5 400.5 1782.5 c 128
 390.833333333 1777.5 382.5 1771.16666667 375.5 1763.5 c 128
 368.5 1755.83333333 363.166666667 1747.16666667 359.5 1737.5 c 128
 355.833333333 1727.83333333 354 1718 354 1708 c 0
 354 1684 363.166666667 1662.83333333 381.5 1644.5 c 128
 399.833333333 1626.16666667 424.666666667 1610.33333333 456 1597 c 1
 475.333333333 1616.33333333 489.5 1635.16666667 498.5 1653.5 c 128
 507.5 1671.83333333 512 1690 512 1708 c 0
EndSplineSet
EndChar

StartChar: u11D6A
Encoding: 75 73066 75
Width: 2148
GlyphClass: 2
Flags: HW
LayerCount: 3
Fore
SplineSet
-39 1320 m 1
 1370 1320 l 1
 1360.66666667 1342.66666667 1346.5 1361.5 1327.5 1376.5 c 128
 1308.5 1391.5 1287.33333333 1403.5 1264 1412.5 c 128
 1240.66666667 1421.5 1216.5 1428 1191.5 1432 c 128
 1166.5 1436 1143.33333333 1438.83333333 1122 1440.5 c 128
 1100.66666667 1442.16666667 1082.5 1442.83333333 1067.5 1442.5 c 128
 1052.5 1442.16666667 1043.33333333 1442 1040 1442 c 0
 1018 1442 992.333333333 1443 963 1445 c 128
 933.666666667 1447 903.333333333 1451 872 1457 c 128
 840.666666667 1463 809.833333333 1471.5 779.5 1482.5 c 128
 749.166666667 1493.5 722 1508 698 1526 c 128
 674 1544 654.666666667 1566.16666667 640 1592.5 c 128
 625.333333333 1618.83333333 618 1650 618 1686 c 0
 618 1709.33333333 622.666666667 1730.33333333 632 1749 c 128
 641.333333333 1767.66666667 653.666666667 1783.66666667 669 1797 c 128
 684.333333333 1810.33333333 701.833333333 1820.5 721.5 1827.5 c 128
 741.166666667 1834.5 761.333333333 1838 782 1838 c 0
 805.333333333 1838 827 1833.83333333 847 1825.5 c 128
 867 1817.16666667 884.333333333 1805.66666667 899 1791 c 128
 913.666666667 1776.33333333 925.166666667 1759 933.5 1739 c 128
 941.833333333 1719 946 1697.33333333 946 1674 c 0
 946 1646 940.666666667 1623.33333333 930 1606 c 128
 919.333333333 1588.66666667 905.333333333 1571.33333333 888 1554 c 1
 902.666666667 1550 921.166666667 1546.83333333 943.5 1544.5 c 128
 965.833333333 1542.16666667 989.166666667 1540.16666667 1013.5 1538.5 c 128
 1037.83333333 1536.83333333 1061.66666667 1535.66666667 1085 1535 c 128
 1108.33333333 1534.33333333 1128.66666667 1533.66666667 1146 1533 c 0
 1183.33333333 1531 1221.16666667 1525.5 1259.5 1516.5 c 128
 1297.83333333 1507.5 1333.16666667 1494.33333333 1365.5 1477 c 128
 1397.83333333 1459.66666667 1425.83333333 1438 1449.5 1412 c 128
 1473.16666667 1386 1489.33333333 1355.33333333 1498 1320 c 1
 2173 1320 l 1
 2173 1226 l 1
 1478 1226 l 1
 1478 980 l 1
 1508.66666667 993.333333333 1542 1003.33333333 1578 1010 c 128
 1614 1016.66666667 1652 1020 1692 1020 c 0
 1739.33333333 1020 1783.66666667 1011 1825 993 c 128
 1866.33333333 975 1902.33333333 950.5 1933 919.5 c 128
 1963.66666667 888.5 1987.83333333 852.333333333 2005.5 811 c 128
 2023.16666667 769.666666667 2032 725.666666667 2032 679 c 0
 2032 635.666666667 2023.83333333 595.166666667 2007.5 557.5 c 128
 1991.16666667 519.833333333 1969 487.166666667 1941 459.5 c 128
 1913 431.833333333 1880.33333333 410 1843 394 c 128
 1805.66666667 378 1766 370 1724 370 c 0
 1678 370 1636.16666667 377.5 1598.5 392.5 c 128
 1560.83333333 407.5 1527.5 427.833333333 1498.5 453.5 c 128
 1469.5 479.166666667 1444.5 509 1423.5 543 c 128
 1402.5 577 1385.66666667 612.666666667 1373 650 c 1
 1368.33333333 632 1364.83333333 613.166666667 1362.5 593.5 c 128
 1360.16666667 573.833333333 1359 553 1359 531 c 0
 1359 513.666666667 1359.66666667 496.333333333 1361 479 c 128
 1362.33333333 461.666666667 1363 444.333333333 1363 427 c 0
 1363 371.666666667 1357.5 319 1346.5 269 c 128
 1335.5 219 1317.83333333 174.5 1293.5 135.5 c 128
 1269.16666667 96.5 1237.83333333 64.8333333333 1199.5 40.5 c 128
 1161.16666667 16.1666666667 1114.66666667 2.66666666667 1060 0 c 1
 1059 0 l 2
 1057 0 1055 -0.166666666667 1053 -0.5 c 128
 1051 -0.833333333333 1049.33333333 -1 1048 -1 c 2
 1039 -1 l 2
 976.333333333 -1 921.5 12.3333333333 874.5 39 c 128
 827.5 65.6666666667 790.666666667 103.333333333 764 152 c 1
 728 104 682.333333333 66.6666666667 627 40 c 128
 571.666666667 13.3333333333 509.666666667 0 441 0 c 0
 387.666666667 0 338.666666667 9.83333333333 294 29.5 c 128
 249.333333333 49.1666666667 210.833333333 75.8333333333 178.5 109.5 c 128
 146.166666667 143.166666667 121 182.833333333 103 228.5 c 128
 85 274.166666667 76 323 76 375 c 0
 76 418.333333333 82 460 94 500 c 128
 106 540 124.166666667 575.166666667 148.5 605.5 c 128
 172.833333333 635.833333333 203.166666667 660.166666667 239.5 678.5 c 128
 275.833333333 696.833333333 318.666666667 706 368 706 c 0
 420 706 466.833333333 695 508.5 673 c 128
 550.166666667 651 588 618.666666667 622 576 c 1
 506 491 l 1
 487.333333333 517 466.666666667 535.833333333 444 547.5 c 128
 421.333333333 559.166666667 396 565 368 565 c 0
 342.666666667 565 320.5 559.5 301.5 548.5 c 128
 282.5 537.5 266.666666667 523 254 505 c 128
 241.333333333 487 232 466.666666667 226 444 c 128
 220 421.333333333 217 398.333333333 217 375 c 0
 217 343 222.166666667 312.666666667 232.5 284 c 128
 242.833333333 255.333333333 257.833333333 230.5 277.5 209.5 c 128
 297.166666667 188.5 320.833333333 171.833333333 348.5 159.5 c 128
 376.166666667 147.166666667 407 141 441 141 c 0
 497 141 543.166666667 152.166666667 579.5 174.5 c 128
 615.833333333 196.833333333 644.833333333 225.5 666.5 260.5 c 128
 688.166666667 295.5 703.5 334.666666667 712.5 378 c 128
 721.5 421.333333333 726.666666667 464 728 506 c 2
 728 730 l 1
 869 730 l 1
 869 297 l 2
 869 271.666666667 873.166666667 249.166666667 881.5 229.5 c 128
 889.833333333 209.833333333 901.333333333 193.333333333 916 180 c 128
 930.666666667 166.666666667 947.833333333 156.5 967.5 149.5 c 128
 987.166666667 142.5 1008.66666667 139 1032 139 c 0
 1072 139 1104.5 146.666666667 1129.5 162 c 128
 1154.5 177.333333333 1174 198 1188 224 c 128
 1202 250 1211.5 280 1216.5 314 c 128
 1221.5 348 1224 383.666666667 1224 421 c 0
 1224 444.333333333 1223.16666667 468 1221.5 492 c 128
 1219.83333333 516 1219 539.666666667 1219 563 c 0
 1219 629.666666667 1229.5 689.166666667 1250.5 741.5 c 128
 1271.5 793.833333333 1300 840 1336 880 c 1
 1336 1226 l 1
 -39 1226 l 1
 -39 1320 l 1
1692 879 m 0
 1646 879 1605.83333333 874 1571.5 864 c 128
 1537.16666667 854 1507.33333333 840.333333333 1482 823 c 1
 1485.33333333 787 1492.16666667 750.666666667 1502.5 714 c 128
 1512.83333333 677.333333333 1527.5 644 1546.5 614 c 128
 1565.5 584 1589.33333333 559.5 1618 540.5 c 128
 1646.66666667 521.5 1681.33333333 512 1722 512 c 0
 1744.66666667 512 1766 516.333333333 1786 525 c 128
 1806 533.666666667 1823.5 545.5 1838.5 560.5 c 128
 1853.5 575.5 1865.16666667 593.166666667 1873.5 613.5 c 128
 1881.83333333 633.833333333 1886 655.666666667 1886 679 c 0
 1886 707 1881 733.166666667 1871 757.5 c 128
 1861 781.833333333 1847.33333333 803 1830 821 c 128
 1812.66666667 839 1792.16666667 853.166666667 1768.5 863.5 c 128
 1744.83333333 873.833333333 1719.33333333 879 1692 879 c 0
736 1683 m 0
 736 1675 736.833333333 1666.66666667 738.5 1658 c 128
 740.166666667 1649.33333333 743.166666667 1641 747.5 1633 c 128
 751.833333333 1625 757.666666667 1617.66666667 765 1611 c 128
 772.333333333 1604.33333333 782 1599 794 1595 c 1
 810 1599.66666667 823.333333333 1608.5 834 1621.5 c 128
 844.666666667 1634.5 850 1655 850 1683 c 0
 850 1697.66666667 843.833333333 1710 831.5 1720 c 128
 819.166666667 1730 805.666666667 1735 791 1735 c 256
 776.333333333 1735 763.5 1730 752.5 1720 c 128
 741.5 1710 736 1697.66666667 736 1683 c 0
EndSplineSet
EndChar

StartChar: u11D6B
Encoding: 76 73067 76
Width: 2148
GlyphClass: 2
Flags: HW
LayerCount: 3
Fore
SplineSet
-1 1320 m 1
 1369 1320 l 1
 1364 1334 l 2
 1350.66666667 1366.66666667 1333.16666667 1392.33333333 1311.5 1411 c 128
 1289.83333333 1429.66666667 1265.83333333 1444 1239.5 1454 c 128
 1213.16666667 1464 1185.66666667 1470.83333333 1157 1474.5 c 128
 1128.33333333 1478.16666667 1100.16666667 1481.5 1072.5 1484.5 c 128
 1044.83333333 1487.5 1018.66666667 1491.5 994 1496.5 c 128
 969.333333333 1501.5 948.333333333 1510 931 1522 c 1
 895 1504 857.333333333 1489.66666667 818 1479 c 128
 778.666666667 1468.33333333 738 1463 696 1463 c 0
 650.666666667 1463 608 1469.83333333 568 1483.5 c 128
 528 1497.16666667 493 1515.66666667 463 1539 c 128
 433 1562.33333333 409.166666667 1589.66666667 391.5 1621 c 128
 373.833333333 1652.33333333 365 1685.66666667 365 1721 c 0
 365 1744.33333333 369.166666667 1766 377.5 1786 c 128
 385.833333333 1806 397.5 1823.33333333 412.5 1838 c 128
 427.5 1852.66666667 445.166666667 1864.16666667 465.5 1872.5 c 128
 485.833333333 1880.83333333 508 1885 532 1885 c 0
 555.333333333 1885 576.5 1880.83333333 595.5 1872.5 c 128
 614.5 1864.16666667 630.666666667 1852.66666667 644 1838 c 128
 657.333333333 1823.33333333 667.5 1806 674.5 1786 c 128
 681.5 1766 685 1744.33333333 685 1721 c 0
 685 1697 679 1672.5 667 1647.5 c 128
 655 1622.5 637.333333333 1604 614 1592 c 1
 631.333333333 1586 646.5 1581 659.5 1577 c 128
 672.5 1573 684.666666667 1571 696 1571 c 0
 719.333333333 1571 741.833333333 1572.33333333 763.5 1575 c 128
 785.166666667 1577.66666667 807.666666667 1584.33333333 831 1595 c 1
 816.333333333 1617 805.333333333 1637.16666667 798 1655.5 c 128
 790.666666667 1673.83333333 787 1695.66666667 787 1721 c 0
 787 1744.33333333 791.166666667 1766 799.5 1786 c 128
 807.833333333 1806 819.5 1823.33333333 834.5 1838 c 128
 849.5 1852.66666667 867.166666667 1864.16666667 887.5 1872.5 c 128
 907.833333333 1880.83333333 930 1885 954 1885 c 0
 977.333333333 1885 998.5 1880.83333333 1017.5 1872.5 c 128
 1036.5 1864.16666667 1052.66666667 1852.66666667 1066 1838 c 128
 1079.33333333 1823.33333333 1089.5 1806 1096.5 1786 c 128
 1103.5 1766 1107 1744.33333333 1107 1721 c 256
 1107 1697.66666667 1101.5 1674.66666667 1090.5 1652 c 128
 1079.5 1629.33333333 1065.33333333 1609.33333333 1048 1592 c 1
 1078 1592 1114.16666667 1588 1156.5 1580 c 128
 1198.83333333 1572 1241 1559 1283 1541 c 128
 1325 1523 1363.16666667 1499.83333333 1397.5 1471.5 c 128
 1431.83333333 1443.16666667 1456 1409 1470 1369 c 2
 1489 1320 l 1
 2208 1320 l 1
 2208 1227 l 1
 1478 1227 l 1
 1478 980 l 1
 1508.66666667 993.333333333 1542 1003.33333333 1578 1010 c 128
 1614 1016.66666667 1652 1020 1692 1020 c 0
 1739.33333333 1020 1783.66666667 1011 1825 993 c 128
 1866.33333333 975 1902.33333333 950.5 1933 919.5 c 128
 1963.66666667 888.5 1987.83333333 852.333333333 2005.5 811 c 128
 2023.16666667 769.666666667 2032 725.666666667 2032 679 c 0
 2032 635.666666667 2023.83333333 595.166666667 2007.5 557.5 c 128
 1991.16666667 519.833333333 1969 487.166666667 1941 459.5 c 128
 1913 431.833333333 1880.33333333 410 1843 394 c 128
 1805.66666667 378 1766 370 1724 370 c 0
 1678 370 1636.16666667 377.5 1598.5 392.5 c 128
 1560.83333333 407.5 1527.5 427.833333333 1498.5 453.5 c 128
 1469.5 479.166666667 1444.5 509 1423.5 543 c 128
 1402.5 577 1385.66666667 612.666666667 1373 650 c 1
 1368.33333333 632 1364.83333333 613.166666667 1362.5 593.5 c 128
 1360.16666667 573.833333333 1359 553 1359 531 c 0
 1359 513.666666667 1359.66666667 496.333333333 1361 479 c 128
 1362.33333333 461.666666667 1363 444.333333333 1363 427 c 0
 1363 371.666666667 1357.5 319 1346.5 269 c 128
 1335.5 219 1317.83333333 174.5 1293.5 135.5 c 128
 1269.16666667 96.5 1237.83333333 64.8333333333 1199.5 40.5 c 128
 1161.16666667 16.1666666667 1114.66666667 2.66666666667 1060 0 c 1
 1059 0 l 2
 1057 0 1055 -0.166666666667 1053 -0.5 c 128
 1051 -0.833333333333 1049.33333333 -1 1048 -1 c 2
 1039 -1 l 2
 976.333333333 -1 921.5 12.3333333333 874.5 39 c 128
 827.5 65.6666666667 790.666666667 103.333333333 764 152 c 1
 728 104 682.333333333 66.6666666667 627 40 c 128
 571.666666667 13.3333333333 509.666666667 0 441 0 c 0
 387.666666667 0 338.666666667 9.83333333333 294 29.5 c 128
 249.333333333 49.1666666667 210.833333333 75.8333333333 178.5 109.5 c 128
 146.166666667 143.166666667 121 182.833333333 103 228.5 c 128
 85 274.166666667 76 323 76 375 c 0
 76 418.333333333 82 460 94 500 c 128
 106 540 124.166666667 575.166666667 148.5 605.5 c 128
 172.833333333 635.833333333 203.166666667 660.166666667 239.5 678.5 c 128
 275.833333333 696.833333333 318.666666667 706 368 706 c 0
 420 706 466.833333333 695 508.5 673 c 128
 550.166666667 651 588 618.666666667 622 576 c 1
 506 491 l 1
 487.333333333 517 466.666666667 535.833333333 444 547.5 c 128
 421.333333333 559.166666667 396 565 368 565 c 0
 342.666666667 565 320.5 559.5 301.5 548.5 c 128
 282.5 537.5 266.666666667 523 254 505 c 128
 241.333333333 487 232 466.666666667 226 444 c 128
 220 421.333333333 217 398.333333333 217 375 c 0
 217 343 222.166666667 312.666666667 232.5 284 c 128
 242.833333333 255.333333333 257.833333333 230.5 277.5 209.5 c 128
 297.166666667 188.5 320.833333333 171.833333333 348.5 159.5 c 128
 376.166666667 147.166666667 407 141 441 141 c 0
 497 141 543.166666667 152.166666667 579.5 174.5 c 128
 615.833333333 196.833333333 644.833333333 225.5 666.5 260.5 c 128
 688.166666667 295.5 703.5 334.666666667 712.5 378 c 128
 721.5 421.333333333 726.666666667 464 728 506 c 2
 728 730 l 1
 869 730 l 1
 869 297 l 2
 869 271.666666667 873.166666667 249.166666667 881.5 229.5 c 128
 889.833333333 209.833333333 901.333333333 193.333333333 916 180 c 128
 930.666666667 166.666666667 947.833333333 156.5 967.5 149.5 c 128
 987.166666667 142.5 1008.66666667 139 1032 139 c 0
 1072 139 1104.5 146.666666667 1129.5 162 c 128
 1154.5 177.333333333 1174 198 1188 224 c 128
 1202 250 1211.5 280 1216.5 314 c 128
 1221.5 348 1224 383.666666667 1224 421 c 0
 1224 444.333333333 1223.16666667 468 1221.5 492 c 128
 1219.83333333 516 1219 539.666666667 1219 563 c 0
 1219 629.666666667 1229.5 689.166666667 1250.5 741.5 c 128
 1271.5 793.833333333 1300 840 1336 880 c 1
 1336 1227 l 1
 -1 1227 l 1
 -1 1320 l 1
1692 879 m 0
 1646 879 1605.83333333 874 1571.5 864 c 128
 1537.16666667 854 1507.33333333 840.333333333 1482 823 c 1
 1485.33333333 787 1492.16666667 750.666666667 1502.5 714 c 128
 1512.83333333 677.333333333 1527.5 644 1546.5 614 c 128
 1565.5 584 1589.33333333 559.5 1618 540.5 c 128
 1646.66666667 521.5 1681.33333333 512 1722 512 c 0
 1744.66666667 512 1766 516.333333333 1786 525 c 128
 1806 533.666666667 1823.5 545.5 1838.5 560.5 c 128
 1853.5 575.5 1865.16666667 593.166666667 1873.5 613.5 c 128
 1881.83333333 633.833333333 1886 655.666666667 1886 679 c 0
 1886 707 1881 733.166666667 1871 757.5 c 128
 1861 781.833333333 1847.33333333 803 1830 821 c 128
 1812.66666667 839 1792.16666667 853.166666667 1768.5 863.5 c 128
 1744.83333333 873.833333333 1719.33333333 879 1692 879 c 0
521 1642 m 1
 529.666666667 1642.66666667 537.666666667 1645.33333333 545 1650 c 128
 552.333333333 1654.66666667 558.5 1660.66666667 563.5 1668 c 128
 568.5 1675.33333333 572.333333333 1683.66666667 575 1693 c 128
 577.666666667 1702.33333333 579 1711.66666667 579 1721 c 0
 579 1737 573.5 1750.16666667 562.5 1760.5 c 128
 551.5 1770.83333333 538.333333333 1776 523 1776 c 0
 505.666666667 1776 492.666666667 1769.66666667 484 1757 c 128
 475.333333333 1744.33333333 471 1729.33333333 471 1712 c 0
 471 1700.66666667 475.5 1687.5 484.5 1672.5 c 128
 493.5 1657.5 505.666666667 1647.33333333 521 1642 c 1
931 1653 m 1
 945.666666667 1654.33333333 957.5 1658 966.5 1664 c 128
 975.5 1670 982.5 1676.83333333 987.5 1684.5 c 128
 992.5 1692.16666667 996 1699.5 998 1706.5 c 128
 1000 1713.5 1001 1718.33333333 1001 1721 c 0
 1001 1732.33333333 996.166666667 1743 986.5 1753 c 128
 976.833333333 1763 966 1768 954 1768 c 0
 936.666666667 1768 924 1762.5 916 1751.5 c 128
 908 1740.5 904 1726.33333333 904 1709 c 0
 904 1697.66666667 907 1687 913 1677 c 128
 919 1667 925 1659 931 1653 c 1
EndSplineSet
EndChar

StartChar: u11D97
Encoding: 77 73111 77
Width: 0
GlyphClass: 2
Flags: HW
LayerCount: 3
Fore
SplineSet
-277 -30 m 1
 91 -317 l 1
 8 -421 l 1
 -360 -134 l 1
 -277 -30 l 1
EndSplineSet
EndChar

StartChar: u11F0B
Encoding: 78 58123 78
Width: 1042
GlyphClass: 2
Flags: HW
LayerCount: 3
Fore
SplineSet
127 0 m 1
 127 1339 l 1
 906 1339 l 1
 906 0 l 1
 127 0 l 1
259 127 m 1
 779 127 l 1
 779 1211 l 1
 259 1211 l 1
 259 127 l 1
EndSplineSet
EndChar

StartChar: u11F0C
Encoding: 79 58124 79
Width: 1042
GlyphClass: 2
Flags: HW
LayerCount: 3
Fore
SplineSet
127 0 m 1
 127 1339 l 1
 906 1339 l 1
 906 0 l 1
 127 0 l 1
259 127 m 1
 779 127 l 1
 779 1211 l 1
 259 1211 l 1
 259 127 l 1
EndSplineSet
EndChar

StartChar: u11D71
Encoding: 80 73073 80
Width: 2171
GlyphClass: 2
Flags: HW
AnchorPoint: "M" 1959 1322 basechar 0
AnchorPoint: "L" 0 0 basechar 0
AnchorPoint: "U" 2169 0 basechar 0
LayerCount: 3
Fore
SplineSet
-39 1320 m 1
 888 1320 l 1
 858 1364 819 1399 771 1425 c 128
 723 1451 665.666666667 1464 599 1464 c 0
 577 1464 554.333333333 1461.83333333 531 1457.5 c 128
 507.666666667 1453.16666667 484.833333333 1446.83333333 462.5 1438.5 c 128
 440.166666667 1430.16666667 419.166666667 1420.16666667 399.5 1408.5 c 128
 379.833333333 1396.83333333 363 1383.66666667 349 1369 c 1
 239 1464 l 1
 259 1486.66666667 282.666666667 1506.83333333 310 1524.5 c 128
 337.333333333 1542.16666667 366.5 1557.33333333 397.5 1570 c 128
 428.5 1582.66666667 460.333333333 1592.33333333 493 1599 c 128
 525.666666667 1605.66666667 557.666666667 1609 589 1609 c 0
 645.666666667 1609 698.333333333 1602 747 1588 c 128
 795.666666667 1574 839.5 1554.33333333 878.5 1529 c 128
 917.5 1503.66666667 951.833333333 1473.16666667 981.5 1437.5 c 128
 1011.16666667 1401.83333333 1036 1362.66666667 1056 1320 c 1
 2217 1320 l 1
 2217 1226 l 1
 2034 1226 l 1
 2034 1188 2023.83333333 1153.33333333 2003.5 1122 c 128
 1983.16666667 1090.66666667 1956.66666667 1061.5 1924 1034.5 c 128
 1891.33333333 1007.5 1854.16666667 982.166666667 1812.5 958.5 c 128
 1770.83333333 934.833333333 1728.33333333 911.333333333 1685 888 c 1
 1739.66666667 841.333333333 1784 786.5 1818 723.5 c 128
 1852 660.5 1869 589 1869 509 c 0
 1869 463.666666667 1860.5 421 1843.5 381 c 128
 1826.5 341 1803.33333333 306 1774 276 c 128
 1744.66666667 246 1710.16666667 222.333333333 1670.5 205 c 128
 1630.83333333 187.666666667 1588.66666667 179 1544 179 c 0
 1489.33333333 179 1440.16666667 188.666666667 1396.5 208 c 128
 1352.83333333 227.333333333 1315.66666667 253.5 1285 286.5 c 128
 1254.33333333 319.5 1230.66666667 358.166666667 1214 402.5 c 128
 1197.33333333 446.833333333 1189 494 1189 544 c 0
 1189 582.666666667 1194.83333333 618.666666667 1206.5 652 c 128
 1218.16666667 685.333333333 1234 716 1254 744 c 128
 1274 772 1297.5 797.833333333 1324.5 821.5 c 128
 1351.5 845.166666667 1380.33333333 867.333333333 1411 888 c 1
 1318.33333333 922.666666667 1214.33333333 943 1099 949 c 1
 1086.33333333 896.333333333 1065.66666667 846.333333333 1037 799 c 128
 1008.33333333 751.666666667 974 711.666666667 934 679 c 1
 958.666666667 665 981.666666667 648.333333333 1003 629 c 128
 1024.33333333 609.666666667 1042.83333333 588 1058.5 564 c 128
 1074.16666667 540 1086.5 513.333333333 1095.5 484 c 128
 1104.5 454.666666667 1109 423 1109 389 c 0
 1109 331.666666667 1098.16666667 278.5 1076.5 229.5 c 128
 1054.83333333 180.5 1025.5 138.166666667 988.5 102.5 c 128
 951.5 66.8333333333 908 39 858 19 c 128
 808 -1 755 -11 699 -11 c 0
 617.666666667 -11 544.5 1.33333333333 479.5 26 c 128
 414.5 50.6666666667 359.166666667 84.8333333333 313.5 128.5 c 128
 267.833333333 172.166666667 232.166666667 223.5 206.5 282.5 c 128
 180.833333333 341.5 166.666666667 405.333333333 164 474 c 1
 164 554 175.333333333 625 198 687 c 128
 220.666666667 749 251.333333333 803.166666667 290 849.5 c 128
 328.666666667 895.833333333 374.166666667 934.833333333 426.5 966.5 c 128
 478.833333333 998.166666667 534.333333333 1023.83333333 593 1043.5 c 128
 651.666666667 1063.16666667 712.333333333 1077.33333333 775 1086 c 128
 837.666666667 1094.66666667 899 1099 959 1099 c 1
 957 1121.66666667 954 1143.5 950 1164.5 c 128
 946 1185.5 940.333333333 1206 933 1226 c 1
 -39 1226 l 1
 -39 1320 l 1
944 949 m 1
 893.333333333 948.333333333 842.333333333 944.666666667 791 938 c 128
 739.666666667 931.333333333 690.5 920.5 643.5 905.5 c 128
 596.5 890.5 552.666666667 871.166666667 512 847.5 c 128
 471.333333333 823.833333333 436 794.666666667 406 760 c 128
 376 725.333333333 352.333333333 684.833333333 335 638.5 c 128
 317.666666667 592.166666667 309 539 309 479 c 1
 311.666666667 429 322.5 382.833333333 341.5 340.5 c 128
 360.5 298.166666667 386.666666667 261.833333333 420 231.5 c 128
 453.333333333 201.166666667 493.5 177.333333333 540.5 160 c 128
 587.5 142.666666667 640.333333333 134 699 134 c 0
 735 134 769.166666667 140.166666667 801.5 152.5 c 128
 833.833333333 164.833333333 862 182.333333333 886 205 c 128
 910 227.666666667 929 254.666666667 943 286 c 128
 957 317.333333333 964 351.666666667 964 389 c 0
 964 425 955.833333333 456.333333333 939.5 483 c 128
 923.166666667 509.666666667 902.166666667 531.666666667 876.5 549 c 128
 850.833333333 566.333333333 822.333333333 579.166666667 791 587.5 c 128
 759.666666667 595.833333333 729 600 699 600 c 1
 700 718 l 1
 731.333333333 720.666666667 760 729 786 743 c 128
 812 757 835.166666667 774.666666667 855.5 796 c 128
 875.833333333 817.333333333 893.5 841.333333333 908.5 868 c 128
 923.5 894.666666667 935.333333333 921.666666667 944 949 c 1
1334 544 m 0
 1334 512.666666667 1338.66666667 483.666666667 1348 457 c 128
 1357.33333333 430.333333333 1370.66666667 407.166666667 1388 387.5 c 128
 1405.33333333 367.833333333 1426.83333333 352.333333333 1452.5 341 c 128
 1478.16666667 329.666666667 1507 324 1539 324 c 0
 1563.66666667 324 1587 328.833333333 1609 338.5 c 128
 1631 348.166666667 1650.16666667 361.5 1666.5 378.5 c 128
 1682.83333333 395.5 1695.66666667 416 1705 440 c 128
 1714.33333333 464 1719 490.333333333 1719 519 c 0
 1719 580.333333333 1704.16666667 635.666666667 1674.5 685 c 128
 1644.83333333 734.333333333 1604 777.333333333 1552 814 c 1
 1522 796 1493.66666667 777.166666667 1467 757.5 c 128
 1440.33333333 737.833333333 1417.16666667 717 1397.5 695 c 128
 1377.83333333 673 1362.33333333 649.5 1351 624.5 c 128
 1339.66666667 599.5 1334 572.666666667 1334 544 c 0
1109 1099 m 1
 1141.66666667 1099 1176.66666667 1096.33333333 1214 1091 c 128
 1251.33333333 1085.66666667 1289.66666667 1077.83333333 1329 1067.5 c 128
 1368.33333333 1057.16666667 1407.66666667 1044.16666667 1447 1028.5 c 128
 1486.33333333 1012.83333333 1524.66666667 994.666666667 1562 974 c 1
 1602.66666667 995.333333333 1642.33333333 1015.66666667 1681 1035 c 128
 1719.66666667 1054.33333333 1753.83333333 1074 1783.5 1094 c 128
 1813.16666667 1114 1837.16666667 1134.66666667 1855.5 1156 c 128
 1873.83333333 1177.33333333 1883 1200.66666667 1883 1226 c 1
 1089 1226 l 1
 1094.33333333 1205.33333333 1098.66666667 1184.5 1102 1163.5 c 128
 1105.33333333 1142.5 1107.66666667 1121 1109 1099 c 1
EndSplineSet
EndChar

StartChar: u11D72
Encoding: 81 73074 81
Width: 1999
GlyphClass: 2
Flags: HW
AnchorPoint: "M" 1789 1318 basechar 0
AnchorPoint: "L" 0 0 basechar 0
AnchorPoint: "U" 2007 0 basechar 0
LayerCount: 3
Fore
SplineSet
1202 752 m 1
 1232 778 1264.83333333 804.333333333 1300.5 831 c 128
 1336.16666667 857.666666667 1372.16666667 884.5 1408.5 911.5 c 128
 1444.83333333 938.5 1480.33333333 965.5 1515 992.5 c 128
 1549.66666667 1019.5 1581 1046.16666667 1609 1072.5 c 128
 1637 1098.83333333 1660.5 1124.83333333 1679.5 1150.5 c 128
 1698.5 1176.16666667 1710.33333333 1201.33333333 1715 1226 c 1
 -18 1226 l 1
 -18 1320 l 1
 2034 1320 l 1
 2034 1226 l 1
 1861 1226 l 1
 1859 1195.33333333 1850.66666667 1165.16666667 1836 1135.5 c 128
 1821.33333333 1105.83333333 1801.83333333 1076.66666667 1777.5 1048 c 128
 1753.16666667 1019.33333333 1725.16666667 991.333333333 1693.5 964 c 128
 1661.83333333 936.666666667 1628.5 909.833333333 1593.5 883.5 c 128
 1558.5 857.166666667 1522.66666667 831.5 1486 806.5 c 128
 1449.33333333 781.5 1414 757 1380 733 c 1
 1427.33333333 723 1471.66666667 708.166666667 1513 688.5 c 128
 1554.33333333 668.833333333 1590.5 643.666666667 1621.5 613 c 128
 1652.5 582.333333333 1677 545.333333333 1695 502 c 128
 1713 458.666666667 1722 408.666666667 1722 352 c 0
 1722 307.333333333 1714.66666667 265 1700 225 c 128
 1685.33333333 185 1664.83333333 150 1638.5 120 c 128
 1612.16666667 90 1580.16666667 66.1666666667 1542.5 48.5 c 128
 1504.83333333 30.8333333333 1463 22 1417 22 c 0
 1363.66666667 22 1316.33333333 31.3333333333 1275 50 c 128
 1233.66666667 68.6666666667 1199 94.3333333333 1171 127 c 128
 1143 159.666666667 1121.83333333 198.5 1107.5 243.5 c 128
 1093.16666667 288.5 1086 337.666666667 1086 391 c 0
 1086 429 1089.16666667 465.166666667 1095.5 499.5 c 128
 1101.83333333 533.833333333 1110.66666667 566.333333333 1122 597 c 1
 1076 591.666666667 1032.83333333 583 992.5 571 c 128
 952.166666667 559 917 544.333333333 887 527 c 1
 882 536 l 1
 880.666666667 500.666666667 876.5 466.166666667 869.5 432.5 c 128
 862.5 398.833333333 853.333333333 365.333333333 842 332 c 1
 864.666666667 304.666666667 885.666666667 275.333333333 905 244 c 128
 924.333333333 212.666666667 942.5 180.333333333 959.5 147 c 128
 976.5 113.666666667 992.166666667 80 1006.5 46 c 128
 1020.83333333 12 1034.33333333 -21 1047 -53 c 1
 912 -103 l 1
 894.666666667 -57 873.666666667 -8.66666666667 849 42 c 128
 824.333333333 92.6666666667 797 141 767 187 c 1
 747.666666667 161 725.333333333 136.666666667 700 114 c 128
 674.666666667 91.3333333333 647.166666667 71.6666666667 617.5 55 c 128
 587.833333333 38.3333333333 556.5 25.3333333333 523.5 16 c 128
 490.5 6.66666666667 456.666666667 2 422 2 c 0
 381.333333333 2 341.333333333 8.5 302 21.5 c 128
 262.666666667 34.5 227.333333333 53 196 77 c 128
 164.666666667 101 139.333333333 130.333333333 120 165 c 128
 100.666666667 199.666666667 91 238.666666667 91 282 c 0
 91 330 100.5 371.5 119.5 406.5 c 128
 138.5 441.5 163.5 470.5 194.5 493.5 c 128
 225.5 516.5 260.833333333 533.666666667 300.5 545 c 128
 340.166666667 556.333333333 380.666666667 562 422 562 c 0
 482.666666667 562 537.833333333 552.666666667 587.5 534 c 128
 637.166666667 515.333333333 682 489.666666667 722 457 c 1
 727.333333333 472.333333333 730.333333333 488.166666667 731 504.5 c 128
 731.666666667 520.833333333 732 536.666666667 732 552 c 0
 732 595.333333333 725.5 640.5 712.5 687.5 c 128
 699.5 734.5 680.333333333 777.666666667 655 817 c 128
 629.666666667 856.333333333 598.666666667 888.666666667 562 914 c 128
 525.333333333 939.333333333 483.666666667 952 437 952 c 0
 418.333333333 952 399.5 950 380.5 946 c 128
 361.5 942 344.333333333 935.666666667 329 927 c 128
 313.666666667 918.333333333 301.166666667 907.5 291.5 894.5 c 128
 281.833333333 881.5 277 865.666666667 277 847 c 0
 277 821.666666667 286.5 802 305.5 788 c 128
 324.5 774 346.666666667 767 372 767 c 0
 380.666666667 767 390.333333333 768.333333333 401 771 c 128
 411.666666667 773.666666667 421.5 777.666666667 430.5 783 c 128
 439.5 788.333333333 447 794.666666667 453 802 c 128
 459 809.333333333 462 817.666666667 462 827 c 1
 607 827 l 1
 607 794.333333333 599.833333333 765 585.5 739 c 128
 571.166666667 713 552.666666667 691 530 673 c 128
 507.333333333 655 482 641.166666667 454 631.5 c 128
 426 621.833333333 398.666666667 617 372 617 c 0
 344 617 315.666666667 622 287 632 c 128
 258.333333333 642 232.5 656.5 209.5 675.5 c 128
 186.5 694.5 167.666666667 717.833333333 153 745.5 c 128
 138.333333333 773.166666667 131 805 131 841 c 0
 131 883.666666667 139.5 921 156.5 953 c 128
 173.5 985 196.166666667 1011.66666667 224.5 1033 c 128
 252.833333333 1054.33333333 285.5 1070.33333333 322.5 1081 c 128
 359.5 1091.66666667 397.666666667 1097 437 1097 c 0
 495.666666667 1097 549 1085.33333333 597 1062 c 128
 645 1038.66666667 687.166666667 1007.66666667 723.5 969 c 128
 759.833333333 930.333333333 790.166666667 886 814.5 836 c 128
 838.833333333 786 856.666666667 734.666666667 868 682 c 1
 920 705.333333333 974.5 722.833333333 1031.5 734.5 c 128
 1088.5 746.166666667 1145.33333333 752 1202 752 c 1
1287 602 m 1
 1269.66666667 566 1256.16666667 529 1246.5 491 c 128
 1236.83333333 453 1232 410 1232 362 c 0
 1234.66666667 304.666666667 1251.16666667 258.666666667 1281.5 224 c 128
 1311.83333333 189.333333333 1357 172 1417 172 c 0
 1439.66666667 172 1460.66666667 176.333333333 1480 185 c 128
 1499.33333333 193.666666667 1516.16666667 205.333333333 1530.5 220 c 128
 1544.83333333 234.666666667 1556.16666667 251.666666667 1564.5 271 c 128
 1572.83333333 290.333333333 1577 310.666666667 1577 332 c 0
 1577 376 1569.5 414 1554.5 446 c 128
 1539.5 478 1519 504.666666667 1493 526 c 128
 1467 547.333333333 1436.33333333 564.166666667 1401 576.5 c 128
 1365.66666667 588.833333333 1327.66666667 597.333333333 1287 602 c 1
667 307 m 1
 634.333333333 339.666666667 597.833333333 366.166666667 557.5 386.5 c 128
 517.166666667 406.833333333 472 417 422 417 c 0
 390.666666667 417 363.333333333 413.333333333 340 406 c 128
 316.666666667 398.666666667 297.333333333 389 282 377 c 128
 266.666666667 365 255.166666667 351.166666667 247.5 335.5 c 128
 239.833333333 319.833333333 236 303.666666667 236 287 c 0
 236 269.666666667 240 253 248 237 c 128
 256 221 267.833333333 206.666666667 283.5 194 c 128
 299.166666667 181.333333333 318.5 171.166666667 341.5 163.5 c 128
 364.5 155.833333333 391.333333333 152 422 152 c 0
 476.666666667 152 525.166666667 166.333333333 567.5 195 c 128
 609.833333333 223.666666667 643 261 667 307 c 1
EndSplineSet
EndChar

StartChar: u11D76
Encoding: 82 73078 82
Width: 1641
GlyphClass: 2
Flags: HW
AnchorPoint: "M" 1419 1318 basechar 0
AnchorPoint: "L" 0 0 basechar 0
AnchorPoint: "U" 1638 0 basechar 0
LayerCount: 3
Fore
SplineSet
-18 1320 m 1
 1674 1320 l 1
 1674 1226 l 1
 1491 1226 l 1
 1491 1090 l 2
 1491 1038 1480.83333333 989.333333333 1460.5 944 c 128
 1440.16666667 898.666666667 1413.5 856.833333333 1380.5 818.5 c 128
 1347.5 780.166666667 1310.5 745.166666667 1269.5 713.5 c 128
 1228.5 681.833333333 1187.33333333 654 1146 630 c 1
 1172 616 1196.33333333 599.666666667 1219 581 c 128
 1241.66666667 562.333333333 1261.5 541 1278.5 517 c 128
 1295.5 493 1309 466.333333333 1319 437 c 128
 1329 407.666666667 1334.66666667 375.333333333 1336 340 c 0
 1336 294 1328.16666667 250.333333333 1312.5 209 c 128
 1296.83333333 167.666666667 1275 131.5 1247 100.5 c 128
 1219 69.5 1185.33333333 45 1146 27 c 128
 1106.66666667 9 1063.33333333 0 1016 0 c 256
 968.666666667 0 925 7.5 885 22.5 c 128
 845 37.5 810.5 58.6666666667 781.5 86 c 128
 752.5 113.333333333 729.666666667 146.5 713 185.5 c 128
 696.333333333 224.5 687.333333333 267.666666667 686 315 c 0
 686 371 697 420.166666667 719 462.5 c 128
 741 504.833333333 770 544 806 580 c 1
 786 585.333333333 766 591.5 746 598.5 c 128
 726 605.5 706 612.666666667 686 620 c 1
 656 604.666666667 627.333333333 589.833333333 600 575.5 c 128
 572.666666667 561.166666667 546.333333333 547.666666667 521 535 c 1
 546.333333333 507 566.833333333 476.5 582.5 443.5 c 128
 598.166666667 410.5 606 376 606 340 c 0
 606 307.333333333 600.333333333 276.833333333 589 248.5 c 128
 577.666666667 220.166666667 561.833333333 195.333333333 541.5 174 c 128
 521.166666667 152.666666667 497 135.833333333 469 123.5 c 128
 441 111.166666667 410 105 376 105 c 256
 342 105 310.833333333 110.833333333 282.5 122.5 c 128
 254.166666667 134.166666667 229.833333333 150.333333333 209.5 171 c 128
 189.166666667 191.666666667 173.5 216 162.5 244 c 128
 151.5 272 146 302.333333333 146 335 c 0
 146 368.333333333 152.333333333 398.5 165 425.5 c 128
 177.666666667 452.5 194.666666667 477.333333333 216 500 c 128
 237.333333333 522.666666667 261.5 543.5 288.5 562.5 c 128
 315.5 581.5 343.5 599.333333333 372.5 616 c 128
 401.5 632.666666667 430.166666667 648.666666667 458.5 664 c 128
 486.833333333 679.333333333 512.666666667 694.666666667 536 710 c 1
 500 738 471 771.833333333 449 811.5 c 128
 427 851.166666667 416 897.333333333 416 950 c 0
 417.333333333 986 425.5 1018.5 440.5 1047.5 c 128
 455.5 1076.5 475.333333333 1101.16666667 500 1121.5 c 128
 524.666666667 1141.83333333 553 1157.5 585 1168.5 c 128
 617 1179.5 650.666666667 1185 686 1185 c 256
 721.333333333 1185 753.666666667 1179.83333333 783 1169.5 c 128
 812.333333333 1159.16666667 837.833333333 1144.33333333 859.5 1125 c 128
 881.166666667 1105.66666667 898.666666667 1082 912 1054 c 128
 925.333333333 1026 933.333333333 994.666666667 936 960 c 1
 936 906.666666667 926 861.666666667 906 825 c 128
 886 788.333333333 859.333333333 755 826 725 c 1
 851.333333333 717.666666667 875 711.333333333 897 706 c 128
 919 700.666666667 938.666666667 695.333333333 956 690 c 1
 980.666666667 704.666666667 1007.33333333 720.166666667 1036 736.5 c 128
 1064.66666667 752.833333333 1093.5 770.5 1122.5 789.5 c 128
 1151.5 808.5 1179.33333333 829 1206 851 c 128
 1232.66666667 873 1256.5 896.333333333 1277.5 921 c 128
 1298.5 945.666666667 1315.16666667 972 1327.5 1000 c 128
 1339.83333333 1028 1346 1058 1346 1090 c 2
 1346 1226 l 1
 -18 1226 l 1
 -18 1320 l 1
986 535 m 1
 964.666666667 519 944.666666667 502.666666667 926 486 c 128
 907.333333333 469.333333333 891 452 877 434 c 128
 863 416 851.833333333 397.166666667 843.5 377.5 c 128
 835.166666667 357.833333333 831 337 831 315 c 0
 833.666666667 259 852 217.5 886 190.5 c 128
 920 163.5 963.333333333 150 1016 150 c 0
 1042.66666667 150 1066.5 154.666666667 1087.5 164 c 128
 1108.5 173.333333333 1126.33333333 186 1141 202 c 128
 1155.66666667 218 1166.83333333 236.833333333 1174.5 258.5 c 128
 1182.16666667 280.166666667 1186 303.666666667 1186 329 c 0
 1186 358.333333333 1180.66666667 384 1170 406 c 128
 1159.33333333 428 1144.83333333 447.333333333 1126.5 464 c 128
 1108.16666667 480.666666667 1086.83333333 494.666666667 1062.5 506 c 128
 1038.16666667 517.333333333 1012.66666667 527 986 535 c 1
676 790 m 1
 708 814 734.333333333 838.166666667 755 862.5 c 128
 775.666666667 886.833333333 786 913.333333333 786 942 c 0
 786 977.333333333 776.833333333 1001.66666667 758.5 1015 c 128
 740.166666667 1028.33333333 716 1035 686 1035 c 0
 670.666666667 1035 655.833333333 1033.33333333 641.5 1030 c 128
 627.166666667 1026.66666667 614.5 1021.5 603.5 1014.5 c 128
 592.5 1007.5 583.5 998.166666667 576.5 986.5 c 128
 569.5 974.833333333 566 961 566 945 c 0
 566 912.333333333 576.166666667 883.333333333 596.5 858 c 128
 616.833333333 832.666666667 643.333333333 810 676 790 c 1
391 450 m 1
 327 420.666666667 295 380 295 328 c 0
 295 304.666666667 302.166666667 286.666666667 316.5 274 c 128
 330.833333333 261.333333333 350.666666667 255 376 255 c 256
 401.333333333 255 421 262.833333333 435 278.5 c 128
 449 294.166666667 456 314.666666667 456 340 c 0
 456 362.666666667 449.666666667 383.333333333 437 402 c 128
 424.333333333 420.666666667 409 436.666666667 391 450 c 1
EndSplineSet
EndChar

StartChar: u11D77
Encoding: 83 73079 83
Width: 1720
GlyphClass: 2
Flags: HW
AnchorPoint: "M" 1514 1318 basechar 0
AnchorPoint: "L" 0 0 basechar 0
AnchorPoint: "U" 1719 0 basechar 0
LayerCount: 3
Fore
SplineSet
1001 1320 m 1
 1778 1320 l 1
 1778 1226 l 1
 1579 1226 l 1
 1580 1209 l 2
 1580 1170.33333333 1570.33333333 1135.5 1551 1104.5 c 128
 1531.66666667 1073.5 1506.33333333 1044.33333333 1475 1017 c 128
 1443.66666667 989.666666667 1408.16666667 963.5 1368.5 938.5 c 128
 1328.83333333 913.5 1288.33333333 888 1247 862 c 1
 1275.66666667 848 1302.5 831.5 1327.5 812.5 c 128
 1352.5 793.5 1374.16666667 771.5 1392.5 746.5 c 128
 1410.83333333 721.5 1425.33333333 693.333333333 1436 662 c 128
 1446.66666667 630.666666667 1452 595.666666667 1452 557 c 0
 1452 519.666666667 1445.33333333 483.5 1432 448.5 c 128
 1418.66666667 413.5 1399.83333333 382.5 1375.5 355.5 c 128
 1351.16666667 328.5 1322.16666667 306.833333333 1288.5 290.5 c 128
 1254.83333333 274.166666667 1217.66666667 266 1177 266 c 0
 1137.66666667 266 1100 272.666666667 1064 286 c 128
 1028 299.333333333 996.166666667 318 968.5 342 c 128
 940.833333333 366 918.666666667 395 902 429 c 128
 885.333333333 463 877 500.666666667 877 542 c 0
 877 588 883.333333333 630 896 668 c 128
 908.666666667 706 929 744 957 782 c 1
 334 782 l 1
 337.333333333 777.333333333 340.333333333 773 343 769 c 128
 345.666666667 765 348.666666667 761 352 757 c 0
 367.333333333 737 386.5 718.666666667 409.5 702 c 128
 432.5 685.333333333 456.666666667 677 482 677 c 0
 520 677 557.333333333 673.5 594 666.5 c 128
 630.666666667 659.5 663.333333333 647.666666667 692 631 c 128
 720.666666667 614.333333333 743.666666667 591.833333333 761 563.5 c 128
 778.333333333 535.166666667 787 499.666666667 787 457 c 0
 787 410.333333333 773.666666667 368.666666667 747 332 c 1
 789 309.333333333 822.833333333 278.333333333 848.5 239 c 128
 874.166666667 199.666666667 887 150.666666667 887 92 c 1
 884.333333333 52 872.666666667 15 852 -19 c 128
 831.333333333 -53 804.666666667 -82.6666666667 772 -108 c 0
 749.333333333 -125.333333333 725.166666667 -139.5 699.5 -150.5 c 128
 673.833333333 -161.5 647.166666667 -170.166666667 619.5 -176.5 c 128
 591.833333333 -182.833333333 563.833333333 -187.166666667 535.5 -189.5 c 128
 507.166666667 -191.833333333 479.333333333 -193 452 -193 c 0
 420 -191 386.5 -186 351.5 -178 c 128
 316.5 -170 283 -158.5 251 -143.5 c 128
 219 -128.5 190.166666667 -109.833333333 164.5 -87.5 c 128
 138.833333333 -65.1666666667 119.666666667 -38.6666666667 107 -8 c 1
 242 57 l 1
 246.666666667 38.3333333333 258.5 22.6666666667 277.5 10 c 128
 296.5 -2.66666666667 318.666666667 -13 344 -21 c 128
 369.333333333 -29 395.333333333 -34.8333333333 422 -38.5 c 128
 448.666666667 -42.1666666667 471.666666667 -44 491 -44 c 0
 515 -44 540.833333333 -41.6666666667 568.5 -37 c 128
 596.166666667 -32.3333333333 622.333333333 -24.3333333333 647 -13 c 128
 671.666666667 -1.66666666667 692.833333333 13.3333333333 710.5 32 c 128
 728.166666667 50.6666666667 738.666666667 74 742 102 c 0
 742 107.333333333 741 113.166666667 739 119.5 c 128
 737 125.833333333 734.666666667 131.666666667 732 137 c 0
 725.333333333 159 713.833333333 176.333333333 697.5 189 c 128
 681.166666667 201.666666667 662.833333333 211.166666667 642.5 217.5 c 128
 622.166666667 223.833333333 601.166666667 227.833333333 579.5 229.5 c 128
 557.833333333 231.166666667 538.666666667 232 522 232 c 2
 282 232 l 1
 282 382 l 1
 343 382 343 382 378.5 382 c 128
 402.166666667 382 420.666666667 381.833333333 434 381.5 c 128
 447.333333333 381.166666667 457 381 463 381 c 128
 472 381 472 381 478 381 c 0
 494.666666667 381 512.333333333 381.833333333 531 383.5 c 128
 549.666666667 385.166666667 566.833333333 388.5 582.5 393.5 c 128
 598.166666667 398.5 611.166666667 406 621.5 416 c 128
 631.833333333 426 637 439.666666667 637 457 c 0
 637 475.666666667 631.166666667 490.166666667 619.5 500.5 c 128
 607.833333333 510.833333333 593.833333333 518.333333333 577.5 523 c 128
 561.166666667 527.666666667 544.166666667 530.333333333 526.5 531 c 128
 508.833333333 531.666666667 494 532 482 532 c 0
 424 532 373.166666667 546.666666667 329.5 576 c 128
 285.833333333 605.333333333 249.333333333 643 220 689 c 128
 190.666666667 735 168.666666667 786 154 842 c 128
 139.333333333 898 132 953 132 1007 c 0
 132 1076.33333333 144.666666667 1140.5 170 1199.5 c 128
 195.333333333 1258.5 229.833333333 1309.5 273.5 1352.5 c 128
 317.166666667 1395.5 368.166666667 1429.33333333 426.5 1454 c 128
 484.833333333 1478.66666667 546.666666667 1491.33333333 612 1492 c 0
 644 1490.66666667 675 1485 705 1475 c 128
 735 1465 761.666666667 1450.66666667 785 1432 c 128
 808.333333333 1413.33333333 827 1390.5 841 1363.5 c 128
 855 1336.5 862 1305.33333333 862 1270 c 0
 862 1233.33333333 855.5 1200.16666667 842.5 1170.5 c 128
 829.5 1140.83333333 811.5 1115.66666667 788.5 1095 c 128
 765.5 1074.33333333 738.166666667 1058.33333333 706.5 1047 c 128
 674.833333333 1035.66666667 640.666666667 1030 604 1030 c 0
 572.666666667 1030 543.833333333 1035.66666667 517.5 1047 c 128
 491.166666667 1058.33333333 467.833333333 1073.66666667 447.5 1093 c 128
 427.166666667 1112.33333333 410.166666667 1134.83333333 396.5 1160.5 c 128
 382.833333333 1186.16666667 373 1213.33333333 367 1242 c 1
 307 1176.66666667 277 1098.33333333 277 1007 c 0
 277 993.666666667 277.333333333 980.333333333 278 967 c 128
 278.666666667 953.666666667 280 940.333333333 282 927 c 1
 937 927 l 2
 959.666666667 927 983.333333333 926 1008 924 c 128
 1032.66666667 922 1059 919.666666667 1087 917 c 1
 1129.66666667 942.333333333 1171.33333333 967.5 1212 992.5 c 128
 1252.66666667 1017.5 1289 1042.16666667 1321 1066.5 c 128
 1353 1090.83333333 1378.66666667 1115.16666667 1398 1139.5 c 128
 1417.33333333 1163.83333333 1427 1188 1427 1212 c 2
 1427 1226 l 1
 1001 1226 l 1
 1001 1320 l 1
1127 752 m 1
 1095 720 1070.33333333 687.666666667 1053 655 c 128
 1035.66666667 622.333333333 1027 584.666666667 1027 542 c 0
 1027 523.333333333 1030.83333333 506 1038.5 490 c 128
 1046.16666667 474 1056.33333333 460.333333333 1069 449 c 128
 1081.66666667 437.666666667 1096.5 428.666666667 1113.5 422 c 128
 1130.5 415.333333333 1148.33333333 412 1167 412 c 256
 1185.66666667 412 1203.5 415.833333333 1220.5 423.5 c 128
 1237.5 431.166666667 1252.5 441.5 1265.5 454.5 c 128
 1278.5 467.5 1288.66666667 482.833333333 1296 500.5 c 128
 1303.33333333 518.166666667 1307 537 1307 557 c 0
 1307 584.333333333 1302 608.5 1292 629.5 c 128
 1282 650.5 1268.83333333 668.833333333 1252.5 684.5 c 128
 1236.16666667 700.166666667 1217.16666667 713.5 1195.5 724.5 c 128
 1173.83333333 735.5 1151 744.666666667 1127 752 c 1
522 1332 m 1
 516.666666667 1312.66666667 514 1296.66666667 514 1284 c 0
 514 1270 516.166666667 1256.5 520.5 1243.5 c 128
 524.833333333 1230.5 531.166666667 1219 539.5 1209 c 128
 547.833333333 1199 558.166666667 1191.16666667 570.5 1185.5 c 128
 582.833333333 1179.83333333 597.333333333 1177 614 1177 c 0
 644 1177 668.666666667 1185 688 1201 c 128
 707.333333333 1217 717 1239 717 1267 c 0
 717 1281 713.666666667 1292.66666667 707 1302 c 128
 700.333333333 1311.33333333 691.666666667 1319.16666667 681 1325.5 c 128
 670.333333333 1331.83333333 658.5 1336.66666667 645.5 1340 c 128
 632.5 1343.33333333 619.666666667 1345.66666667 607 1347 c 0
 580.333333333 1347 552 1342 522 1332 c 1
-39 1320 m 1
 98 1320 l 1
 98 1226 l 1
 -39 1226 l 1
 -39 1320 l 1
EndSplineSet
EndChar

StartChar: u11D84
Encoding: 84 73092 84
Width: 1555
GlyphClass: 2
Flags: HW
AnchorPoint: "M" 1334 1318 basechar 0
AnchorPoint: "L" 0 0 basechar 0
AnchorPoint: "U" 1656 0 basechar 0
LayerCount: 3
Fore
SplineSet
834 1320 m 1
 1594 1320 l 1
 1594 1226 l 1
 1406 1226 l 1
 1406 1075 l 2
 1406 1029 1398.83333333 985.666666667 1384.5 945 c 128
 1370.16666667 904.333333333 1349 867.666666667 1321 835 c 0
 1303.66666667 812.333333333 1284 791.833333333 1262 773.5 c 128
 1240 755.166666667 1217.16666667 738.166666667 1193.5 722.5 c 128
 1169.83333333 706.833333333 1145.66666667 691.833333333 1121 677.5 c 128
 1096.33333333 663.166666667 1073 649 1051 635 c 1
 1077 616.333333333 1101 596.333333333 1123 575 c 128
 1145 553.666666667 1164 530.5 1180 505.5 c 128
 1196 480.5 1208.5 453.5 1217.5 424.5 c 128
 1226.5 395.5 1231 364 1231 330 c 0
 1231 284.666666667 1223.33333333 242 1208 202 c 128
 1192.66666667 162 1171.16666667 127 1143.5 97 c 128
 1115.83333333 67 1082.66666667 43.3333333333 1044 26 c 128
 1005.33333333 8.66666666667 962.666666667 0 916 0 c 0
 868.666666667 0 824.833333333 7.5 784.5 22.5 c 128
 744.166666667 37.5 709.166666667 58.6666666667 679.5 86 c 128
 649.833333333 113.333333333 626.333333333 146.5 609 185.5 c 128
 591.666666667 224.5 582.333333333 267.666666667 581 315 c 0
 581 349 585.666666667 380.5 595 409.5 c 128
 604.333333333 438.5 617.166666667 465.666666667 633.5 491 c 128
 649.833333333 516.333333333 668.833333333 540 690.5 562 c 128
 712.166666667 584 735.666666667 605 761 625 c 1
 720.333333333 644.333333333 684.333333333 666 653 690 c 128
 621.666666667 714 595.166666667 742 573.5 774 c 128
 551.833333333 806 535.5 842.666666667 524.5 884 c 128
 513.5 925.333333333 508 973 508 1027 c 0
 508 1053.66666667 510 1079.5 514 1104.5 c 128
 518 1129.5 522.333333333 1153.66666667 527 1177 c 128
 531.666666667 1200.33333333 536 1223 540 1245 c 128
 544 1267 546 1288.66666667 546 1310 c 0
 546 1334.66666667 543.833333333 1359.83333333 539.5 1385.5 c 128
 535.166666667 1411.16666667 527.5 1434.33333333 516.5 1455 c 128
 505.5 1475.66666667 490.666666667 1492.5 472 1505.5 c 128
 453.333333333 1518.5 429.666666667 1525 401 1525 c 0
 378.333333333 1525 358.333333333 1520.33333333 341 1511 c 128
 323.666666667 1501.66666667 309 1489.5 297 1474.5 c 128
 285 1459.5 276 1442.5 270 1423.5 c 128
 264 1404.5 261 1385 261 1365 c 0
 261 1319 273.5 1285.83333333 298.5 1265.5 c 128
 323.5 1245.16666667 356 1235 396 1235 c 1
 396 1085 l 1
 354.666666667 1086.33333333 316.833333333 1093.66666667 282.5 1107 c 128
 248.166666667 1120.33333333 218.666666667 1139 194 1163 c 128
 169.333333333 1187 150.166666667 1216 136.5 1250 c 128
 122.833333333 1284 116 1322.33333333 116 1365 c 0
 116 1405 122.666666667 1443.33333333 136 1480 c 128
 149.333333333 1516.66666667 168.333333333 1549.16666667 193 1577.5 c 128
 217.666666667 1605.83333333 247.5 1628.33333333 282.5 1645 c 128
 317.5 1661.66666667 357 1670 401 1670 c 0
 451.666666667 1670 495.666666667 1660 533 1640 c 128
 570.333333333 1620 601 1593.16666667 625 1559.5 c 128
 649 1525.83333333 666.833333333 1487.33333333 678.5 1444 c 128
 690.166666667 1400.66666667 696 1356 696 1310 c 0
 696 1282.66666667 693.833333333 1255.83333333 689.5 1229.5 c 128
 685.166666667 1203.16666667 680.5 1177.83333333 675.5 1153.5 c 128
 670.5 1129.16666667 665.833333333 1105.33333333 661.5 1082 c 128
 657.166666667 1058.66666667 655 1036.33333333 655 1015 c 256
 655 993.666666667 656.833333333 970 660.5 944 c 128
 664.166666667 918 671 895 681 875 c 0
 701 839.666666667 731 810 771 786 c 128
 811 762 856 740 906 720 c 1
 921.333333333 727.333333333 936.166666667 735.666666667 950.5 745 c 128
 964.833333333 754.333333333 978.333333333 762.666666667 991 770 c 0
 1021 788 1051.83333333 806.666666667 1083.5 826 c 128
 1115.16666667 845.333333333 1144.16666667 867 1170.5 891 c 128
 1196.83333333 915 1218.5 941.833333333 1235.5 971.5 c 128
 1252.5 1001.16666667 1261 1035.66666667 1261 1075 c 2
 1261 1226 l 1
 834 1226 l 1
 834 1320 l 1
911 550 m 1
 887 534.666666667 864.166666667 518.5 842.5 501.5 c 128
 820.833333333 484.5 801.666666667 466.333333333 785 447 c 128
 768.333333333 427.666666667 755.166666667 407 745.5 385 c 128
 735.833333333 363 731 339.666666667 731 315 c 0
 731 260.333333333 748.166666667 219.166666667 782.5 191.5 c 128
 816.833333333 163.833333333 861.333333333 150 916 150 c 0
 942 150 965.5 155 986.5 165 c 128
 1007.5 175 1025.33333333 188.333333333 1040 205 c 128
 1054.66666667 221.666666667 1066 241.166666667 1074 263.5 c 128
 1082 285.833333333 1086 309.666666667 1086 335 c 0
 1084.66666667 359 1078.83333333 381.333333333 1068.5 402 c 128
 1058.16666667 422.666666667 1044.83333333 441.833333333 1028.5 459.5 c 128
 1012.16666667 477.166666667 993.833333333 493.5 973.5 508.5 c 128
 953.166666667 523.5 932.333333333 537.333333333 911 550 c 1
-39 1320 m 1
 37 1320 l 1
 37 1226 l 1
 -39 1226 l 1
 -39 1320 l 1
EndSplineSet
EndChar

StartChar: u11D7B
Encoding: 85 73083 85
Width: 1513
GlyphClass: 2
Flags: HW
AnchorPoint: "M" 1244 1318 basechar 0
AnchorPoint: "L" 0 0 basechar 0
AnchorPoint: "U" 1467 0 basechar 0
LayerCount: 3
Fore
SplineSet
-18 1320 m 1
 1534 1320 l 1
 1534 1226 l 1
 1325 1226 l 1
 1325 1075 l 2
 1325 1025 1314.33333333 976.666666667 1293 930 c 128
 1271.66666667 883.333333333 1244.16666667 840 1210.5 800 c 128
 1176.83333333 760 1139.16666667 724.166666667 1097.5 692.5 c 128
 1055.83333333 660.833333333 1015 635 975 615 c 1
 1003.66666667 600.333333333 1029.66666667 583.5 1053 564.5 c 128
 1076.33333333 545.5 1096.33333333 524 1113 500 c 128
 1129.66666667 476 1142.5 449 1151.5 419 c 128
 1160.5 389 1165 355.666666667 1165 319 c 0
 1165 273 1157.33333333 229.833333333 1142 189.5 c 128
 1126.66666667 149.166666667 1105.16666667 114.333333333 1077.5 85 c 128
 1049.83333333 55.6666666667 1016.66666667 32.5 978 15.5 c 128
 939.333333333 -1.5 896.666666667 -10 850 -10 c 0
 802.666666667 -10 758.833333333 -2.83333333333 718.5 11.5 c 128
 678.166666667 25.8333333333 643.166666667 46.5 613.5 73.5 c 128
 583.833333333 100.5 560.333333333 133.166666667 543 171.5 c 128
 525.666666667 209.833333333 516.333333333 252.666666667 515 300 c 0
 515 356 526.333333333 405.166666667 549 447.5 c 128
 571.666666667 489.833333333 602 529 640 565 c 1
 600 576.333333333 561.666666667 589.666666667 525 605 c 1
 509.666666667 595 495.666666667 585 483 575 c 128
 464 560 464 560 445 545 c 0
 427.666666667 531 409.333333333 515.833333333 390 499.5 c 128
 370.666666667 483.166666667 352.333333333 465.833333333 335 447.5 c 128
 317.666666667 429.166666667 301.833333333 409.833333333 287.5 389.5 c 128
 273.166666667 369.166666667 262.333333333 347.666666667 255 325 c 1
 115 375 l 1
 125.666666667 409 140.666666667 440.166666667 160 468.5 c 128
 179.333333333 496.833333333 201.333333333 523.5 226 548.5 c 128
 250.666666667 573.5 276.666666667 597.166666667 304 619.5 c 128
 331.333333333 641.833333333 358.333333333 663.666666667 385 685 c 1
 343 713.666666667 310 747.166666667 286 785.5 c 128
 262 823.833333333 250 869 250 921 c 0
 250 959 257.166666667 993.5 271.5 1024.5 c 128
 285.833333333 1055.5 305.166666667 1081.66666667 329.5 1103 c 128
 353.833333333 1124.33333333 382 1140.83333333 414 1152.5 c 128
 446 1164.16666667 479.666666667 1170 515 1170 c 0
 549 1170 581 1164.5 611 1153.5 c 128
 641 1142.5 667.5 1127 690.5 1107 c 128
 713.5 1087 731.666666667 1062.83333333 745 1034.5 c 128
 758.333333333 1006.16666667 765 974.666666667 765 940 c 0
 765 897.333333333 754.5 857.833333333 733.5 821.5 c 128
 712.5 785.166666667 684.666666667 749.666666667 650 715 c 1
 678 707.666666667 704 700.666666667 728 694 c 128
 752 687.333333333 772.666666667 682.666666667 790 680 c 1
 812.666666667 695.333333333 835.166666667 709.166666667 857.5 721.5 c 128
 879.833333333 733.833333333 902.333333333 746.666666667 925 760 c 0
 951 774.666666667 978.666666667 793 1008 815 c 128
 1037.33333333 837 1064.33333333 861.666666667 1089 889 c 128
 1113.66666667 916.333333333 1134.16666667 945.666666667 1150.5 977 c 128
 1166.83333333 1008.33333333 1175 1041 1175 1075 c 2
 1175 1226 l 1
 -18 1226 l 1
 -18 1320 l 1
820 520 m 1
 772 490 734.166666667 457.166666667 706.5 421.5 c 128
 678.833333333 385.833333333 665 347 665 305 c 0
 665 249 681.833333333 206.666666667 715.5 178 c 128
 749.166666667 149.333333333 794 135 850 135 c 0
 876 135 899.5 140 920.5 150 c 128
 941.5 160 959.333333333 173.5 974 190.5 c 128
 988.666666667 207.5 1000 227.666666667 1008 251 c 128
 1016 274.333333333 1020 299 1020 325 c 0
 1018.66666667 353.666666667 1012 378.833333333 1000 400.5 c 128
 988 422.166666667 972.666666667 440.833333333 954 456.5 c 128
 935.333333333 472.166666667 914.333333333 485.166666667 891 495.5 c 128
 867.666666667 505.833333333 844 514 820 520 c 1
505 780 m 1
 512.333333333 787.333333333 521.833333333 796 533.5 806 c 128
 545.166666667 816 556.666666667 827.166666667 568 839.5 c 128
 579.333333333 851.833333333 589.5 865.166666667 598.5 879.5 c 128
 607.5 893.833333333 613 909 615 925 c 0
 615 927.666666667 615.833333333 930.166666667 617.5 932.5 c 128
 619.166666667 934.833333333 620 937.333333333 620 940 c 0
 620 954 616.833333333 966.166666667 610.5 976.5 c 128
 604.166666667 986.833333333 596 995.666666667 586 1003 c 128
 576 1010.33333333 564.833333333 1015.83333333 552.5 1019.5 c 128
 540.166666667 1023.16666667 527.666666667 1025 515 1025 c 0
 501 1025 487.166666667 1023.16666667 473.5 1019.5 c 128
 459.833333333 1015.83333333 447.333333333 1010 436 1002 c 128
 424.666666667 994 415.333333333 984 408 972 c 128
 400.666666667 960 396.333333333 946 395 930 c 0
 395 900 405.166666667 872.5 425.5 847.5 c 128
 445.833333333 822.5 472.333333333 800 505 780 c 1
EndSplineSet
EndChar

